{
.appVersion = "895";
DisplayStrings = (
"Alkohole\012Bazarek\012Czekolada\012Drobiowe\012Elegancja\012Fryzjerstwo\012Garm/a.init/zdotaccent eria\012Herbaciany\012Imieniny\012Jad/lslash odajnia\012Jubiler\012Kaletnik\012Ma/sacute lanka\012Narkotyki\012Og\U00F3lnopolski\012Question\012Pasmanteria\012Robotniczy\012Turystyka\012Uniwersam\012Warszawski\012Vacation\012Xenna xtra\012Yerbata\012Zam\U00F3wienie\012\012\012\012\012\012 ",
"a /a.isol  b c /c.fina  d /d.fina  e /e.fina  f g h /h.fina  i /i.isol  j k /k.isol  l /l.fina  m /m.fina  n /n.isol  o p q r s t /t.fina  /u.init  /u.fina  vw x /x.isol  y z",
nn/n.init/n.fina/n.isol,
"Alkohol\012Alkohol\012Bazarek\012Bazarek\012Czekolada\012Delikatesy\012Delikatesy\012Egzotyczny\012Fajrant\012Fajrant\012Fajrant\012Fajrant\012Fajrant\012Fajrant\012Herbata\012Imieniny\012Jagody\012Jagody\012Jagody\012Lemingi\012Lemingi\012Lemingi\012Majonez\012Owocowy\012Papierosy\012Rachunki\012Taniocha\012Taniocha\012Taniocha\012Ulubieniec\012Ulubieniec\012Warszawski\012Warszawski\012Zdradziecki\012",
"AbcY\012Alkohol  \012B/brz a/igora/n-gora nan\012Coko lwieka m\012DOowntown",
"a/a.init/a.fina/a.isol b/b.init/b.fina/b.isol c/c.init/c.fina/c.isol d/d.init/d.fina/d.isol e/e.init/e.fina/e.isol f/f.init/f.fina/f.isol/glaska g/g.init/g.fina/g.isol h/h.init/h.fina/h.isol i/i.init/i.fina/i.isol j/j.init/j.fina/j.isol k/k.init/igora/k.fina/k.isol l/l.init/l.fina/l.isol m/m.init/m.fina/m.isol n/n.init/n.fina/n.isol o/o.init/o.fina/o.isol p/p.init/p.fina/p.isol q/q.init/q.fina/q.isol r/r.init/r.fina/r.isol s/s.init/s.fina/s.isol t/t.init/t.fina/t.isol u/u.init/u.fina/u.isol v/v.init/v.fina/v.isol w/w.init/w.fina/w.isol x/x.init/x.fina/x.isol y/y.init/y.fina/y.isol s szjjj/z.init/z.fina",
"Lombardd \012Lucyfer ",

glyphs = (
{
glyphname = a;
lastChange = "2016-08-05 18:19:08 +0000";
layers = (
{
associatedMasterId = "76F08205-C3C5-4E97-8429-CDDB50136507";
layerId = "A01A5CEC-A302-4E6F-A855-EAEC245464E4";
name = najstarsze;
paths = (
{
closed = 1;
nodes = (
"-12 71 OFFCURVE",
"50 0 OFFCURVE",
"176 0 CURVE",
"235.119 41.53 OFFCURVE",
"280.154 93.564 OFFCURVE",
"316.703 154.002 CURVE",
"294 28 LINE",
"460 0 LINE",
"581 85 OFFCURVE",
"663 214 OFFCURVE",
"714 369 CURVE",
"702 394 LINE",
"657 246 OFFCURVE",
"570 104 OFFCURVE",
"465 29 CURVE",
"545 474 LINE",
"545 474 OFFCURVE",
"471 500 OFFCURVE",
"374 500 CURVE SMOOTH",
"138 500 OFFCURVE",
"-12 366 OFFCURVE",
"-12 185 CURVE SMOOTH"
);
},
{
closed = 1;
nodes = (
"159 350 OFFCURVE",
"219 480 OFFCURVE",
"346 480 CURVE SMOOTH",
"362 480 OFFCURVE",
"374 478 OFFCURVE",
"374 478 CURVE",
"327.32 212.926 LINE",
"289.057 137.225 OFFCURVE",
"234 72 OFFCURVE",
"174 29 CURVE",
"174 29 OFFCURVE",
"159 84 OFFCURVE",
"159 182 CURVE SMOOTH"
);
}
);
width = 618;
},
{
associatedMasterId = "76F08205-C3C5-4E97-8429-CDDB50136507";
layerId = "7B68DDF3-DF55-4505-8761-0F7C2EC37A35";
name = stare;
paths = (
{
closed = 1;
nodes = (
"-15 71 OFFCURVE",
"47 0 OFFCURVE",
"173 0 CURVE",
"232 42 OFFCURVE",
"277 94 OFFCURVE",
"314 154 CURVE",
"291 28 LINE",
"457 0 LINE",
"578 85 OFFCURVE",
"660 214 OFFCURVE",
"711 369 CURVE",
"699 394 LINE",
"654 246 OFFCURVE",
"567 104 OFFCURVE",
"462 29 CURVE",
"542 474 LINE",
"542 474 OFFCURVE",
"468 500 OFFCURVE",
"371 500 CURVE SMOOTH",
"135 500 OFFCURVE",
"-15 366 OFFCURVE",
"-15 185 CURVE SMOOTH"
);
},
{
closed = 1;
nodes = (
"156 340 OFFCURVE",
"216 480 OFFCURVE",
"343 480 CURVE SMOOTH",
"359 480 OFFCURVE",
"371 478 OFFCURVE",
"371 478 CURVE",
"324 213 LINE",
"282 137 OFFCURVE",
"272 125 OFFCURVE",
"225 76 CURVE",
"225 76 OFFCURVE",
"156 114 OFFCURVE",
"156 227 CURVE SMOOTH"
);
}
);
width = 615;
},
{
components = (
{
name = ndol;
transform = "{1, 0, 0, 1, -14, 0}";
},
{
name = igora;
transform = "{1, 0, 0, 1, 274, 0}";
},
{
name = brz;
transform = "{1, 0, 0, 1, 52, 0}";
}
);
layerId = "76F08205-C3C5-4E97-8429-CDDB50136507";
width = 668;
},
{
associatedMasterId = "76F08205-C3C5-4E97-8429-CDDB50136507";
layerId = "C92EB0E4-4F5E-4DE3-B080-4833EB6DFCA5";
name = "stare Jul 22 16, 23:27";
paths = (
{
closed = 1;
nodes = (
"632 125 LINE",
"595 68 OFFCURVE",
"554 29 OFFCURVE",
"509 29 CURVE",
"589 474 LINE",
"418 500 LINE",
"405 425 LINE",
"405 425 OFFCURVE",
"360 88 OFFCURVE",
"360 88 CURVE",
"360 88 OFFCURVE",
"376 0 OFFCURVE",
"484 0 CURVE",
"559 0 OFFCURVE",
"612 44 OFFCURVE",
"652 107 CURVE"
);
},
{
closed = 1;
nodes = (
"116 502 OFFCURVE",
"18 386 OFFCURVE",
"18 211 CURVE SMOOTH",
"18 78 OFFCURVE",
"89 0 OFFCURVE",
"192 0 CURVE SMOOTH",
"301 0 OFFCURVE",
"360 88 OFFCURVE",
"360 88 CURVE",
"413 422 LINE",
"413 422 OFFCURVE",
"358 502 OFFCURVE",
"249 502 CURVE SMOOTH"
);
},
{
closed = 1;
nodes = (
"267 476 LINE",
"367 462 OFFCURVE",
"401 385 OFFCURVE",
"401 385 CURVE",
"357 125 LINE",
"357 125 OFFCURVE",
"304 26 OFFCURVE",
"184 26 CURVE"
);
}
);
width = 615;
}
);
leftKerningGroup = a;
leftMetricsKey = "=o";
rightMetricsKey = "=n";
unicode = 0061;
},
{
glyphname = a.init;
lastChange = "2016-08-05 18:19:52 +0000";
layers = (
{
components = (
{
name = ndol;
transform = "{1, 0, 0, 1, -14, 0}";
},
{
name = igora;
transform = "{1, 0, 0, 1, 274, 0}";
},
{
name = brz;
transform = "{1, 0, 0, 1, 52, 0}";
}
);
guideLines = (
{
position = "{610, 459}";
}
);
layerId = "76F08205-C3C5-4E97-8429-CDDB50136507";
width = 668;
},
{
associatedMasterId = "76F08205-C3C5-4E97-8429-CDDB50136507";
guideLines = (
{
position = "{610, 459}";
}
);
layerId = "076D7330-DAF1-4751-BE40-D2EF6820B2D9";
name = stare;
paths = (
{
closed = 1;
nodes = (
"-13 71 OFFCURVE",
"49 0 OFFCURVE",
"175 0 CURVE",
"234 42 OFFCURVE",
"279 94 OFFCURVE",
"316 154 CURVE",
"293 28 LINE",
"459 0 LINE",
"580 85 OFFCURVE",
"662 214 OFFCURVE",
"713 369 CURVE",
"701 394 LINE",
"656 246 OFFCURVE",
"569 104 OFFCURVE",
"464 29 CURVE",
"544 474 LINE",
"544 474 OFFCURVE",
"470 500 OFFCURVE",
"373 500 CURVE SMOOTH",
"137 500 OFFCURVE",
"-13 366 OFFCURVE",
"-13 185 CURVE SMOOTH"
);
},
{
closed = 1;
nodes = (
"158 340 OFFCURVE",
"218 480 OFFCURVE",
"345 480 CURVE SMOOTH",
"361 480 OFFCURVE",
"373 478 OFFCURVE",
"373 478 CURVE",
"326 213 LINE",
"284 137 OFFCURVE",
"274 125 OFFCURVE",
"227 76 CURVE",
"227 76 OFFCURVE",
"158 114 OFFCURVE",
"158 227 CURVE SMOOTH"
);
}
);
width = 617;
}
);
rightMetricsKey = "=n";
},
{
glyphname = a.fina;
lastChange = "2016-08-06 01:22:40 +0000";
layers = (
{
components = (
{
name = igora;
transform = "{1, 0, 0, 1, 274, 0}";
},
{
name = brz;
transform = "{1, 0, 0, 1, 52, 0}";
},
{
name = nogakoniec;
transform = "{1, 0, 0, 1, -14, 0}";
}
);
guideLines = (
{
angle = 261.369;
position = "{494, 474}";
}
);
layerId = "76F08205-C3C5-4E97-8429-CDDB50136507";
width = 653;
},
{
associatedMasterId = "76F08205-C3C5-4E97-8429-CDDB50136507";
guideLines = (
{
angle = 261.369;
position = "{504, 474}";
}
);
layerId = "D03902A7-462A-40D5-A0A6-01078EFABB4D";
name = stare;
paths = (
{
closed = 1;
nodes = (
"594 165 LINE",
"556 110 OFFCURVE",
"512 63 OFFCURVE",
"465 29 CURVE",
"545 474 LINE",
"545 474 OFFCURVE",
"471 500 OFFCURVE",
"374 500 CURVE SMOOTH",
"138 500 OFFCURVE",
"-12 346 OFFCURVE",
"-12 165 CURVE SMOOTH",
"-12 51 OFFCURVE",
"50 0 OFFCURVE",
"176 0 CURVE",
"235 42 OFFCURVE",
"280 94 OFFCURVE",
"317 154 CURVE",
"294 28 LINE",
"460 0 LINE",
"518 41 OFFCURVE",
"568 92 OFFCURVE",
"609 152 CURVE"
);
},
{
closed = 1;
nodes = (
"159 350 OFFCURVE",
"219 480 OFFCURVE",
"346 480 CURVE SMOOTH",
"362 480 OFFCURVE",
"374 478 OFFCURVE",
"374 478 CURVE",
"327 213 LINE",
"289 137 OFFCURVE",
"234 72 OFFCURVE",
"174 29 CURVE",
"174 29 OFFCURVE",
"159 84 OFFCURVE",
"159 182 CURVE SMOOTH"
);
}
);
width = 600;
}
);
leftMetricsKey = "=a";
rightKerningGroup = n;
rightMetricsKey = "=n.fina";
},
{
glyphname = a.isol;
lastChange = "2016-08-05 18:20:05 +0000";
layers = (
{
components = (
{
name = igora;
transform = "{1, 0, 0, 1, 274, 0}";
},
{
name = brz;
transform = "{1, 0, 0, 1, 52, 0}";
},
{
name = nogakoniec;
transform = "{1, 0, 0, 1, -14, 0}";
}
);
layerId = "76F08205-C3C5-4E97-8429-CDDB50136507";
width = 653;
},
{
associatedMasterId = "76F08205-C3C5-4E97-8429-CDDB50136507";
layerId = "B3A3FEBE-A641-4ADD-B674-74408EC1CC2F";
name = "Bold Jul 16 16, 20:32";
paths = (
{
closed = 1;
nodes = (
"626 165 LINE",
"588 110 OFFCURVE",
"544 63 OFFCURVE",
"497 29 CURVE",
"577 474 LINE",
"577 474 OFFCURVE",
"503 500 OFFCURVE",
"406 500 CURVE SMOOTH",
"170 500 OFFCURVE",
"20 346 OFFCURVE",
"20 165 CURVE SMOOTH",
"20 51 OFFCURVE",
"82 0 OFFCURVE",
"208 0 CURVE",
"267 42 OFFCURVE",
"312 94 OFFCURVE",
"349 154 CURVE",
"326 28 LINE",
"492 0 LINE",
"550 41 OFFCURVE",
"600 92 OFFCURVE",
"641 152 CURVE"
);
},
{
closed = 1;
nodes = (
"191 350 OFFCURVE",
"251 480 OFFCURVE",
"378 480 CURVE SMOOTH",
"394 480 OFFCURVE",
"406 478 OFFCURVE",
"406 478 CURVE",
"359 213 LINE",
"321 137 OFFCURVE",
"266 72 OFFCURVE",
"206 29 CURVE",
"206 29 OFFCURVE",
"191 84 OFFCURVE",
"191 182 CURVE SMOOTH"
);
}
);
width = 632;
}
);
leftMetricsKey = "=o";
rightMetricsKey = "=n.fina";
},
{
glyphname = b;
lastChange = "2016-08-05 18:20:11 +0000";
layers = (
{
associatedMasterId = "76F08205-C3C5-4E97-8429-CDDB50136507";
layerId = "7AC87C86-D575-4C7B-A21D-C17881560263";
name = stare;
paths = (
{
closed = 1;
nodes = (
"424 0 OFFCURVE",
"574 134 OFFCURVE",
"574 315 CURVE SMOOTH",
"574 429 OFFCURVE",
"512 500 OFFCURVE",
"386 500 CURVE",
"327 458 OFFCURVE",
"282 406 OFFCURVE",
"245 346 CURVE",
"323 777 LINE",
"157 805 LINE",
"17 26 LINE",
"17 26 OFFCURVE",
"91 0 OFFCURVE",
"188 0 CURVE SMOOTH"
);
},
{
closed = 1;
nodes = (
"200 20 OFFCURVE",
"188 22 OFFCURVE",
"188 22 CURVE",
"235 287 LINE",
"277 363 OFFCURVE",
"287 375 OFFCURVE",
"334 424 CURVE",
"334 424 OFFCURVE",
"403 386 OFFCURVE",
"403 273 CURVE SMOOTH",
"403 160 OFFCURVE",
"343 20 OFFCURVE",
"216 20 CURVE SMOOTH"
);
}
);
width = 614;
},
{
components = (
{
name = igora;
transform = "{-1, 0, 0, -1, 323, 500}";
},
{
name = hlaskagorna;
},
{
name = brz;
transform = "{-1, 0, 0, -1, 546, 502}";
}
);
layerId = "76F08205-C3C5-4E97-8429-CDDB50136507";
width = 603;
}
);
leftMetricsKey = "=n";
rightMetricsKey = "=o";
unicode = 0062;
},
{
glyphname = b.init;
lastChange = "2016-08-05 18:20:15 +0000";
layers = (
{
components = (
{
name = igora;
transform = "{-1, 0, 0, -1, 323, 500}";
},
{
name = hlaskagorna;
},
{
name = brz;
transform = "{-1, 0, 0, -1, 546, 502}";
}
);
layerId = "76F08205-C3C5-4E97-8429-CDDB50136507";
width = 603;
},
{
associatedMasterId = "76F08205-C3C5-4E97-8429-CDDB50136507";
layerId = "CDE26A24-DDDA-4821-9934-5601A8B28238";
name = stare;
paths = (
{
closed = 1;
nodes = (
"424 0 OFFCURVE",
"574 134 OFFCURVE",
"574 315 CURVE SMOOTH",
"574 429 OFFCURVE",
"512 500 OFFCURVE",
"386 500 CURVE",
"327 458 OFFCURVE",
"282 406 OFFCURVE",
"245 346 CURVE",
"323 777 LINE",
"157 805 LINE",
"17 26 LINE",
"17 26 OFFCURVE",
"91 0 OFFCURVE",
"188 0 CURVE SMOOTH"
);
},
{
closed = 1;
nodes = (
"200 20 OFFCURVE",
"188 22 OFFCURVE",
"188 22 CURVE",
"235 287 LINE",
"277 363 OFFCURVE",
"287 375 OFFCURVE",
"334 424 CURVE",
"334 424 OFFCURVE",
"403 386 OFFCURVE",
"403 273 CURVE SMOOTH",
"403 160 OFFCURVE",
"343 20 OFFCURVE",
"216 20 CURVE SMOOTH"
);
}
);
width = 600;
}
);
leftMetricsKey = "=n";
rightMetricsKey = "=o";
},
{
glyphname = b.fina;
lastChange = "2016-08-05 18:20:19 +0000";
layers = (
{
components = (
{
name = igora;
transform = "{-1, 0, 0, -1, 323, 500}";
},
{
name = hlaskagorna;
},
{
name = brz;
transform = "{-1, 0, 0, -1, 546, 502}";
}
);
layerId = "76F08205-C3C5-4E97-8429-CDDB50136507";
width = 603;
},
{
associatedMasterId = "76F08205-C3C5-4E97-8429-CDDB50136507";
layerId = "1665E964-204D-4716-A714-E080FF1A0DDF";
name = " stare";
paths = (
{
closed = 1;
nodes = (
"424 0 OFFCURVE",
"574 134 OFFCURVE",
"574 315 CURVE SMOOTH",
"574 429 OFFCURVE",
"512 500 OFFCURVE",
"386 500 CURVE",
"327 458 OFFCURVE",
"282 406 OFFCURVE",
"245 346 CURVE",
"323 777 LINE",
"157 805 LINE",
"17 26 LINE",
"17 26 OFFCURVE",
"91 0 OFFCURVE",
"188 0 CURVE SMOOTH"
);
},
{
closed = 1;
nodes = (
"200 20 OFFCURVE",
"188 22 OFFCURVE",
"188 22 CURVE",
"235 287 LINE",
"277 363 OFFCURVE",
"287 375 OFFCURVE",
"334 424 CURVE",
"334 424 OFFCURVE",
"403 386 OFFCURVE",
"403 273 CURVE SMOOTH",
"403 160 OFFCURVE",
"343 20 OFFCURVE",
"216 20 CURVE SMOOTH"
);
}
);
width = 600;
}
);
leftMetricsKey = "=n";
rightMetricsKey = "=o";
},
{
glyphname = b.isol;
lastChange = "2016-08-05 18:20:23 +0000";
layers = (
{
components = (
{
name = igora;
transform = "{-1, 0, 0, -1, 323, 500}";
},
{
name = hlaskagorna;
},
{
name = brz;
transform = "{-1, 0, 0, -1, 546, 502}";
}
);
layerId = "76F08205-C3C5-4E97-8429-CDDB50136507";
width = 603;
},
{
associatedMasterId = "76F08205-C3C5-4E97-8429-CDDB50136507";
layerId = "CE1B2A39-59CC-4437-8C72-57E10FED81CC";
name = stare;
paths = (
{
closed = 1;
nodes = (
"424 0 OFFCURVE",
"574 134 OFFCURVE",
"574 315 CURVE SMOOTH",
"574 429 OFFCURVE",
"512 500 OFFCURVE",
"386 500 CURVE",
"327 458 OFFCURVE",
"282 406 OFFCURVE",
"245 346 CURVE",
"323 777 LINE",
"157 805 LINE",
"17 26 LINE",
"17 26 OFFCURVE",
"91 0 OFFCURVE",
"188 0 CURVE SMOOTH"
);
},
{
closed = 1;
nodes = (
"200 20 OFFCURVE",
"188 22 OFFCURVE",
"188 22 CURVE",
"235 287 LINE",
"277 363 OFFCURVE",
"287 375 OFFCURVE",
"334 424 CURVE",
"334 424 OFFCURVE",
"403 386 OFFCURVE",
"403 273 CURVE SMOOTH",
"403 160 OFFCURVE",
"343 20 OFFCURVE",
"216 20 CURVE SMOOTH"
);
}
);
width = 600;
}
);
leftMetricsKey = "=n";
rightMetricsKey = "=o";
},
{
glyphname = c;
lastChange = "2016-08-06 01:09:56 +0000";
layers = (
{
associatedMasterId = "76F08205-C3C5-4E97-8429-CDDB50136507";
layerId = "47C07311-5EBC-449F-877A-CEB850254D10";
name = "Bold Jun 17 16, 21:28";
paths = (
{
closed = 1;
nodes = (
"116 288 LINE",
"116 432 OFFCURVE",
"167 480 OFFCURVE",
"217 480 CURVE",
"236 500 LINE",
"103 500 OFFCURVE",
"-16 361 OFFCURVE",
"-16 194 CURVE"
);
},
{
closed = 1;
nodes = (
"384 251 LINE",
"372 266 LINE",
"245 116 LINE",
"245 116 OFFCURVE",
"116 143 OFFCURVE",
"116 288 CURVE",
"-16 194 LINE",
"-16 16 OFFCURVE",
"183 0 OFFCURVE",
"183 0 CURVE"
);
},
{
closed = 1;
nodes = (
"217 480 LINE",
"280 480 OFFCURVE",
"301 419 OFFCURVE",
"301 419 CURVE",
"355 450 LINE",
"355 450 OFFCURVE",
"316 500 OFFCURVE",
"236 500 CURVE"
);
}
);
width = 369;
},
{
associatedMasterId = "76F08205-C3C5-4E97-8429-CDDB50136507";
layerId = "D3ABD752-948A-4CC2-99D9-D28E752EBB13";
name = "Bold Jun 17 16, 21:37";
paths = (
{
closed = 1;
nodes = (
"235 250 LINE",
"269 438 OFFCURVE",
"308 482 OFFCURVE",
"353 482 CURVE",
"331 500 LINE",
"226 500 OFFCURVE",
"89 424 OFFCURVE",
"59 250 CURVE"
);
},
{
closed = 1;
nodes = (
"266 37 LINE",
"220 37 OFFCURVE",
"210 106 OFFCURVE",
"235 250 CURVE",
"59 250 LINE",
"30 86 OFFCURVE",
"87 0 OFFCURVE",
"203 0 CURVE"
);
},
{
closed = 1;
nodes = (
"526 251 LINE",
"393 85 OFFCURVE",
"305 37 OFFCURVE",
"266 37 CURVE",
"203 0 LINE",
"314 0 OFFCURVE",
"411 78 OFFCURVE",
"538 236 CURVE"
);
},
{
closed = 1;
nodes = (
"353 482 LINE",
"405 482 OFFCURVE",
"442 425 OFFCURVE",
"421 310 CURVE",
"443 310 LINE",
"460 394 OFFCURVE",
"453 500 OFFCURVE",
"331 500 CURVE"
);
}
);
width = 535;
},
{
associatedMasterId = "76F08205-C3C5-4E97-8429-CDDB50136507";
layerId = "9DF21051-F5F7-469D-B5AF-59D880E6E867";
name = "Bold Jun 17 16, 22:51";
paths = (
{
closed = 1;
nodes = (
"235 250 LINE",
"269 438 OFFCURVE",
"308 482 OFFCURVE",
"353 482 CURVE",
"331 500 LINE",
"226 500 OFFCURVE",
"89 424 OFFCURVE",
"59 250 CURVE"
);
},
{
closed = 1;
nodes = (
"266 37 LINE",
"220 37 OFFCURVE",
"210 106 OFFCURVE",
"235 250 CURVE",
"59 250 LINE",
"30 86 OFFCURVE",
"87 0 OFFCURVE",
"203 0 CURVE"
);
},
{
closed = 1;
nodes = (
"526 251 LINE",
"393 85 OFFCURVE",
"305 37 OFFCURVE",
"266 37 CURVE",
"203 0 LINE",
"314 0 OFFCURVE",
"411 78 OFFCURVE",
"538 236 CURVE"
);
},
{
closed = 1;
nodes = (
"353 482 LINE",
"405 482 OFFCURVE",
"402 425 OFFCURVE",
"381 310 CURVE",
"523 310 LINE",
"548 435 OFFCURVE",
"482 500 OFFCURVE",
"331 500 CURVE"
);
}
);
width = 535;
},
{
associatedMasterId = "76F08205-C3C5-4E97-8429-CDDB50136507";
guideLines = (
{
angle = 259.919;
position = "{323, 371}";
}
);
layerId = "C305CA33-F059-4711-AD2A-D15D24AF098E";
name = koncowa;
paths = (
{
closed = 1;
nodes = (
"173 250 LINE",
"207 438 OFFCURVE",
"246 482 OFFCURVE",
"291 482 CURVE",
"291 500 LINE",
"157 500 OFFCURVE",
"27 424 OFFCURVE",
"-3 250 CURVE"
);
},
{
closed = 1;
nodes = (
"223 18 LINE",
"165 18 OFFCURVE",
"148 106 OFFCURVE",
"173 250 CURVE",
"-3 250 LINE",
"-32 86 OFFCURVE",
"96 0 OFFCURVE",
"223 0 CURVE"
);
},
{
closed = 1;
nodes = (
"291 482 LINE",
"332 482 OFFCURVE",
"339 460 OFFCURVE",
"323 371 CURVE SMOOTH",
"315 326 OFFCURVE",
"353 310 OFFCURVE",
"384 310 CURVE SMOOTH",
"411 310 OFFCURVE",
"445 322 OFFCURVE",
"453 376 CURVE SMOOTH",
"467 467 OFFCURVE",
"382 500 OFFCURVE",
"291 500 CURVE"
);
},
{
closed = 1;
nodes = (
"303 0 OFFCURVE",
"399 33 OFFCURVE",
"416 119 CURVE SMOOTH",
"428 178 OFFCURVE",
"389 190 OFFCURVE",
"362 190 CURVE SMOOTH",
"331 190 OFFCURVE",
"297 174 OFFCURVE",
"289 129 CURVE SMOOTH",
"274 40 OFFCURVE",
"252 18 OFFCURVE",
"223 18 CURVE",
"223 0 LINE"
);
}
);
width = 473;
},
{
associatedMasterId = "76F08205-C3C5-4E97-8429-CDDB50136507";
layerId = "0853E479-861E-4564-A35E-5B68B26D204F";
name = "Bold Jul 16 16, 20:28";
paths = (
{
closed = 1;
nodes = (
"-22 59 OFFCURVE",
"85 0 OFFCURVE",
"191 0 CURVE SMOOTH",
"367 0 OFFCURVE",
"476 185 OFFCURVE",
"583 329 CURVE",
"575 356 LINE",
"469 195 OFFCURVE",
"329 27 OFFCURVE",
"231 27 CURVE SMOOTH",
"163 27 OFFCURVE",
"149 108 OFFCURVE",
"149 190 CURVE SMOOTH",
"149 310 OFFCURVE",
"180 481 OFFCURVE",
"320 481 CURVE SMOOTH",
"353 481 OFFCURVE",
"375 469 OFFCURVE",
"375 469 CURVE SMOOTH",
"375 469 OFFCURVE",
"311 458 OFFCURVE",
"311 400 CURVE SMOOTH",
"311 362 OFFCURVE",
"338 335 OFFCURVE",
"379 335 CURVE SMOOTH",
"419 335 OFFCURVE",
"446 362 OFFCURVE",
"446 404 CURVE SMOOTH",
"446 466 OFFCURVE",
"388 500 OFFCURVE",
"296 500 CURVE SMOOTH",
"114 500 OFFCURVE",
"-22 364 OFFCURVE",
"-22 199 CURVE SMOOTH"
);
}
);
width = 493;
},
{
anchors = (
{
name = top;
position = "{318, 579}";
}
);
components = (
{
name = cbrzuch;
},
{
name = cterminal;
}
);
layerId = "76F08205-C3C5-4E97-8429-CDDB50136507";
width = 518;
},
{
associatedMasterId = "76F08205-C3C5-4E97-8429-CDDB50136507";
layerId = "CBA96978-1797-4ACA-8241-372CF61B682F";
name = "proper?";
paths = (
{
closed = 1;
nodes = (
"15 84 OFFCURVE",
"114 0 OFFCURVE",
"263 0 CURVE SMOOTH",
"527 0 OFFCURVE",
"619 330 OFFCURVE",
"619 330 CURVE",
"600 349 LINE",
"600 349 OFFCURVE",
"510 25 OFFCURVE",
"266 25 CURVE SMOOTH",
"219 25 OFFCURVE",
"195 35 OFFCURVE",
"195 35 CURVE",
"271 466 LINE",
"271 466 OFFCURVE",
"289 475 OFFCURVE",
"330 475 CURVE SMOOTH",
"362 475 OFFCURVE",
"384 470 OFFCURVE",
"399 465 CURVE",
"365 454 OFFCURVE",
"341 427 OFFCURVE",
"341 390 CURVE SMOOTH",
"341 343 OFFCURVE",
"379 305 OFFCURVE",
"426 305 CURVE SMOOTH",
"473 305 OFFCURVE",
"511 343 OFFCURVE",
"511 390 CURVE SMOOTH",
"511 457 OFFCURVE",
"436 500 OFFCURVE",
"333 500 CURVE SMOOTH",
"142 500 OFFCURVE",
"15 384 OFFCURVE",
"15 210 CURVE SMOOTH"
);
}
);
width = 523;
}
);
leftMetricsKey = "=o";
unicode = 0063;
},
{
glyphname = c.fina;
lastChange = "2016-08-05 18:24:43 +0000";
layers = (
{
components = (
{
name = cbrzuchkoniec;
},
{
name = cterminal;
}
);
layerId = "76F08205-C3C5-4E97-8429-CDDB50136507";
width = 516;
},
{
associatedMasterId = "76F08205-C3C5-4E97-8429-CDDB50136507";
layerId = "1C2519A0-3FE1-40CE-8D34-468BB79980F7";
name = "Bold Jul 16 16, 20:33";
paths = (
{
closed = 1;
nodes = (
"434 166 LINE",
"366 86 OFFCURVE",
"287 27 OFFCURVE",
"227 27 CURVE SMOOTH",
"153 27 OFFCURVE",
"149 108 OFFCURVE",
"149 190 CURVE SMOOTH",
"149 310 OFFCURVE",
"180 481 OFFCURVE",
"320 481 CURVE SMOOTH",
"353 481 OFFCURVE",
"375 469 OFFCURVE",
"375 469 CURVE SMOOTH",
"375 469 OFFCURVE",
"311 458 OFFCURVE",
"311 400 CURVE SMOOTH",
"311 362 OFFCURVE",
"338 335 OFFCURVE",
"379 335 CURVE SMOOTH",
"419 335 OFFCURVE",
"446 362 OFFCURVE",
"446 404 CURVE SMOOTH",
"446 466 OFFCURVE",
"388 500 OFFCURVE",
"296 500 CURVE SMOOTH",
"114 500 OFFCURVE",
"-22 364 OFFCURVE",
"-22 199 CURVE SMOOTH",
"-22 59 OFFCURVE",
"75 0 OFFCURVE",
"181 0 CURVE SMOOTH",
"293 0 OFFCURVE",
"377 67 OFFCURVE",
"450 152 CURVE"
);
}
);
width = 470;
}
);
leftMetricsKey = "=o";
},
{
glyphname = c.isol;
lastChange = "2016-08-05 18:22:18 +0000";
layers = (
{
components = (
{
name = c.fina;
}
);
layerId = "76F08205-C3C5-4E97-8429-CDDB50136507";
width = 516;
},
{
associatedMasterId = "76F08205-C3C5-4E97-8429-CDDB50136507";
layerId = "37FDFD0E-A36E-4DA0-B192-B83C91E6DD87";
name = "Bold Jul 16 16, 20:33";
paths = (
{
closed = 1;
nodes = (
"434 166 LINE",
"366 86 OFFCURVE",
"287 27 OFFCURVE",
"227 27 CURVE SMOOTH",
"153 27 OFFCURVE",
"149 108 OFFCURVE",
"149 190 CURVE SMOOTH",
"149 310 OFFCURVE",
"180 481 OFFCURVE",
"320 481 CURVE SMOOTH",
"353 481 OFFCURVE",
"375 469 OFFCURVE",
"375 469 CURVE SMOOTH",
"375 469 OFFCURVE",
"311 458 OFFCURVE",
"311 400 CURVE SMOOTH",
"311 362 OFFCURVE",
"338 335 OFFCURVE",
"379 335 CURVE SMOOTH",
"419 335 OFFCURVE",
"446 362 OFFCURVE",
"446 404 CURVE SMOOTH",
"446 466 OFFCURVE",
"388 500 OFFCURVE",
"296 500 CURVE SMOOTH",
"114 500 OFFCURVE",
"-22 364 OFFCURVE",
"-22 199 CURVE SMOOTH",
"-22 59 OFFCURVE",
"75 0 OFFCURVE",
"181 0 CURVE SMOOTH",
"293 0 OFFCURVE",
"377 67 OFFCURVE",
"450 152 CURVE"
);
}
);
width = 470;
}
);
leftMetricsKey = "=o";
rightMetricsKey = "=c.fina";
},
{
glyphname = d;
lastChange = "2016-08-05 18:33:31 +0000";
layers = (
{
components = (
{
name = hlaskagorna;
transform = "{1, 0, 0, 1, 313, 0}";
},
{
name = ndol;
transform = "{1, 0, 0, 1, -15, 0}";
},
{
name = brz;
transform = "{1, 0, 0, 1, 52, 0}";
}
);
layerId = "76F08205-C3C5-4E97-8429-CDDB50136507";
width = 667;
},
{
associatedMasterId = "76F08205-C3C5-4E97-8429-CDDB50136507";
layerId = "AEDA8F1F-D800-455C-A56C-DB485B6396AE";
name = "Bold Jun 17 16, 12:07";
paths = (
{
closed = 1;
nodes = (
"132 253 LINE",
"132 397 OFFCURVE",
"217 480 OFFCURVE",
"334 480 CURVE",
"334 500 LINE",
"138 500 OFFCURVE",
"-10 351 OFFCURVE",
"-10 185 CURVE"
);
},
{
closed = 1;
nodes = (
"310 251 LINE",
"296 266 LINE",
"179 122 LINE",
"179 122 OFFCURVE",
"132 148 OFFCURVE",
"132 253 CURVE",
"-10 185 LINE",
"-10 36 OFFCURVE",
"109 0 OFFCURVE",
"109 0 CURVE"
);
},
{
closed = 1;
nodes = (
"617 249 LINE",
"605 264 LINE",
"422 36 LINE",
"461 250 LINE",
"290 250 LINE",
"250 27 LINE",
"416 -1 LINE"
);
},
{
closed = 1;
nodes = (
"461 250 LINE",
"553 772 LINE",
"387 800 LINE",
"290 250 LINE"
);
}
);
width = 602;
},
{
associatedMasterId = "76F08205-C3C5-4E97-8429-CDDB50136507";
layerId = "6608748D-45A2-4C42-9F20-2EAC0238038F";
name = "Bold Jul 7 16, 19:57";
paths = (
{
closed = 1;
nodes = (
"15 56 OFFCURVE",
"71 0 OFFCURVE",
"203 0 CURVE",
"261.777 41.841 OFFCURVE",
"306.66 93.607 OFFCURVE",
"343.58 153.32 CURVE",
"321 28 LINE",
"487 0 LINE",
"608 85 OFFCURVE",
"690 214 OFFCURVE",
"741 369 CURVE",
"729 394 LINE",
"684 246 OFFCURVE",
"597 104 OFFCURVE",
"492 29 CURVE",
"625 772 LINE",
"459 800 LINE",
"405.542 499.98 LINE",
"401 500 LINE SMOOTH",
"165 500 OFFCURVE",
"15 366 OFFCURVE",
"15 174 CURVE SMOOTH"
);
},
{
closed = 1;
nodes = (
"186 350 OFFCURVE",
"246 480 OFFCURVE",
"373 480 CURVE SMOOTH",
"389 480 OFFCURVE",
"401 478 OFFCURVE",
"401 478 CURVE",
"354 213 LINE",
"313 137 OFFCURVE",
"274 90 OFFCURVE",
"218 41 CURVE",
"218 41 OFFCURVE",
"186 84 OFFCURVE",
"186 196 CURVE SMOOTH"
);
}
);
width = 645;
},
{
associatedMasterId = "76F08205-C3C5-4E97-8429-CDDB50136507";
layerId = "2CC05D56-7488-4E99-9186-99750702D454";
name = "Bold Jul 7 16, 19:57";
paths = (
{
closed = 1;
nodes = (
"15 56 OFFCURVE",
"71 0 OFFCURVE",
"203 0 CURVE",
"261.777 41.841 OFFCURVE",
"306.66 93.607 OFFCURVE",
"343.58 153.32 CURVE",
"321 28 LINE",
"487 0 LINE",
"608 85 OFFCURVE",
"690 214 OFFCURVE",
"741 369 CURVE",
"729 394 LINE",
"684 246 OFFCURVE",
"597 104 OFFCURVE",
"492 29 CURVE",
"625 772 LINE",
"459 800 LINE",
"405.542 499.98 LINE",
"401 500 LINE SMOOTH",
"165 500 OFFCURVE",
"15 366 OFFCURVE",
"15 174 CURVE SMOOTH"
);
},
{
closed = 1;
nodes = (
"186 350 OFFCURVE",
"246 480 OFFCURVE",
"373 480 CURVE SMOOTH",
"389 480 OFFCURVE",
"401 478 OFFCURVE",
"401 478 CURVE",
"354 213 LINE",
"313 137 OFFCURVE",
"274 90 OFFCURVE",
"218 41 CURVE",
"218 41 OFFCURVE",
"186 84 OFFCURVE",
"186 196 CURVE SMOOTH"
);
}
);
width = 645;
},
{
associatedMasterId = "76F08205-C3C5-4E97-8429-CDDB50136507";
layerId = "374B41F1-9254-4A3F-A97C-53DA68AA5124";
name = "Bold Jul 7 16, 19:57";
paths = (
{
closed = 1;
nodes = (
"15 56 OFFCURVE",
"71 0 OFFCURVE",
"203 0 CURVE",
"261.777 41.841 OFFCURVE",
"306.66 93.607 OFFCURVE",
"343.58 153.32 CURVE",
"321 28 LINE",
"487 0 LINE",
"608 85 OFFCURVE",
"690 214 OFFCURVE",
"741 369 CURVE",
"729 394 LINE",
"684 246 OFFCURVE",
"597 104 OFFCURVE",
"492 29 CURVE",
"625 772 LINE",
"459 800 LINE",
"405.542 499.98 LINE",
"401 500 LINE SMOOTH",
"165 500 OFFCURVE",
"15 366 OFFCURVE",
"15 174 CURVE SMOOTH"
);
},
{
closed = 1;
nodes = (
"186 350 OFFCURVE",
"246 480 OFFCURVE",
"373 480 CURVE SMOOTH",
"389 480 OFFCURVE",
"401 478 OFFCURVE",
"401 478 CURVE",
"354 213 LINE",
"313 137 OFFCURVE",
"274 90 OFFCURVE",
"218 41 CURVE",
"218 41 OFFCURVE",
"186 84 OFFCURVE",
"186 196 CURVE SMOOTH"
);
}
);
width = 645;
},
{
associatedMasterId = "76F08205-C3C5-4E97-8429-CDDB50136507";
layerId = "5FD722AA-C9BD-4FDE-A41F-9D62CB6F800B";
name = "Bold Jul 7 16, 19:57";
paths = (
{
closed = 1;
nodes = (
"-5 56 OFFCURVE",
"51 0 OFFCURVE",
"183 0 CURVE",
"242 42 OFFCURVE",
"287 94 OFFCURVE",
"324 153 CURVE",
"301 28 LINE",
"467 0 LINE",
"588 85 OFFCURVE",
"670 214 OFFCURVE",
"721 369 CURVE",
"709 394 LINE",
"664 246 OFFCURVE",
"577 104 OFFCURVE",
"472 29 CURVE",
"605 772 LINE",
"439 800 LINE",
"386 500 LINE",
"381 500 LINE SMOOTH",
"145 500 OFFCURVE",
"-5 366 OFFCURVE",
"-5 174 CURVE SMOOTH"
);
},
{
closed = 1;
nodes = (
"166 350 OFFCURVE",
"226 480 OFFCURVE",
"353 480 CURVE SMOOTH",
"369 480 OFFCURVE",
"381 478 OFFCURVE",
"381 478 CURVE",
"334 213 LINE",
"293 137 OFFCURVE",
"254 90 OFFCURVE",
"198 41 CURVE",
"198 41 OFFCURVE",
"166 84 OFFCURVE",
"166 196 CURVE SMOOTH"
);
}
);
width = 625;
},
{
associatedMasterId = "76F08205-C3C5-4E97-8429-CDDB50136507";
layerId = "E2AF9ECC-FE00-4CFD-8808-CFD449C4AC1A";
name = "Bold Jul 18 16, 12:51";
paths = (
{
closed = 1;
nodes = (
"118 502 OFFCURVE",
"20 386 OFFCURVE",
"20 211 CURVE SMOOTH",
"20 78 OFFCURVE",
"91 0 OFFCURVE",
"194 0 CURVE SMOOTH",
"303 0 OFFCURVE",
"362 88 OFFCURVE",
"362 88 CURVE",
"415 422 LINE",
"415 422 OFFCURVE",
"360 502 OFFCURVE",
"251 502 CURVE SMOOTH"
);
},
{
closed = 1;
nodes = (
"269 476 LINE",
"369 462 OFFCURVE",
"403 385 OFFCURVE",
"403 385 CURVE",
"359 125 LINE",
"359 125 OFFCURVE",
"308 26 OFFCURVE",
"186 26 CURVE"
);
},
{
closed = 1;
nodes = (
"704 245 OFFCURVE",
"616 27 OFFCURVE",
"512 28 CURVE",
"552 250 LINE",
"381 250 LINE",
"361 137 LINE SMOOTH",
"346 50 OFFCURVE",
"392 -2 OFFCURVE",
"474 -2 CURVE",
"646 -5 OFFCURVE",
"710 213 OFFCURVE",
"761 368 CURVE",
"749 393 LINE"
);
},
{
closed = 1;
nodes = (
"552 250 LINE",
"642 772 LINE",
"476 800 LINE",
"381 250 LINE"
);
}
);
width = 662;
}
);
leftMetricsKey = "=o";
rightMetricsKey = "=n";
unicode = 0064;
},
{
glyphname = d.init;
lastChange = "2016-08-05 18:20:32 +0000";
layers = (
{
components = (
{
name = hlaskagorna;
transform = "{1, 0, 0, 1, 313, 0}";
},
{
name = ndol;
transform = "{1, 0, 0, 1, -15, 0}";
},
{
name = brz;
transform = "{1, 0, 0, 1, 52, 0}";
}
);
layerId = "76F08205-C3C5-4E97-8429-CDDB50136507";
width = 667;
},
{
associatedMasterId = "76F08205-C3C5-4E97-8429-CDDB50136507";
layerId = "7AA1132B-7258-40EE-853B-D16860C162B7";
name = "Bold Jul 16 16, 20:33";
paths = (
{
closed = 1;
nodes = (
"20 71 OFFCURVE",
"82 0 OFFCURVE",
"208 0 CURVE",
"267 42 OFFCURVE",
"312 94 OFFCURVE",
"349 154 CURVE",
"326 28 LINE",
"492 0 LINE",
"613 85 OFFCURVE",
"695 214 OFFCURVE",
"746 369 CURVE",
"734 394 LINE",
"689 246 OFFCURVE",
"602 104 OFFCURVE",
"497 29 CURVE",
"630 772 LINE",
"464 800 LINE",
"411 500 LINE",
"406 500 LINE SMOOTH",
"170 500 OFFCURVE",
"20 366 OFFCURVE",
"20 185 CURVE SMOOTH"
);
},
{
closed = 1;
nodes = (
"191 340 OFFCURVE",
"251 480 OFFCURVE",
"378 480 CURVE SMOOTH",
"394 480 OFFCURVE",
"406 478 OFFCURVE",
"406 478 CURVE",
"359 213 LINE",
"317 137 OFFCURVE",
"307 125 OFFCURVE",
"260 76 CURVE",
"260 76 OFFCURVE",
"191 114 OFFCURVE",
"191 227 CURVE SMOOTH"
);
}
);
width = 650;
}
);
leftMetricsKey = "=o";
rightMetricsKey = "=n";
},
{
glyphname = d.fina;
lastChange = "2016-08-05 18:33:31 +0000";
layers = (
{
components = (
{
name = hlaskagorna;
transform = "{1, 0, 0, 1, 313, 0}";
},
{
name = brz;
transform = "{1, 0, 0, 1, 52, 0}";
},
{
name = nogakoniec;
transform = "{1, 0, 0, 1, -15, 0}";
}
);
layerId = "76F08205-C3C5-4E97-8429-CDDB50136507";
width = 652;
},
{
associatedMasterId = "76F08205-C3C5-4E97-8429-CDDB50136507";
layerId = "B299B3A5-8BF5-43CF-AE73-D5469AF48C12";
name = "Bold Jul 16 16, 20:33";
paths = (
{
closed = 1;
nodes = (
"587 165 LINE",
"550 110 OFFCURVE",
"506 63 OFFCURVE",
"459 29 CURVE",
"592 772 LINE",
"426 800 LINE",
"373 500 LINE",
"368 500 LINE SMOOTH",
"132 500 OFFCURVE",
"-18 366 OFFCURVE",
"-18 185 CURVE SMOOTH",
"-18 71 OFFCURVE",
"44 0 OFFCURVE",
"170 0 CURVE",
"229 42 OFFCURVE",
"274 94 OFFCURVE",
"311 154 CURVE",
"288 28 LINE",
"454 0 LINE",
"512 41 OFFCURVE",
"562 92 OFFCURVE",
"603 152 CURVE"
);
},
{
closed = 1;
nodes = (
"153 340 OFFCURVE",
"213 480 OFFCURVE",
"340 480 CURVE SMOOTH",
"356 480 OFFCURVE",
"368 478 OFFCURVE",
"368 478 CURVE",
"321 213 LINE",
"279 137 OFFCURVE",
"269 125 OFFCURVE",
"222 76 CURVE",
"222 76 OFFCURVE",
"153 114 OFFCURVE",
"153 227 CURVE SMOOTH"
);
}
);
width = 613;
}
);
leftMetricsKey = "=o";
rightMetricsKey = "=n.fina";
},
{
glyphname = d.isol;
lastChange = "2016-08-05 18:20:38 +0000";
layers = (
{
components = (
{
name = hlaskagorna;
transform = "{1, 0, 0, 1, 313, 0}";
},
{
name = brz;
transform = "{1, 0, 0, 1, 52, 0}";
},
{
name = nogakoniec;
transform = "{1, 0, 0, 1, -15, 0}";
}
);
layerId = "76F08205-C3C5-4E97-8429-CDDB50136507";
width = 652;
},
{
associatedMasterId = "76F08205-C3C5-4E97-8429-CDDB50136507";
layerId = "82CA75A5-C38F-4B2A-85D5-FA0D008CCCE1";
name = "Bold Jul 16 16, 20:33";
paths = (
{
closed = 1;
nodes = (
"625 165 LINE",
"588 110 OFFCURVE",
"544 63 OFFCURVE",
"497 29 CURVE",
"630 772 LINE",
"464 800 LINE",
"411 500 LINE",
"406 500 LINE SMOOTH",
"170 500 OFFCURVE",
"20 366 OFFCURVE",
"20 185 CURVE SMOOTH",
"20 71 OFFCURVE",
"82 0 OFFCURVE",
"208 0 CURVE",
"267 42 OFFCURVE",
"312 94 OFFCURVE",
"349 154 CURVE",
"326 28 LINE",
"492 0 LINE",
"550 41 OFFCURVE",
"600 92 OFFCURVE",
"641 152 CURVE"
);
},
{
closed = 1;
nodes = (
"191 340 OFFCURVE",
"251 480 OFFCURVE",
"378 480 CURVE SMOOTH",
"394 480 OFFCURVE",
"406 478 OFFCURVE",
"406 478 CURVE",
"359 213 LINE",
"317 137 OFFCURVE",
"307 125 OFFCURVE",
"260 76 CURVE",
"260 76 OFFCURVE",
"191 114 OFFCURVE",
"191 227 CURVE SMOOTH"
);
}
);
width = 651;
}
);
leftMetricsKey = "=o";
rightMetricsKey = "=n.fina";
},
{
glyphname = e;
lastChange = "2016-08-05 18:30:56 +0000";
layers = (
{
associatedMasterId = "76F08205-C3C5-4E97-8429-CDDB50136507";
layerId = "C0937A33-2490-40FA-BF40-06D5E095A11D";
name = "Bold Jun 17 16, 19:40";
paths = (
{
closed = 1;
nodes = (
"116 306 LINE",
"116 412 OFFCURVE",
"167 480 OFFCURVE",
"217 480 CURVE",
"236 500 LINE",
"103 500 OFFCURVE",
"-16 361 OFFCURVE",
"-16 194 CURVE"
);
},
{
closed = 1;
nodes = (
"384 251 LINE",
"370 266 LINE",
"254 126 LINE",
"254 126 OFFCURVE",
"116 123 OFFCURVE",
"116 306 CURVE",
"-16 194 LINE",
"-16 16 OFFCURVE",
"183 0 OFFCURVE",
"183 0 CURVE"
);
},
{
closed = 1;
nodes = (
"341 445 LINE",
"277 403 LINE",
"48 109 LINE",
"57 85 LINE"
);
},
{
closed = 1;
nodes = (
"217 480 LINE",
"280 480 OFFCURVE",
"277 403 OFFCURVE",
"277 403 CURVE",
"341 445 LINE",
"341 445 OFFCURVE",
"316 500 OFFCURVE",
"236 500 CURVE"
);
}
);
width = 369;
},
{
associatedMasterId = "76F08205-C3C5-4E97-8429-CDDB50136507";
layerId = "9803D032-FAEB-4513-8639-DD4D0D2F56AB";
name = "Bold Jun 17 16, 21:40";
paths = (
{
closed = 1;
nodes = (
"165 250 LINE",
"199 438 OFFCURVE",
"238 482 OFFCURVE",
"283 482 CURVE",
"261 500 LINE",
"156 500 OFFCURVE",
"19 424 OFFCURVE",
"-11 250 CURVE"
);
},
{
closed = 1;
nodes = (
"196 37 LINE",
"150 37 OFFCURVE",
"140 106 OFFCURVE",
"165 250 CURVE",
"-11 250 LINE",
"-40 86 OFFCURVE",
"17 0 OFFCURVE",
"133 0 CURVE"
);
},
{
closed = 1;
nodes = (
"456 251 LINE",
"323 85 OFFCURVE",
"235 37 OFFCURVE",
"196 37 CURVE",
"133 0 LINE",
"244 0 OFFCURVE",
"341 78 OFFCURVE",
"468 236 CURVE"
);
},
{
closed = 1;
nodes = (
"283 482 LINE",
"320 482 OFFCURVE",
"325 460 OFFCURVE",
"311 370 CURVE SMOOTH",
"298 286 OFFCURVE",
"430 249 OFFCURVE",
"453 370 CURVE SMOOTH",
"469 455 OFFCURVE",
"404 500 OFFCURVE",
"261 500 CURVE"
);
}
);
width = 465;
},
{
associatedMasterId = "76F08205-C3C5-4E97-8429-CDDB50136507";
layerId = "03E87174-B559-4FE7-898D-A220EB9E8733";
name = koncowa;
paths = (
{
closed = 1;
nodes = (
"165 250 LINE",
"199 438 OFFCURVE",
"238 482 OFFCURVE",
"283 482 CURVE",
"277 500 LINE",
"156 500 OFFCURVE",
"19 424 OFFCURVE",
"-11 250 CURVE"
);
},
{
closed = 1;
nodes = (
"223 18 LINE",
"166 18 OFFCURVE",
"140 106 OFFCURVE",
"165 250 CURVE",
"-11 250 LINE",
"-40 86 OFFCURVE",
"77 0 OFFCURVE",
"223 0 CURVE"
);
},
{
closed = 1;
nodes = (
"131 241 LINE",
"432 265 LINE",
"432 265 OFFCURVE",
"458 295 OFFCURVE",
"465 344 CURVE SMOOTH",
"476 429 OFFCURVE",
"415 500 OFFCURVE",
"277 500 CURVE",
"283 482 LINE",
"381 482 OFFCURVE",
"296 276 OFFCURVE",
"296 276 CURVE",
"111 262 LINE"
);
},
{
closed = 1;
nodes = (
"303 0 OFFCURVE",
"399 33 OFFCURVE",
"416 119 CURVE SMOOTH",
"428 178 OFFCURVE",
"389 190 OFFCURVE",
"362 190 CURVE SMOOTH",
"331 190 OFFCURVE",
"297 174 OFFCURVE",
"289 129 CURVE SMOOTH",
"274 40 OFFCURVE",
"252 18 OFFCURVE",
"223 18 CURVE",
"223 0 LINE"
);
}
);
width = 495;
},
{
associatedMasterId = "76F08205-C3C5-4E97-8429-CDDB50136507";
components = (
{
name = ecale;
},
{
name = "wyjscie-c-medial";
}
);
layerId = "3939FB96-89D5-4947-9A28-057BC9E19153";
name = "Bold Jul 7 16, 19:57";
width = 495;
},
{
associatedMasterId = "76F08205-C3C5-4E97-8429-CDDB50136507";
components = (
{
name = ecale;
},
{
name = "wyjscie-c-medial";
}
);
layerId = "51A91AE1-541E-4ABA-8260-90C089C7D503";
name = "Bold Jul 7 16, 19:57";
width = 495;
},
{
associatedMasterId = "76F08205-C3C5-4E97-8429-CDDB50136507";
components = (
{
name = ecale;
},
{
name = "wyjscie-c-medial";
}
);
layerId = "C98EC5CE-DB8A-49A6-B829-949F1DC81D5C";
name = "Bold Jul 7 16, 19:57";
width = 495;
},
{
associatedMasterId = "76F08205-C3C5-4E97-8429-CDDB50136507";
components = (
{
name = ecale;
},
{
name = "wyjscie-c-medial";
}
);
layerId = "92E32BC6-A82C-4817-A4ED-7888F5166D3B";
name = "Bold Jul 7 16, 19:57";
width = 495;
},
{
associatedMasterId = "76F08205-C3C5-4E97-8429-CDDB50136507";
layerId = "32FF5E98-E1A5-42C1-B774-45E7B3694362";
name = "Bold Jul 7 16, 20:08";
paths = (
{
closed = 1;
nodes = (
"127 500 OFFCURVE",
"-22 377 OFFCURVE",
"-22 200 CURVE SMOOTH",
"-22 59 OFFCURVE",
"72 0 OFFCURVE",
"185 0 CURVE SMOOTH",
"367 0 OFFCURVE",
"490 154 OFFCURVE",
"583 329 CURVE",
"575 356 LINE",
"462 134 OFFCURVE",
"327 27 OFFCURVE",
"235 27 CURVE SMOOTH",
"149 27 OFFCURVE",
"149 168 OFFCURVE",
"149 250 CURVE",
"224 224 OFFCURVE",
"378 187 OFFCURVE",
"432 265 CURVE",
"432 265 OFFCURVE",
"466 312 OFFCURVE",
"466 370 CURVE SMOOTH",
"466 460 OFFCURVE",
"385 500 OFFCURVE",
"291 500 CURVE SMOOTH"
);
},
{
closed = 1;
nodes = (
"163 463 OFFCURVE",
"228 482 OFFCURVE",
"270 482 CURVE SMOOTH",
"313 482 OFFCURVE",
"325 433 OFFCURVE",
"325 390 CURVE SMOOTH",
"325 228 OFFCURVE",
"272 237 OFFCURVE",
"149 269 CURVE"
);
}
);
width = 495;
},
{
associatedMasterId = "76F08205-C3C5-4E97-8429-CDDB50136507";
layerId = "7D5B0FCF-E2D3-4925-8B44-8A213DA7EDB5";
name = "Bold Jul 15 16, 23:01";
paths = (
{
closed = 1;
nodes = (
"129 500 OFFCURVE",
"-20 377 OFFCURVE",
"-20 200 CURVE SMOOTH",
"-20 59 OFFCURVE",
"74 0 OFFCURVE",
"187 0 CURVE SMOOTH",
"369 0 OFFCURVE",
"478 185 OFFCURVE",
"585 329 CURVE",
"577 356 LINE",
"471 195 OFFCURVE",
"329 27 OFFCURVE",
"237 27 CURVE SMOOTH",
"151 27 OFFCURVE",
"151 148 OFFCURVE",
"151 230 CURVE",
"454 255 LINE",
"454 255 OFFCURVE",
"478 302 OFFCURVE",
"478 356 CURVE SMOOTH",
"478 460 OFFCURVE",
"387 500 OFFCURVE",
"293 500 CURVE SMOOTH"
);
},
{
closed = 1;
nodes = (
"165 443 OFFCURVE",
"230 481 OFFCURVE",
"272 481 CURVE SMOOTH",
"329 481 OFFCURVE",
"337 413 OFFCURVE",
"337 370 CURVE SMOOTH",
"337 295 OFFCURVE",
"311 261 OFFCURVE",
"311 261 CURVE",
"151 249 LINE"
);
}
);
width = 495;
},
{
associatedMasterId = "76F08205-C3C5-4E97-8429-CDDB50136507";
layerId = "3707322C-9644-4B28-B61D-04F5B0F2D680";
name = "Bold Jul 22 16, 22:10";
paths = (
{
closed = 1;
nodes = (
"0 67 OFFCURVE",
"103 0 OFFCURVE",
"228 0 CURVE SMOOTH",
"492 0 OFFCURVE",
"584 330 OFFCURVE",
"584 330 CURVE",
"565 349 LINE",
"565 349 OFFCURVE",
"475 28 OFFCURVE",
"231 28 CURVE SMOOTH",
"184 28 OFFCURVE",
"150 43 OFFCURVE",
"150 43 CURVE",
"183 223 LINE",
"183 223 OFFCURVE",
"241 209 OFFCURVE",
"309 209 CURVE SMOOTH",
"432 209 OFFCURVE",
"514 288 OFFCURVE",
"514 362 CURVE SMOOTH",
"514 453 OFFCURVE",
"420 500 OFFCURVE",
"298 500 CURVE SMOOTH",
"150 500 OFFCURVE",
"0 371 OFFCURVE",
"0 215 CURVE SMOOTH"
);
},
{
closed = 1;
nodes = (
"226 464 LINE",
"226 464 OFFCURVE",
"254 475 OFFCURVE",
"295 475 CURVE SMOOTH",
"326 475 OFFCURVE",
"359 468 OFFCURVE",
"359 468 CURVE",
"317 236 LINE",
"244 231 OFFCURVE",
"187 251 OFFCURVE",
"187 251 CURVE"
);
}
);
width = 488;
},
{
components = (
{
name = cbrzuch;
},
{
name = emalybrzuch;
transform = "{1, 0, 0, 1, 10, 0}";
}
);
layerId = "76F08205-C3C5-4E97-8429-CDDB50136507";
width = 518;
},
{
associatedMasterId = "76F08205-C3C5-4E97-8429-CDDB50136507";
layerId = "105DFAD1-D16D-4EC6-80B8-FC477834D7A6";
name = "Bold Aug 2 16, 14:07";
paths = (
{
closed = 1;
nodes = (
"10 67 OFFCURVE",
"113 0 OFFCURVE",
"238 0 CURVE SMOOTH",
"502 0 OFFCURVE",
"594 330 OFFCURVE",
"594 330 CURVE",
"575 349 LINE",
"575 349 OFFCURVE",
"485 28 OFFCURVE",
"241 28 CURVE SMOOTH",
"194 28 OFFCURVE",
"160 43 OFFCURVE",
"160 43 CURVE",
"192 220 LINE",
"321 219 LINE",
"449 219 OFFCURVE",
"524 272 OFFCURVE",
"524 362 CURVE SMOOTH",
"524 449 OFFCURVE",
"444 500 OFFCURVE",
"308 500 CURVE SMOOTH",
"160 500 OFFCURVE",
"10 371 OFFCURVE",
"10 215 CURVE SMOOTH"
);
},
{
closed = 1;
nodes = (
"236 464 LINE",
"236 464 OFFCURVE",
"264 475 OFFCURVE",
"305 475 CURVE SMOOTH",
"336 475 OFFCURVE",
"369 468 OFFCURVE",
"369 468 CURVE",
"329 246 LINE",
"197 247 LINE"
);
}
);
width = 498;
},
{
associatedMasterId = "76F08205-C3C5-4E97-8429-CDDB50136507";
layerId = "8F7A2445-51D6-4B0A-952D-917730145ED6";
name = "Bold Aug 2 16, 14:07";
paths = (
{
closed = 1;
nodes = (
"10 67 OFFCURVE",
"113 0 OFFCURVE",
"238 0 CURVE SMOOTH",
"502 0 OFFCURVE",
"594 330 OFFCURVE",
"594 330 CURVE",
"575 349 LINE",
"575 349 OFFCURVE",
"485 28 OFFCURVE",
"241 28 CURVE SMOOTH",
"194 28 OFFCURVE",
"160 43 OFFCURVE",
"160 43 CURVE",
"192 220 LINE",
"321 219 LINE",
"449 219 OFFCURVE",
"524 272 OFFCURVE",
"524 362 CURVE SMOOTH",
"524 449 OFFCURVE",
"444 500 OFFCURVE",
"308 500 CURVE SMOOTH",
"160 500 OFFCURVE",
"10 371 OFFCURVE",
"10 215 CURVE SMOOTH"
);
},
{
closed = 1;
nodes = (
"236 464 LINE",
"236 464 OFFCURVE",
"264 475 OFFCURVE",
"305 475 CURVE SMOOTH",
"336 475 OFFCURVE",
"369 468 OFFCURVE",
"369 468 CURVE",
"329 246 LINE",
"197 247 LINE"
);
}
);
width = 498;
}
);
leftKerningGroup = o;
leftMetricsKey = "=o";
rightMetricsKey = "=c";
unicode = 0065;
},
{
glyphname = e.init;
lastChange = "2016-08-05 18:33:31 +0000";
layers = (
{
components = (
{
name = cbrzuch;
},
{
name = emalybrzuch;
}
);
layerId = "76F08205-C3C5-4E97-8429-CDDB50136507";
width = 518;
},
{
associatedMasterId = "76F08205-C3C5-4E97-8429-CDDB50136507";
layerId = "31170D4F-EA7B-4D8F-8979-F3473A8AC673";
name = "Bold Jul 16 16, 20:33";
paths = (
{
closed = 1;
nodes = (
"127 500 OFFCURVE",
"-22 377 OFFCURVE",
"-22 200 CURVE SMOOTH",
"-22 59 OFFCURVE",
"72 0 OFFCURVE",
"185 0 CURVE SMOOTH",
"367 0 OFFCURVE",
"490 154 OFFCURVE",
"583 329 CURVE",
"575 356 LINE",
"462 134 OFFCURVE",
"327 27 OFFCURVE",
"235 27 CURVE SMOOTH",
"149 27 OFFCURVE",
"149 148 OFFCURVE",
"149 230 CURVE",
"432 255 LINE",
"432 255 OFFCURVE",
"456 312 OFFCURVE",
"456 370 CURVE SMOOTH",
"456 460 OFFCURVE",
"385 500 OFFCURVE",
"291 500 CURVE SMOOTH"
);
},
{
closed = 1;
nodes = (
"163 443 OFFCURVE",
"228 482 OFFCURVE",
"262 482 CURVE SMOOTH",
"307 482 OFFCURVE",
"315 413 OFFCURVE",
"315 370 CURVE SMOOTH",
"315 295 OFFCURVE",
"289 261 OFFCURVE",
"289 261 CURVE",
"149 249 LINE"
);
}
);
width = 600;
}
);
leftMetricsKey = "=o";
rightMetricsKey = "=c";
},
{
glyphname = e.fina;
lastChange = "2016-08-06 01:26:15 +0000";
layers = (
{
components = (
{
name = cbrzuchkoniec;
},
{
name = emalybrzuch;
transform = "{1, 0, 0, 1, 10, 0}";
}
);
layerId = "76F08205-C3C5-4E97-8429-CDDB50136507";
width = 537;
},
{
associatedMasterId = "76F08205-C3C5-4E97-8429-CDDB50136507";
layerId = "902E8601-A584-4768-B76A-A61315789638";
name = "Bold Jul 16 16, 20:33";
paths = (
{
closed = 1;
nodes = (
"452 166 LINE",
"373 73 OFFCURVE",
"295 27 OFFCURVE",
"235 27 CURVE SMOOTH",
"149 27 OFFCURVE",
"149 148 OFFCURVE",
"149 230 CURVE",
"432 255 LINE",
"432 255 OFFCURVE",
"456 312 OFFCURVE",
"456 370 CURVE SMOOTH",
"456 460 OFFCURVE",
"385 500 OFFCURVE",
"291 500 CURVE SMOOTH",
"127 500 OFFCURVE",
"-22 377 OFFCURVE",
"-22 200 CURVE SMOOTH",
"-22 59 OFFCURVE",
"72 0 OFFCURVE",
"185 0 CURVE SMOOTH",
"300 0 OFFCURVE",
"392 62 OFFCURVE",
"468 152 CURVE"
);
},
{
closed = 1;
nodes = (
"163 443 OFFCURVE",
"228 482 OFFCURVE",
"262 482 CURVE SMOOTH",
"307 482 OFFCURVE",
"315 413 OFFCURVE",
"315 370 CURVE SMOOTH",
"315 295 OFFCURVE",
"289 261 OFFCURVE",
"289 261 CURVE",
"149 249 LINE"
);
}
);
width = 468;
}
);
leftMetricsKey = "=o";
rightKerningGroup = e;
rightMetricsKey = "=c.fina";
},
{
glyphname = e.isol;
lastChange = "2016-08-05 18:33:31 +0000";
layers = (
{
components = (
{
name = e.fina;
}
);
layerId = "76F08205-C3C5-4E97-8429-CDDB50136507";
width = 537;
},
{
associatedMasterId = "76F08205-C3C5-4E97-8429-CDDB50136507";
layerId = "DA15F614-C897-4F58-B934-E2CEF3F1970D";
name = "Bold Jul 16 16, 20:34";
paths = (
{
closed = 1;
nodes = (
"488 212 LINE",
"398 88 OFFCURVE",
"304 27 OFFCURVE",
"235 27 CURVE SMOOTH",
"149 27 OFFCURVE",
"149 148 OFFCURVE",
"149 230 CURVE",
"432 255 LINE",
"432 255 OFFCURVE",
"456 312 OFFCURVE",
"456 370 CURVE SMOOTH",
"456 460 OFFCURVE",
"385 500 OFFCURVE",
"291 500 CURVE SMOOTH",
"127 500 OFFCURVE",
"-22 377 OFFCURVE",
"-22 200 CURVE SMOOTH",
"-22 59 OFFCURVE",
"72 0 OFFCURVE",
"185 0 CURVE SMOOTH",
"320 0 OFFCURVE",
"423 85 OFFCURVE",
"505 200 CURVE"
);
},
{
closed = 1;
nodes = (
"163 443 OFFCURVE",
"228 482 OFFCURVE",
"262 482 CURVE SMOOTH",
"307 482 OFFCURVE",
"315 413 OFFCURVE",
"315 370 CURVE SMOOTH",
"315 295 OFFCURVE",
"289 261 OFFCURVE",
"289 261 CURVE",
"149 249 LINE"
);
}
);
width = 600;
}
);
leftMetricsKey = "=o";
rightMetricsKey = "=c.fina";
},
{
glyphname = f;
lastChange = "2016-08-05 18:17:39 +0000";
layers = (
{
components = (
{
name = jkoncowa;
transform = "{1, 0, 0, 1, 2, 23}";
},
{
name = jkoncowa;
transform = "{-1, 0, 0, -1, 265, 477}";
},
{
name = tkreska;
transform = "{1, 0, 0, 1, -10, 0}";
}
);
layerId = "76F08205-C3C5-4E97-8429-CDDB50136507";
paths = (
{
closed = 1;
nodes = (
"277 552 LINE",
"102 550 LINE",
"-10 -52 LINE",
"165 -50 LINE"
);
}
);
width = 315;
},
{
associatedMasterId = "76F08205-C3C5-4E97-8429-CDDB50136507";
layerId = "F9D12116-AE94-4FA2-B139-FBEF96DB039E";
name = "Bold Jun 18 16, 00:40";
paths = (
{
closed = 1;
nodes = (
"372 550 LINE",
"201 550 LINE",
"107 27 LINE",
"281 50 LINE"
);
},
{
closed = 1;
nodes = (
"372 550 LINE",
"406 736 OFFCURVE",
"427 782 OFFCURVE",
"480 782 CURVE",
"480 800 LINE",
"325 800 OFFCURVE",
"229 714 OFFCURVE",
"201 550 CURVE"
);
},
{
closed = 1;
nodes = (
"480 782 LINE",
"514 782 OFFCURVE",
"518 760 OFFCURVE",
"502 671 CURVE SMOOTH",
"494 626 OFFCURVE",
"532 610 OFFCURVE",
"563 610 CURVE SMOOTH",
"590 610 OFFCURVE",
"624 622 OFFCURVE",
"632 676 CURVE SMOOTH",
"645 757 OFFCURVE",
"592 800 OFFCURVE",
"480 800 CURVE"
);
},
{
closed = 1;
nodes = (
"590 433 LINE",
"578 448 LINE",
"287 86 LINE",
"318 250 LINE",
"148 250 LINE",
"107 27 LINE",
"281 49 LINE"
);
},
{
closed = 1;
nodes = (
"186 464 LINE",
"46 -312 LINE",
"212 -340 LINE",
"358 473 LINE",
"192 501 LINE",
"-9 251 LINE",
"3 236 LINE"
);
},
{
closed = 1;
nodes = (
"-25 -231 LINE",
"-55 -236 LINE",
"46 -312 LINE",
"52 -291 LINE"
);
},
{
closed = 1;
nodes = (
"138 -23 LINE",
"117 -22 LINE",
"-55 -236 LINE",
"-25 -231 LINE"
);
}
);
width = 434;
},
{
associatedMasterId = "76F08205-C3C5-4E97-8429-CDDB50136507";
components = (
{
name = fcale;
transform = "{1, 0, 0, 1, -90, 0}";
},
{
name = fdol;
transform = "{1, 0, 0, 1, -90, 0}";
},
{
name = fdol;
transform = "{-1, 0, 0, -1, 371, 477}";
}
);
layerId = "BEB7B672-7B7F-4EFF-9AC2-79A4A85DE95F";
name = koncowa;
width = 367;
}
);
unicode = 0066;
},
{
glyphname = f.init;
lastChange = "2016-08-05 18:33:31 +0000";
layers = (
{
components = (
{
name = jkoncowa;
transform = "{1, 0, 0, 1, 2, 23}";
},
{
name = jkoncowa;
transform = "{-1, 0, 0, -1, 265, 477}";
},
{
name = tkreska;
transform = "{1, 0, 0, 1, -10, 0}";
}
);
layerId = "76F08205-C3C5-4E97-8429-CDDB50136507";
paths = (
{
closed = 1;
nodes = (
"277 552 LINE",
"102 550 LINE",
"-10 -52 LINE",
"165 -50 LINE"
);
}
);
width = 315;
},
{
associatedMasterId = "76F08205-C3C5-4E97-8429-CDDB50136507";
components = (
{
name = fcale;
},
{
name = fdol;
},
{
name = fdol;
transform = "{-1, 0, 0, -1, 461, 477}";
}
);
layerId = "BDC77088-70D9-4DD4-9CDE-23947B9DBED8";
name = "Bold Jul 16 16, 20:40";
width = 448;
}
);
leftMetricsKey = "=f";
rightMetricsKey = "=f";
},
{
glyphname = f.fina;
lastChange = "2016-08-05 18:33:31 +0000";
layers = (
{
components = (
{
name = jkoncowa;
transform = "{1, 0, 0, 1, 2, 23}";
},
{
name = jkoncowa;
transform = "{-1, 0, 0, -1, 265, 477}";
},
{
name = tkreska;
transform = "{1, 0, 0, 1, -10, 0}";
}
);
layerId = "76F08205-C3C5-4E97-8429-CDDB50136507";
paths = (
{
closed = 1;
nodes = (
"277 552 LINE",
"102 550 LINE",
"-10 -52 LINE",
"165 -50 LINE"
);
}
);
width = 315;
},
{
associatedMasterId = "76F08205-C3C5-4E97-8429-CDDB50136507";
components = (
{
name = fcale;
},
{
name = fdol;
},
{
name = fdol;
transform = "{-1, 0, 0, -1, 461, 477}";
}
);
layerId = "43831D3C-D61D-42CE-AAB0-241107D60F3F";
name = "Bold Jul 16 16, 20:40";
width = 600;
}
);
leftMetricsKey = "=f";
rightMetricsKey = "=f";
},
{
glyphname = f.isol;
lastChange = "2016-08-05 18:33:31 +0000";
layers = (
{
components = (
{
name = jkoncowa;
transform = "{1, 0, 0, 1, 2, 23}";
},
{
name = jkoncowa;
transform = "{-1, 0, 0, -1, 265, 477}";
},
{
name = tkreska;
transform = "{1, 0, 0, 1, -10, 0}";
}
);
layerId = "76F08205-C3C5-4E97-8429-CDDB50136507";
paths = (
{
closed = 1;
nodes = (
"277 552 LINE",
"102 550 LINE",
"-10 -52 LINE",
"165 -50 LINE"
);
}
);
width = 315;
},
{
associatedMasterId = "76F08205-C3C5-4E97-8429-CDDB50136507";
components = (
{
name = fcale;
},
{
name = fdol;
},
{
name = fdol;
transform = "{-1, 0, 0, -1, 461, 477}";
}
);
layerId = "42930A55-0292-4803-AFF0-C04AC234E7A6";
name = "Bold Jul 16 16, 20:40";
width = 600;
}
);
leftMetricsKey = "=f";
rightMetricsKey = "=f";
},
{
glyphname = g;
lastChange = "2016-08-06 01:30:34 +0000";
layers = (
{
associatedMasterId = "76F08205-C3C5-4E97-8429-CDDB50136507";
layerId = "5E354575-672F-468C-A2AB-0C1D3E756837";
name = "Bold Jun 18 16, 00:23";
paths = (
{
closed = 1;
nodes = (
"377 500 LINE",
"231 -312 LINE",
"397 -340 LINE",
"540 470 LINE"
);
},
{
closed = 1;
nodes = (
"169 250 LINE",
"203 438 OFFCURVE",
"242 482 OFFCURVE",
"287 482 CURVE",
"264 500 LINE",
"167 500 OFFCURVE",
"25 444 OFFCURVE",
"-7 250 CURVE"
);
},
{
closed = 1;
nodes = (
"188 48 LINE",
"154 48 OFFCURVE",
"144 106 OFFCURVE",
"169 250 CURVE",
"-7 250 LINE",
"-36 86 OFFCURVE",
"21 0 OFFCURVE",
"116 0 CURVE"
);
},
{
closed = 1;
nodes = (
"355 310 LINE",
"330 173 OFFCURVE",
"239 48 OFFCURVE",
"188 48 CURVE",
"116 0 LINE",
"248 0 OFFCURVE",
"352 166 OFFCURVE",
"377 310 CURVE"
);
},
{
closed = 1;
nodes = (
"287 482 LINE",
"339 482 OFFCURVE",
"376 425 OFFCURVE",
"355 310 CURVE",
"377 310 LINE",
"394 394 OFFCURVE",
"394 500 OFFCURVE",
"264 500 CURVE"
);
},
{
closed = 1;
nodes = (
"160 -231 LINE",
"130 -236 LINE",
"231 -312 LINE",
"237 -291 LINE"
);
},
{
closed = 1;
nodes = (
"323 -23 LINE",
"302 -22 LINE",
"130 -236 LINE",
"160 -231 LINE"
);
}
);
width = 534;
},
{
associatedMasterId = "76F08205-C3C5-4E97-8429-CDDB50136507";
guideLines = (
{
angle = 259.988;
position = "{169, 250}";
}
);
layerId = "CD7F0F7E-679B-46F6-B586-CD275F1640D9";
name = nowe;
paths = (
{
closed = 1;
nodes = (
"-42 -279 OFFCURVE",
"46 -323 OFFCURVE",
"138 -323 CURVE SMOOTH",
"270.186 -323 OFFCURVE",
"407.026 -242.938 OFFCURVE",
"441.631 -90 CURVE",
"542 474 LINE",
"542 474 OFFCURVE",
"464 413 OFFCURVE",
"359 413 CURVE",
"275.025 -73 LINE SMOOTH",
"244 -250 OFFCURVE",
"191 -304 OFFCURVE",
"119 -304 CURVE SMOOTH",
"71 -304 OFFCURVE",
"39 -279 OFFCURVE",
"39 -279 CURVE SMOOTH",
"39 -279 OFFCURVE",
"93 -271 OFFCURVE",
"93 -213 CURVE SMOOTH",
"93 -175 OFFCURVE",
"66 -148 OFFCURVE",
"25 -148 CURVE SMOOTH",
"-15 -148 OFFCURVE",
"-42 -175 OFFCURVE",
"-42 -217 CURVE SMOOTH"
);
},
{
closed = 1;
nodes = (
"107 502 OFFCURVE",
"-7 366 OFFCURVE",
"-7 192 CURVE SMOOTH",
"-7 84 OFFCURVE",
"41 2 OFFCURVE",
"146 2 CURVE SMOOTH",
"257 2 OFFCURVE",
"310 95 OFFCURVE",
"310 95 CURVE",
"542 474 LINE",
"376 500 LINE",
"364 439 LINE",
"364 439 OFFCURVE",
"312 502 OFFCURVE",
"229 502 CURVE SMOOTH"
);
},
{
closed = 1;
nodes = (
"230 483 LINE",
"313 480 OFFCURVE",
"359 413 OFFCURVE",
"359 413 CURVE",
"309 128 LINE",
"309 128 OFFCURVE",
"255 27 OFFCURVE",
"147 23 CURVE"
);
}
);
width = 534;
},
{
associatedMasterId = "76F08205-C3C5-4E97-8429-CDDB50136507";
guideLines = (
{
angle = 259.988;
position = "{169, 250}";
}
);
layerId = "268623C8-83B7-4261-99F1-2ABD46BBF324";
name = "Bold Jul 15 16, 18:15";
paths = (
{
closed = 1;
nodes = (
"-60 -216 LINE",
"-60 -305 OFFCURVE",
"47 -323 OFFCURVE",
"117 -323 CURVE SMOOTH",
"270 -323 OFFCURVE",
"407.026 -242.938 OFFCURVE",
"441.631 -90 CURVE",
"539 464 LINE",
"539 464 OFFCURVE",
"479 500 OFFCURVE",
"374 500 CURVE SMOOTH",
"138 500 OFFCURVE",
"-12 366 OFFCURVE",
"-12 185 CURVE SMOOTH",
"-12 56 OFFCURVE",
"64 0 OFFCURVE",
"176 0 CURVE",
"233.831 41.168 OFFCURVE",
"278.211 91.943 OFFCURVE",
"314.79 150.442 CURVE",
"275.025 -73 LINE SMOOTH",
"241 -249 OFFCURVE",
"199 -304 OFFCURVE",
"117 -304 CURVE SMOOTH",
"56 -304 OFFCURVE",
"-40 -275 OFFCURVE",
"-39 -216 CURVE"
);
},
{
closed = 1;
nodes = (
"158 340 OFFCURVE",
"219 480 OFFCURVE",
"346 480 CURVE SMOOTH",
"359.437 480 OFFCURVE",
"370.053 478.589 OFFCURVE",
"373.109 478.138 CURVE",
"325.397 210.042 LINE",
"284.98 135.774 OFFCURVE",
"274 125 OFFCURVE",
"227 76 CURVE",
"227 76 OFFCURVE",
"158 114 OFFCURVE",
"158 227 CURVE SMOOTH"
);
},
{
closed = 1;
nodes = (
"162 17 OFFCURVE",
"-60 -110 OFFCURVE",
"-60 -216 CURVE",
"-39 -216 LINE",
"-40 -117 OFFCURVE",
"176 1 OFFCURVE",
"176 1 CURVE",
"162 17 LINE"
);
}
);
width = 534;
},
{
associatedMasterId = "76F08205-C3C5-4E97-8429-CDDB50136507";
guideLines = (
{
angle = 259.988;
position = "{221, 250}";
}
);
layerId = "0D42E4CB-4318-423C-AF5B-8E0B15525908";
name = "Bold Jul 15 16, 19:51";
paths = (
{
closed = 1;
nodes = (
"10 -279 OFFCURVE",
"98 -323 OFFCURVE",
"190 -323 CURVE SMOOTH",
"322 -323 OFFCURVE",
"459 -243 OFFCURVE",
"494 -90 CURVE",
"591 464 LINE",
"591 464 OFFCURVE",
"531 500 OFFCURVE",
"426 500 CURVE SMOOTH",
"190 500 OFFCURVE",
"40 366 OFFCURVE",
"40 185 CURVE SMOOTH",
"40 56 OFFCURVE",
"116 0 OFFCURVE",
"228 0 CURVE",
"286 41 OFFCURVE",
"330 92 OFFCURVE",
"367 150 CURVE",
"327 -73 LINE SMOOTH",
"293 -249 OFFCURVE",
"243 -304 OFFCURVE",
"171 -304 CURVE SMOOTH",
"123 -304 OFFCURVE",
"91 -279 OFFCURVE",
"91 -279 CURVE SMOOTH",
"91 -279 OFFCURVE",
"145 -271 OFFCURVE",
"145 -213 CURVE SMOOTH",
"145 -175 OFFCURVE",
"118 -148 OFFCURVE",
"77 -148 CURVE SMOOTH",
"37 -148 OFFCURVE",
"10 -175 OFFCURVE",
"10 -217 CURVE SMOOTH"
);
},
{
closed = 1;
nodes = (
"210 340 OFFCURVE",
"271 480 OFFCURVE",
"398 480 CURVE SMOOTH",
"411 480 OFFCURVE",
"422 479 OFFCURVE",
"425 478 CURVE",
"377 210 LINE",
"337 136 OFFCURVE",
"326 125 OFFCURVE",
"279 76 CURVE",
"279 76 OFFCURVE",
"210 114 OFFCURVE",
"210 227 CURVE SMOOTH"
);
}
);
width = 586;
},
{
components = (
{
name = glaska;
transform = "{1, 0, 0, 1, -23, 0}";
},
{
name = brz;
transform = "{1, 0, 0, 1, 58, 0}";
}
);
guideLines = (
{
angle = 259.988;
position = "{400, 385}";
}
);
layerId = "76F08205-C3C5-4E97-8429-CDDB50136507";
width = 604;
},
{
associatedMasterId = "76F08205-C3C5-4E97-8429-CDDB50136507";
guideLines = (
{
angle = 259.988;
position = "{239, 250}";
}
);
layerId = "5FA4FA93-B860-43EA-A49C-C813FB5A45F5";
name = najnowsze;
paths = (
{
closed = 1;
nodes = (
"10 -162 LINE",
"10 -263 OFFCURVE",
"82 -323 OFFCURVE",
"203 -323 CURVE SMOOTH",
"364 -323 OFFCURVE",
"485 -241 OFFCURVE",
"512 -90 CURVE SMOOTH",
"612 474 LINE",
"442 498 LINE",
"345 -73 LINE SMOOTH",
"321 -213 OFFCURVE",
"259 -295 OFFCURVE",
"163 -295 CURVE SMOOTH",
"89 -295 OFFCURVE",
"38 -247 OFFCURVE",
"38 -165 CURVE"
);
},
{
closed = 1;
nodes = (
"162 37 OFFCURVE",
"10 -19 OFFCURVE",
"10 -162 CURVE",
"38 -165 LINE",
"37 -26 OFFCURVE",
"186 21 OFFCURVE",
"186 21 CURVE",
"162 37 LINE"
);
},
{
closed = 1;
nodes = (
"138 502 OFFCURVE",
"40 386 OFFCURVE",
"40 211 CURVE SMOOTH",
"40 78 OFFCURVE",
"111 0 OFFCURVE",
"214 0 CURVE SMOOTH",
"323 0 OFFCURVE",
"382 88 OFFCURVE",
"382 88 CURVE",
"435 422 LINE",
"435 422 OFFCURVE",
"380 502 OFFCURVE",
"271 502 CURVE SMOOTH"
);
},
{
closed = 1;
nodes = (
"289 476 LINE",
"389 462 OFFCURVE",
"423 385 OFFCURVE",
"423 385 CURVE",
"379 125 LINE",
"379 125 OFFCURVE",
"326 26 OFFCURVE",
"206 26 CURVE"
);
}
);
width = 604;
}
);
leftKerningGroup = o;
unicode = 0067;
},
{
glyphname = g.init;
lastChange = "2016-08-06 01:36:31 +0000";
layers = (
{
components = (
{
name = brz;
transform = "{1, 0, 0, 1, 58, 0}";
},
{
name = glaska;
transform = "{1, 0, 0, 1, -23, 0}";
}
);
layerId = "76F08205-C3C5-4E97-8429-CDDB50136507";
width = 604;
},
{
associatedMasterId = "76F08205-C3C5-4E97-8429-CDDB50136507";
layerId = "083B070F-1320-4FBD-BAB4-B9D457A529B5";
name = "Bold Jul 16 16, 20:42";
paths = (
{
closed = 1;
nodes = (
"-42 -279 OFFCURVE",
"46 -323 OFFCURVE",
"138 -323 CURVE SMOOTH",
"270.186 -323 OFFCURVE",
"407.026 -242.938 OFFCURVE",
"441.631 -90 CURVE",
"539 464 LINE",
"539 464 OFFCURVE",
"479 500 OFFCURVE",
"374 500 CURVE SMOOTH",
"138 500 OFFCURVE",
"-12 366 OFFCURVE",
"-12 185 CURVE SMOOTH",
"-12 56 OFFCURVE",
"64 0 OFFCURVE",
"176 0 CURVE",
"233.831 41.168 OFFCURVE",
"278.211 91.943 OFFCURVE",
"314.79 150.442 CURVE",
"275.025 -73 LINE SMOOTH",
"241 -249 OFFCURVE",
"191 -304 OFFCURVE",
"119 -304 CURVE SMOOTH",
"71 -304 OFFCURVE",
"39 -279 OFFCURVE",
"39 -279 CURVE SMOOTH",
"39 -279 OFFCURVE",
"93 -271 OFFCURVE",
"93 -213 CURVE SMOOTH",
"93 -175 OFFCURVE",
"66 -148 OFFCURVE",
"25 -148 CURVE SMOOTH",
"-15 -148 OFFCURVE",
"-42 -175 OFFCURVE",
"-42 -217 CURVE SMOOTH"
);
},
{
closed = 1;
nodes = (
"158 340 OFFCURVE",
"219 480 OFFCURVE",
"346 480 CURVE SMOOTH",
"359.437 480 OFFCURVE",
"370.053 478.589 OFFCURVE",
"373.109 478.138 CURVE",
"325.397 210.042 LINE",
"284.98 135.774 OFFCURVE",
"274 125 OFFCURVE",
"227 76 CURVE",
"227 76 OFFCURVE",
"158 114 OFFCURVE",
"158 227 CURVE SMOOTH"
);
}
);
width = 549;
}
);
leftMetricsKey = "=g";
rightMetricsKey = "=g";
},
{
glyphname = g.fina;
lastChange = "2016-08-06 01:36:56 +0000";
layers = (
{
components = (
{
name = glaska;
transform = "{1, 0, 0, 1, -23, 0}";
},
{
name = brz;
transform = "{1, 0, 0, 1, 58, 0}";
}
);
layerId = "76F08205-C3C5-4E97-8429-CDDB50136507";
width = 604;
},
{
associatedMasterId = "76F08205-C3C5-4E97-8429-CDDB50136507";
layerId = "453E1483-5245-4F4C-9D47-E8EFB920028E";
name = "Bold Jul 16 16, 20:42";
paths = (
{
closed = 1;
nodes = (
"-42 -279 OFFCURVE",
"46 -323 OFFCURVE",
"138 -323 CURVE SMOOTH",
"270.186 -323 OFFCURVE",
"407.026 -242.938 OFFCURVE",
"441.631 -90 CURVE",
"539 464 LINE",
"539 464 OFFCURVE",
"479 500 OFFCURVE",
"374 500 CURVE SMOOTH",
"138 500 OFFCURVE",
"-12 366 OFFCURVE",
"-12 185 CURVE SMOOTH",
"-12 56 OFFCURVE",
"64 0 OFFCURVE",
"176 0 CURVE",
"233.831 41.168 OFFCURVE",
"278.211 91.943 OFFCURVE",
"314.79 150.442 CURVE",
"275.025 -73 LINE SMOOTH",
"241 -249 OFFCURVE",
"191 -304 OFFCURVE",
"119 -304 CURVE SMOOTH",
"71 -304 OFFCURVE",
"39 -279 OFFCURVE",
"39 -279 CURVE SMOOTH",
"39 -279 OFFCURVE",
"93 -271 OFFCURVE",
"93 -213 CURVE SMOOTH",
"93 -175 OFFCURVE",
"66 -148 OFFCURVE",
"25 -148 CURVE SMOOTH",
"-15 -148 OFFCURVE",
"-42 -175 OFFCURVE",
"-42 -217 CURVE SMOOTH"
);
},
{
closed = 1;
nodes = (
"158 340 OFFCURVE",
"219 480 OFFCURVE",
"346 480 CURVE SMOOTH",
"359.437 480 OFFCURVE",
"370.053 478.589 OFFCURVE",
"373.109 478.138 CURVE",
"325.397 210.042 LINE",
"284.98 135.774 OFFCURVE",
"274 125 OFFCURVE",
"227 76 CURVE",
"227 76 OFFCURVE",
"158 114 OFFCURVE",
"158 227 CURVE SMOOTH"
);
}
);
width = 600;
}
);
leftMetricsKey = "=g";
rightKerningGroup = g;
rightMetricsKey = "=g";
},
{
glyphname = g.isol;
lastChange = "2016-08-06 01:36:56 +0000";
layers = (
{
components = (
{
name = glaska;
transform = "{1, 0, 0, 1, -23, 0}";
},
{
name = brz;
transform = "{1, 0, 0, 1, 58, 0}";
}
);
layerId = "76F08205-C3C5-4E97-8429-CDDB50136507";
width = 604;
},
{
associatedMasterId = "76F08205-C3C5-4E97-8429-CDDB50136507";
layerId = "238F43FE-E09E-4EB6-8449-560D7CBBBBB4";
name = "Bold Jul 16 16, 20:42";
paths = (
{
closed = 1;
nodes = (
"-42 -279 OFFCURVE",
"46 -323 OFFCURVE",
"138 -323 CURVE SMOOTH",
"270.186 -323 OFFCURVE",
"407.026 -242.938 OFFCURVE",
"441.631 -90 CURVE",
"539 464 LINE",
"539 464 OFFCURVE",
"479 500 OFFCURVE",
"374 500 CURVE SMOOTH",
"138 500 OFFCURVE",
"-12 366 OFFCURVE",
"-12 185 CURVE SMOOTH",
"-12 56 OFFCURVE",
"64 0 OFFCURVE",
"176 0 CURVE",
"233.831 41.168 OFFCURVE",
"278.211 91.943 OFFCURVE",
"314.79 150.442 CURVE",
"275.025 -73 LINE SMOOTH",
"241 -249 OFFCURVE",
"191 -304 OFFCURVE",
"119 -304 CURVE SMOOTH",
"71 -304 OFFCURVE",
"39 -279 OFFCURVE",
"39 -279 CURVE SMOOTH",
"39 -279 OFFCURVE",
"93 -271 OFFCURVE",
"93 -213 CURVE SMOOTH",
"93 -175 OFFCURVE",
"66 -148 OFFCURVE",
"25 -148 CURVE SMOOTH",
"-15 -148 OFFCURVE",
"-42 -175 OFFCURVE",
"-42 -217 CURVE SMOOTH"
);
},
{
closed = 1;
nodes = (
"158 340 OFFCURVE",
"219 480 OFFCURVE",
"346 480 CURVE SMOOTH",
"359.437 480 OFFCURVE",
"370.053 478.589 OFFCURVE",
"373.109 478.138 CURVE",
"325.397 210.042 LINE",
"284.98 135.774 OFFCURVE",
"274 125 OFFCURVE",
"227 76 CURVE",
"227 76 OFFCURVE",
"158 114 OFFCURVE",
"158 227 CURVE SMOOTH"
);
}
);
width = 600;
}
);
leftMetricsKey = "=g";
rightMetricsKey = "=g";
},
{
glyphname = h;
lastChange = "2016-08-05 18:33:31 +0000";
layers = (
{
associatedMasterId = "75DB590C-AE7F-4677-9922-7BF9096FA72E";
layerId = "9CBDBCA4-C2A3-4196-A027-C3B6B24B591C";
name = "Light May 8 16, 11:29";
paths = (
{
closed = 1;
nodes = (
"413 472 LINE",
"371 250 LINE",
"392 250 LINE",
"435 488 LINE",
"414 501 LINE",
"136 155 LINE",
"150 140 LINE"
);
},
{
closed = 1;
nodes = (
"270 800 LINE",
"248 790 LINE",
"107 12 LINE",
"126 0 LINE"
);
},
{
closed = 1;
nodes = (
"190 468 LINE",
"149 250 LINE",
"170 250 LINE",
"216 500 LINE",
"195 501 LINE",
"-9 251 LINE",
"5 236 LINE"
);
},
{
closed = 1;
nodes = (
"550 249 LINE",
"536 264 LINE",
"350 28 LINE",
"392 250 LINE",
"371 250 LINE",
"328 12 LINE",
"349 -1 LINE"
);
},
{
closed = 1;
nodes = (
"346 691 LINE",
"368 692 LINE",
"270 800 LINE",
"262 783 LINE"
);
},
{
closed = 1;
nodes = (
"195 501 LINE",
"216 500 LINE",
"368 692 LINE",
"346 691 LINE"
);
}
);
width = 578;
},
{
associatedMasterId = "76F08205-C3C5-4E97-8429-CDDB50136507";
layerId = "C9A4145B-E506-47EE-A26F-8E5A2AD13C98";
name = poczatek;
paths = (
{
closed = 1;
nodes = (
"482 464 LINE",
"443 250 LINE",
"614 250 LINE",
"654 473 LINE",
"488 501 LINE",
"214 155 LINE",
"226 140 LINE"
);
},
{
closed = 1;
nodes = (
"385 800 LINE",
"214 800 LINE",
"75 27 LINE",
"241 0 LINE"
);
},
{
closed = 1;
nodes = (
"154 464 LINE",
"115 250 LINE",
"286 250 LINE",
"326 473 LINE",
"160 501 LINE"
);
},
{
closed = 1;
nodes = (
"770 249 LINE",
"758 264 LINE",
"575 36 LINE",
"614 250 LINE",
"443 250 LINE",
"403 27 LINE",
"569 -1 LINE"
);
}
);
width = 755;
},
{
associatedMasterId = "76F08205-C3C5-4E97-8429-CDDB50136507";
layerId = "EAC5C078-1440-4350-941B-A6686BD20A82";
name = "poczatek Jun 18 16, 14:28";
paths = (
{
closed = 1;
nodes = (
"355 800 LINE",
"184 800 LINE",
"45 27 LINE",
"211 0 LINE"
);
},
{
closed = 1;
nodes = (
"124 464 LINE",
"85 250 LINE",
"256 250 LINE",
"296 473 LINE",
"130 501 LINE"
);
},
{
closed = 1;
nodes = (
"794 365 LINE",
"727 242 OFFCURVE",
"624 73 OFFCURVE",
"544 26 CURVE",
"583 250 LINE",
"412 250 LINE",
"399 176 OFFCURVE",
"385 101 OFFCURVE",
"372 27 CURVE SMOOTH",
"427 18 OFFCURVE",
"483 8 OFFCURVE",
"538 -1 CURVE",
"629 50 OFFCURVE",
"737 226 OFFCURVE",
"806 351 CURVE"
);
},
{
closed = 1;
nodes = (
"260 255 OFFCURVE",
"347 397 OFFCURVE",
"452 472 CURVE",
"412 250 LINE",
"583 250 LINE",
"623 473 LINE",
"457 501 LINE",
"336 416 OFFCURVE",
"254 287 OFFCURVE",
"203 132 CURVE",
"215 107 LINE"
);
}
);
width = 755;
},
{
associatedMasterId = "76F08205-C3C5-4E97-8429-CDDB50136507";
components = (
{
name = blaska;
},
{
name = "n-gora";
},
{
name = "wyscie-medial";
transform = "{1, 0, 0, 1, 50, 0}";
}
);
layerId = "4A7FAF50-B1C1-4E1F-BA12-63D39289C988";
name = "Bold Jul 7 16, 19:57";
width = 695;
},
{
associatedMasterId = "76F08205-C3C5-4E97-8429-CDDB50136507";
components = (
{
name = blaska;
},
{
name = "n-gora";
},
{
name = "wyscie-medial";
transform = "{1, 0, 0, 1, 50, 0}";
}
);
layerId = "CB45F76D-7317-48DF-BCBF-8C1DA90D6D97";
name = "Bold Jul 7 16, 19:57";
width = 695;
},
{
associatedMasterId = "76F08205-C3C5-4E97-8429-CDDB50136507";
components = (
{
name = blaska;
},
{
name = "n-gora";
},
{
name = "wyscie-medial";
transform = "{1, 0, 0, 1, 50, 0}";
}
);
layerId = "0FC5A728-D48D-4EF0-94EC-A6D261FB8A04";
name = "Bold Jul 7 16, 19:57";
width = 695;
},
{
associatedMasterId = "76F08205-C3C5-4E97-8429-CDDB50136507";
components = (
{
name = blaska;
},
{
name = "n-gora";
},
{
name = "wyscie-medial";
transform = "{1, 0, 0, 1, 50, 0}";
}
);
layerId = "88797AE6-A453-42AB-AC8A-49D053B9F84D";
name = "Bold Jul 7 16, 19:57";
width = 695;
},
{
associatedMasterId = "76F08205-C3C5-4E97-8429-CDDB50136507";
layerId = "A3DDC053-7637-448F-93D7-FDE0D724670A";
name = "Bold Jul 15 16, 23:03";
paths = (
{
closed = 1;
nodes = (
"184 0 LINE",
"322 772 LINE",
"156 800 LINE",
"18 28 LINE"
);
},
{
closed = 1;
nodes = (
"231 255 OFFCURVE",
"318 397 OFFCURVE",
"423 472 CURVE",
"383 250 LINE",
"554 250 LINE",
"594 473 LINE",
"428 501 LINE",
"307 416 OFFCURVE",
"225 287 OFFCURVE",
"174 132 CURVE",
"186 107 LINE"
);
},
{
closed = 1;
nodes = (
"706 246 OFFCURVE",
"619 104 OFFCURVE",
"514 29 CURVE",
"554 250 LINE",
"383 250 LINE",
"343 28 LINE",
"509 0 LINE",
"630 85 OFFCURVE",
"712 214 OFFCURVE",
"763 369 CURVE",
"751 394 LINE"
);
}
);
width = 667;
},
{
components = (
{
name = "n-gora";
transform = "{1, 0, 0, 1, 1, 0}";
},
{
name = ndol;
},
{
name = igora;
transform = "{-1, 0, 0, -1, 323, 500}";
},
{
name = hlaskagorna;
}
);
layerId = "76F08205-C3C5-4E97-8429-CDDB50136507";
width = 682;
}
);
leftMetricsKey = "=n";
rightMetricsKey = "=n";
unicode = 0068;
},
{
glyphname = h.fina;
lastChange = "2016-08-04 21:57:47 +0000";
layers = (
{
components = (
{
name = "n-gora";
transform = "{1, 0, 0, 1, 1, 0}";
},
{
name = igora;
transform = "{-1, 0, 0, -1, 323, 500}";
},
{
name = hlaskagorna;
},
{
name = nogakoniec;
}
);
layerId = "76F08205-C3C5-4E97-8429-CDDB50136507";
width = 667;
},
{
associatedMasterId = "76F08205-C3C5-4E97-8429-CDDB50136507";
layerId = "B2744407-BB84-4F87-BE4D-2EE6F0A2CE9B";
name = "Bold Jul 15 16, 23:03";
paths = (
{
closed = 1;
nodes = (
"184 0 LINE",
"322 772 LINE",
"156 800 LINE",
"18 28 LINE"
);
},
{
closed = 1;
nodes = (
"232 255 OFFCURVE",
"320 473 OFFCURVE",
"424 472 CURVE",
"384 250 LINE",
"555 250 LINE",
"575 363 LINE SMOOTH",
"590 450 OFFCURVE",
"544 502 OFFCURVE",
"461 502 CURVE",
"290 505 OFFCURVE",
"226 287 OFFCURVE",
"175 132 CURVE",
"187 107 LINE"
);
},
{
closed = 1;
nodes = (
"632 116 LINE",
"597 64 OFFCURVE",
"557 28 OFFCURVE",
"515 28 CURVE",
"555 250 LINE",
"384 250 LINE",
"364 137 LINE SMOOTH",
"349 50 OFFCURVE",
"395 -2 OFFCURVE",
"477 -2 CURVE",
"554 -3 OFFCURVE",
"610 40 OFFCURVE",
"652 102 CURVE"
);
}
);
width = 600;
},
{
associatedMasterId = "76F08205-C3C5-4E97-8429-CDDB50136507";
components = (
{
name = blaska;
},
{
name = "n-gora";
},
{
name = "wyjscie-final";
transform = "{1, 0, 0, 1, 41, 0}";
}
);
layerId = "E664047B-BECF-40DE-B972-36FCEEE059DA";
name = "Bold Jul 16 16, 20:42";
width = 600;
}
);
leftMetricsKey = "=n";
rightMetricsKey = "=n.fina";
},
{
glyphname = i;
lastChange = "2016-08-06 01:24:43 +0000";
layers = (
{
associatedMasterId = "76F08205-C3C5-4E97-8429-CDDB50136507";
components = (
{
name = igora;
transform = "{1, 0, 0, 1, -66, 0}";
},
{
name = "wyscie-medial";
transform = "{1, 0, 0, 1, -303, 0}";
},
{
name = dotaccentcomb;
transform = "{1, 0, 0, 1, -66, 0}";
}
);
layerId = "3F0B4E2B-DE68-44C2-8E5E-60E6DAE93430";
name = "Bold Jul 7 16, 19:57";
width = 340;
},
{
associatedMasterId = "76F08205-C3C5-4E97-8429-CDDB50136507";
components = (
{
name = igora;
transform = "{1, 0, 0, 1, -66, 0}";
},
{
name = "wyscie-medial";
transform = "{1, 0, 0, 1, -303, 0}";
},
{
name = dotaccentcomb;
transform = "{1, 0, 0, 1, -66, 0}";
}
);
layerId = "2C9CAB7C-271B-4E95-8ED5-BAE7C1098534";
name = "Bold Jul 7 16, 19:57";
width = 340;
},
{
associatedMasterId = "76F08205-C3C5-4E97-8429-CDDB50136507";
components = (
{
name = igora;
transform = "{1, 0, 0, 1, -66, 0}";
},
{
name = "wyscie-medial";
transform = "{1, 0, 0, 1, -303, 0}";
},
{
name = dotaccentcomb;
transform = "{1, 0, 0, 1, -66, 0}";
}
);
layerId = "C9BB8059-24C2-4D56-BEBA-982C8BA4AD64";
name = "Bold Jul 7 16, 19:57";
width = 340;
},
{
associatedMasterId = "76F08205-C3C5-4E97-8429-CDDB50136507";
components = (
{
name = igora;
transform = "{1, 0, 0, 1, -66, 0}";
},
{
name = "wyscie-medial";
transform = "{1, 0, 0, 1, -303, 0}";
},
{
name = dotaccentcomb;
transform = "{1, 0, 0, 1, -66, 0}";
}
);
layerId = "3DC9DB47-EDAA-444A-8ED5-75377FF85D5D";
name = "Bold Jul 7 16, 19:57";
width = 340;
},
{
associatedMasterId = "76F08205-C3C5-4E97-8429-CDDB50136507";
layerId = "623B7720-65EA-47FF-940B-216F942D271A";
name = "Bold Jul 16 16, 11:15";
paths = (
{
closed = 1;
nodes = (
"58 250 LINE",
"229 250 LINE",
"269 473 LINE",
"103 501 LINE"
);
},
{
closed = 1;
nodes = (
"381 246 OFFCURVE",
"294 104 OFFCURVE",
"189 29 CURVE",
"229 250 LINE",
"58 250 LINE",
"18 28 LINE",
"184 0 LINE",
"305 85 OFFCURVE",
"387 214 OFFCURVE",
"438 369 CURVE",
"426 394 LINE"
);
},
{
closed = 1;
nodes = (
"265 584 OFFCURVE",
"307 625 OFFCURVE",
"307 678 CURVE SMOOTH",
"307 730 OFFCURVE",
"265 771 OFFCURVE",
"213 771 CURVE SMOOTH",
"161 771 OFFCURVE",
"119 730 OFFCURVE",
"119 678 CURVE SMOOTH",
"119 625 OFFCURVE",
"161 584 OFFCURVE",
"213 584 CURVE SMOOTH"
);
}
);
width = 342;
},
{
components = (
{
name = igora;
transform = "{1, 0, 0, 1, -51, 0}";
},
{
name = ndol;
transform = "{1, 0, 0, 1, -339, 0}";
},
{
name = dotaccentcomb;
transform = "{1, 0, 0, 1, 7, 0}";
}
);
layerId = "76F08205-C3C5-4E97-8429-CDDB50136507";
width = 343;
}
);
leftMetricsKey = "=n+5";
rightKerningGroup = n;
rightMetricsKey = "=n";
unicode = 0069;
},
{
glyphname = i.fina;
lastChange = "2016-08-04 21:59:04 +0000";
layers = (
{
components = (
{
name = igora;
transform = "{1, 0, 0, 1, -52, 0}";
},
{
name = dotaccentcomb;
transform = "{1, 0, 0, 1, 6, 0}";
},
{
name = nogakoniec;
transform = "{1, 0, 0, 1, -340, 0}";
}
);
layerId = "76F08205-C3C5-4E97-8429-CDDB50136507";
width = 327;
},
{
associatedMasterId = "76F08205-C3C5-4E97-8429-CDDB50136507";
layerId = "953E75B2-C9A8-4771-85DC-5713BE4ED6CD";
name = "Bold Jul 16 16, 20:42";
paths = (
{
closed = 1;
nodes = (
"58 250 LINE",
"229 250 LINE",
"269 473 LINE",
"103 501 LINE"
);
},
{
closed = 1;
nodes = (
"317 165 LINE",
"280 110 OFFCURVE",
"236 63 OFFCURVE",
"189 29 CURVE",
"229 250 LINE",
"58 250 LINE",
"18 28 LINE",
"184 0 LINE",
"242 41 OFFCURVE",
"292 92 OFFCURVE",
"333 152 CURVE"
);
},
{
closed = 1;
nodes = (
"265 584 OFFCURVE",
"307 625 OFFCURVE",
"307 678 CURVE SMOOTH",
"307 730 OFFCURVE",
"265 771 OFFCURVE",
"213 771 CURVE SMOOTH",
"161 771 OFFCURVE",
"119 730 OFFCURVE",
"119 678 CURVE SMOOTH",
"119 625 OFFCURVE",
"161 584 OFFCURVE",
"213 584 CURVE SMOOTH"
);
}
);
width = 600;
}
);
leftMetricsKey = "=i";
rightMetricsKey = "=n.fina";
},
{
glyphname = j;
lastChange = "2016-08-06 01:17:36 +0000";
layers = (
{
associatedMasterId = "76F08205-C3C5-4E97-8429-CDDB50136507";
layerId = "5A47F1C0-308B-43EA-8315-8AD765395516";
name = "Bold Jun 18 16, 00:02";
paths = (
{
closed = 1;
nodes = (
"186 464 LINE",
"86 -90 LINE",
"257 -90 LINE",
"358 473 LINE",
"192 501 LINE",
"-9 251 LINE",
"3 236 LINE"
);
},
{
closed = 1;
nodes = (
"474 249 LINE",
"462 264 LINE",
"279 36 LINE",
"318 250 LINE",
"148 250 LINE",
"107 27 LINE",
"273 -1 LINE"
);
},
{
closed = 1;
nodes = (
"354 584 OFFCURVE",
"396 625 OFFCURVE",
"396 678 CURVE SMOOTH",
"396 730 OFFCURVE",
"354 771 OFFCURVE",
"302 771 CURVE SMOOTH",
"250 771 OFFCURVE",
"208 730 OFFCURVE",
"208 678 CURVE SMOOTH",
"208 625 OFFCURVE",
"250 584 OFFCURVE",
"302 584 CURVE SMOOTH"
);
},
{
closed = 1;
nodes = (
"86 -90 LINE",
"52 -276 OFFCURVE",
"31 -322 OFFCURVE",
"-22 -322 CURVE",
"-22 -340 LINE",
"133 -340 OFFCURVE",
"229 -254 OFFCURVE",
"257 -90 CURVE"
);
},
{
closed = 1;
nodes = (
"-22 -322 LINE",
"-56 -322 OFFCURVE",
"-60 -300 OFFCURVE",
"-44 -211 CURVE SMOOTH",
"-36 -166 OFFCURVE",
"-74 -150 OFFCURVE",
"-105 -150 CURVE SMOOTH",
"-132 -150 OFFCURVE",
"-166 -162 OFFCURVE",
"-174 -216 CURVE SMOOTH",
"-187 -297 OFFCURVE",
"-134 -340 OFFCURVE",
"-22 -340 CURVE"
);
}
);
width = 459;
},
{
associatedMasterId = "76F08205-C3C5-4E97-8429-CDDB50136507";
layerId = "4F3CF9F0-5952-4865-B689-ED5527145AFC";
name = "Bold Jun 18 16, 00:44";
paths = (
{
closed = 1;
nodes = (
"186 464 LINE",
"46 -312 LINE",
"212 -340 LINE",
"358 473 LINE",
"192 501 LINE",
"-9 251 LINE",
"3 236 LINE"
);
},
{
closed = 1;
nodes = (
"474 249 LINE",
"462 264 LINE",
"279 36 LINE",
"318 250 LINE",
"148 250 LINE",
"107 27 LINE",
"273 -1 LINE"
);
},
{
closed = 1;
nodes = (
"354 584 OFFCURVE",
"396 625 OFFCURVE",
"396 678 CURVE SMOOTH",
"396 730 OFFCURVE",
"354 771 OFFCURVE",
"302 771 CURVE SMOOTH",
"250 771 OFFCURVE",
"208 730 OFFCURVE",
"208 678 CURVE SMOOTH",
"208 625 OFFCURVE",
"250 584 OFFCURVE",
"302 584 CURVE SMOOTH"
);
},
{
closed = 1;
nodes = (
"-25 -231 LINE",
"-55 -236 LINE",
"46 -312 LINE",
"52 -291 LINE"
);
},
{
closed = 1;
nodes = (
"138 -23 LINE",
"117 -22 LINE",
"-55 -236 LINE",
"-25 -231 LINE"
);
}
);
width = 459;
},
{
associatedMasterId = "76F08205-C3C5-4E97-8429-CDDB50136507";
layerId = "99DC7DF5-DC9C-4CEF-9BAD-E7C127C5821E";
name = poczatek;
paths = (
{
closed = 1;
nodes = (
"186 464 LINE",
"89 -73 LINE",
"260 -73 LINE",
"358 473 LINE",
"192 501 LINE"
);
},
{
closed = 1;
nodes = (
"444 249 LINE",
"432 264 LINE",
"279 36 LINE",
"318 250 LINE",
"148 250 LINE",
"107 27 LINE",
"273 -1 LINE"
);
},
{
closed = 1;
nodes = (
"354 584 OFFCURVE",
"396 625 OFFCURVE",
"396 678 CURVE SMOOTH",
"396 730 OFFCURVE",
"354 771 OFFCURVE",
"302 771 CURVE SMOOTH",
"250 771 OFFCURVE",
"208 730 OFFCURVE",
"208 678 CURVE SMOOTH",
"208 625 OFFCURVE",
"250 584 OFFCURVE",
"302 584 CURVE SMOOTH"
);
},
{
closed = 1;
nodes = (
"89 -73 LINE",
"55 -259 OFFCURVE",
"34 -305 OFFCURVE",
"-19 -305 CURVE",
"-19 -323 LINE",
"136 -323 OFFCURVE",
"232 -237 OFFCURVE",
"260 -73 CURVE"
);
},
{
closed = 1;
nodes = (
"-19 -305 LINE",
"-53 -305 OFFCURVE",
"-57 -283 OFFCURVE",
"-41 -194 CURVE SMOOTH",
"-33 -149 OFFCURVE",
"-71 -133 OFFCURVE",
"-102 -133 CURVE SMOOTH",
"-129 -133 OFFCURVE",
"-163 -145 OFFCURVE",
"-171 -199 CURVE SMOOTH",
"-184 -280 OFFCURVE",
"-131 -323 OFFCURVE",
"-19 -323 CURVE"
);
}
);
width = 434;
},
{
associatedMasterId = "76F08205-C3C5-4E97-8429-CDDB50136507";
layerId = "04DF22A7-015D-4392-B53F-BD1CE779E6DA";
name = "Bold Jul 16 16, 20:25";
paths = (
{
closed = 1;
nodes = (
"95 500 LINE",
"-10 -90 LINE",
"160 -90 LINE",
"258 470 LINE"
);
},
{
closed = 1;
nodes = (
"-11 -90 LINE",
"-45 -266 OFFCURVE",
"-68 -321 OFFCURVE",
"-141 -321 CURVE",
"-117 -340 LINE",
"20 -340 OFFCURVE",
"132 -254 OFFCURVE",
"160 -90 CURVE"
);
},
{
closed = 1;
nodes = (
"-82 -309 LINE",
"-99 -317 OFFCURVE",
"-119 -321 OFFCURVE",
"-141 -321 CURVE SMOOTH",
"-174 -321 OFFCURVE",
"-196 -309 OFFCURVE",
"-196 -309 CURVE SMOOTH",
"-196 -309 OFFCURVE",
"-132 -298 OFFCURVE",
"-132 -240 CURVE SMOOTH",
"-132 -202 OFFCURVE",
"-159 -175 OFFCURVE",
"-200 -175 CURVE SMOOTH",
"-240 -175 OFFCURVE",
"-267 -202 OFFCURVE",
"-267 -244 CURVE SMOOTH",
"-267 -306 OFFCURVE",
"-209 -340 OFFCURVE",
"-117 -340 CURVE SMOOTH",
"-98 -340 OFFCURVE",
"-79 -335 OFFCURVE",
"-61 -333 CURVE"
);
},
{
closed = 1;
nodes = (
"262 584 OFFCURVE",
"304 625 OFFCURVE",
"304 678 CURVE SMOOTH",
"304 730 OFFCURVE",
"262 771 OFFCURVE",
"210 771 CURVE SMOOTH",
"158 771 OFFCURVE",
"116 730 OFFCURVE",
"116 678 CURVE SMOOTH",
"116 625 OFFCURVE",
"158 584 OFFCURVE",
"210 584 CURVE SMOOTH"
);
}
);
width = 264;
},
{
associatedMasterId = "76F08205-C3C5-4E97-8429-CDDB50136507";
layerId = "90038EE0-975B-4E58-B8A8-6EF3317F6B5B";
name = "Bold Jul 16 16, 22:30";
paths = (
{
closed = 1;
nodes = (
"-293 -262 OFFCURVE",
"-211 -323 OFFCURVE",
"-107 -323 CURVE SMOOTH",
"23 -323 OFFCURVE",
"134 -237 OFFCURVE",
"163 -73 CURVE SMOOTH",
"258 470 LINE",
"95 500 LINE",
"-31 -172 LINE SMOOTH",
"-46 -252 OFFCURVE",
"-86 -297 OFFCURVE",
"-138 -297 CURVE SMOOTH",
"-164 -297 OFFCURVE",
"-189 -286 OFFCURVE",
"-207 -273 CURVE",
"-162 -271 OFFCURVE",
"-124 -234 OFFCURVE",
"-124 -187 CURVE SMOOTH",
"-124 -140 OFFCURVE",
"-162 -102 OFFCURVE",
"-209 -102 CURVE SMOOTH",
"-256 -102 OFFCURVE",
"-295 -140 OFFCURVE",
"-294 -190 CURVE SMOOTH"
);
},
{
closed = 1;
nodes = (
"116 625 OFFCURVE",
"158 584 OFFCURVE",
"210 584 CURVE SMOOTH",
"262 584 OFFCURVE",
"304 625 OFFCURVE",
"304 678 CURVE SMOOTH",
"304 730 OFFCURVE",
"262 771 OFFCURVE",
"210 771 CURVE SMOOTH",
"158 771 OFFCURVE",
"116 730 OFFCURVE",
"116 678 CURVE SMOOTH"
);
}
);
width = 264;
},
{
components = (
{
name = dotaccentcomb;
},
{
name = jkoncowa;
transform = "{1, 0, 0, 1, 3, 22}";
},
{
name = igora;
transform = "{1, 0, 0, 1, -48, 0}";
}
);
layerId = "76F08205-C3C5-4E97-8429-CDDB50136507";
paths = (
{
closed = 1;
nodes = (
"166 -51 LINE",
"220 250 LINE",
"49 250 LINE",
"-9 -53 LINE"
);
}
);
width = 287;
}
);
unicode = 006A;
},
{
glyphname = j.init;
lastChange = "2016-08-06 01:36:31 +0000";
layers = (
{
components = (
{
name = igora;
transform = "{1, 0, 0, 1, -47, 0}";
},
{
name = dotaccentcomb;
},
{
name = jkoncowa;
transform = "{1, 0, 0, 1, 3, 22}";
}
);
layerId = "76F08205-C3C5-4E97-8429-CDDB50136507";
paths = (
{
closed = 1;
nodes = (
"166 -51 LINE",
"220 250 LINE",
"49 250 LINE",
"-9 -53 LINE"
);
}
);
width = 287;
},
{
associatedMasterId = "76F08205-C3C5-4E97-8429-CDDB50136507";
layerId = "4258E86B-A906-44E4-9FFF-9FBD3DD623A2";
name = "Bold Jul 16 16, 20:43";
paths = (
{
closed = 1;
nodes = (
"-31 -170 LINE",
"-55 -290 LINE",
"-55 -290 OFFCURVE",
"-74 -297 OFFCURVE",
"-109 -297 CURVE SMOOTH",
"-151 -297 OFFCURVE",
"-189 -286 OFFCURVE",
"-207 -273 CURVE",
"-162 -271 OFFCURVE",
"-124 -234 OFFCURVE",
"-124 -187 CURVE SMOOTH",
"-124 -140 OFFCURVE",
"-162 -102 OFFCURVE",
"-209 -102 CURVE SMOOTH",
"-256 -102 OFFCURVE",
"-295 -140 OFFCURVE",
"-294 -190 CURVE SMOOTH",
"-293 -262 OFFCURVE",
"-211 -323 OFFCURVE",
"-107 -323 CURVE SMOOTH",
"23 -323 OFFCURVE",
"134 -237 OFFCURVE",
"163 -73 CURVE"
);
},
{
closed = 1;
nodes = (
"116 625 OFFCURVE",
"158 584 OFFCURVE",
"210 584 CURVE SMOOTH",
"262 584 OFFCURVE",
"304 625 OFFCURVE",
"304 678 CURVE SMOOTH",
"304 730 OFFCURVE",
"262 771 OFFCURVE",
"210 771 CURVE SMOOTH",
"158 771 OFFCURVE",
"116 730 OFFCURVE",
"116 678 CURVE SMOOTH"
);
},
{
closed = 1;
nodes = (
"163 -73 LINE",
"258 470 LINE",
"95 500 LINE",
"-31 -170 LINE"
);
}
);
width = 289;
}
);
leftMetricsKey = "=j";
rightMetricsKey = "=j";
},
{
glyphname = j.fina;
lastChange = "2016-08-06 01:36:56 +0000";
layers = (
{
components = (
{
name = igora;
transform = "{1, 0, 0, 1, -47, 0}";
},
{
name = dotaccentcomb;
},
{
name = jkoncowa;
transform = "{1, 0, 0, 1, 3, 22}";
}
);
layerId = "76F08205-C3C5-4E97-8429-CDDB50136507";
paths = (
{
closed = 1;
nodes = (
"166 -51 LINE",
"220 250 LINE",
"49 250 LINE",
"-9 -53 LINE"
);
}
);
width = 287;
},
{
associatedMasterId = "76F08205-C3C5-4E97-8429-CDDB50136507";
components = (
{
name = glaska;
transform = "{1, 0, 0, 1, -212, 0}";
},
{
name = fdol;
transform = "{1, 0, 0, 1, -30, -17}";
},
{
name = dotaccentcomb;
transform = "{1, 0, 0, 1, 29, 0}";
}
);
layerId = "E2A1F330-C4B0-48E4-8EE0-F9F74D2D8D09";
name = "Bold Jul 16 16, 20:44";
width = 600;
}
);
leftMetricsKey = "=j";
rightMetricsKey = "=j";
},
{
glyphname = j.isol;
lastChange = "2016-08-06 01:36:56 +0000";
layers = (
{
components = (
{
name = igora;
transform = "{1, 0, 0, 1, -47, 0}";
},
{
name = dotaccentcomb;
},
{
name = jkoncowa;
transform = "{1, 0, 0, 1, 3, 22}";
}
);
layerId = "76F08205-C3C5-4E97-8429-CDDB50136507";
paths = (
{
closed = 1;
nodes = (
"166 -51 LINE",
"220 250 LINE",
"49 250 LINE",
"-9 -53 LINE"
);
}
);
width = 287;
},
{
associatedMasterId = "76F08205-C3C5-4E97-8429-CDDB50136507";
components = (
{
name = glaska;
transform = "{1, 0, 0, 1, -212, 0}";
},
{
name = fdol;
transform = "{1, 0, 0, 1, -30, -17}";
},
{
name = dotaccentcomb;
transform = "{1, 0, 0, 1, 29, 0}";
}
);
layerId = "D75C4F86-4BCF-4FC3-A969-281D6DB27673";
name = "Bold Jul 16 16, 20:44";
width = 600;
}
);
leftMetricsKey = "=j";
rightMetricsKey = "=j";
},
{
glyphname = k;
lastChange = "2016-08-05 21:40:39 +0000";
layers = (
{
associatedMasterId = "76F08205-C3C5-4E97-8429-CDDB50136507";
layerId = "67119F17-25C3-478A-852E-3A5FF2968951";
name = "Bold Jul 15 16, 23:11";
paths = (
{
closed = 1;
nodes = (
"229 250 LINE",
"322 772 LINE",
"156 800 LINE",
"58 250 LINE"
);
},
{
closed = 1;
nodes = (
"229 250 LINE",
"58 250 LINE",
"18 28 LINE",
"184 0 LINE"
);
},
{
closed = 1;
nodes = (
"676 246 OFFCURVE",
"589 104 OFFCURVE",
"484 29 CURVE",
"405 301 LINE",
"234 301 LINE",
"313 28 LINE",
"368 19 OFFCURVE",
"424 9 OFFCURVE",
"479 0 CURVE",
"600 85 OFFCURVE",
"682 214 OFFCURVE",
"733 369 CURVE",
"721 394 LINE"
);
},
{
closed = 1;
nodes = (
"247 285 LINE",
"313 345 OFFCURVE",
"355 404 OFFCURVE",
"439 464 CURVE",
"439 464 OFFCURVE",
"427 444 OFFCURVE",
"427 420 CURVE SMOOTH",
"427 381 OFFCURVE",
"454 355 OFFCURVE",
"494 355 CURVE SMOOTH",
"534 355 OFFCURVE",
"561 383 OFFCURVE",
"561 425 CURVE SMOOTH",
"561 469 OFFCURVE",
"531 498 OFFCURVE",
"488 498 CURVE SMOOTH",
"436 498 OFFCURVE",
"388 457 OFFCURVE",
"234 301 CURVE"
);
}
);
width = 597;
},
{
components = (
{
name = hlaskagorna;
},
{
name = igora;
transform = "{-1, 0, 0, -1, 323, 500}";
}
);
layerId = "76F08205-C3C5-4E97-8429-CDDB50136507";
paths = (
{
closed = 1;
nodes = (
"650 212 OFFCURVE",
"616 55 OFFCURVE",
"482 23 CURVE",
"402 301 LINE",
"231 301 LINE",
"289 104 LINE SMOOTH",
"308 39 OFFCURVE",
"372 -5 OFFCURVE",
"444 -5 CURVE SMOOTH",
"616 -8 OFFCURVE",
"670 190 OFFCURVE",
"721 348 CURVE",
"701 363 LINE"
);
},
{
closed = 1;
nodes = (
"258 301 LINE",
"290 353 OFFCURVE",
"324 409 OFFCURVE",
"383 442 CURVE",
"383 442 OFFCURVE",
"381 431 OFFCURVE",
"381 419 CURVE SMOOTH",
"381 365 OFFCURVE",
"419 332 OFFCURVE",
"463 332 CURVE SMOOTH",
"511 332 OFFCURVE",
"549 370 OFFCURVE",
"549 416 CURVE SMOOTH",
"549 462 OFFCURVE",
"511 500 OFFCURVE",
"458 500 CURVE SMOOTH",
"371 500 OFFCURVE",
"285 402 OFFCURVE",
"229 301 CURVE"
);
}
);
width = 621;
}
);
leftMetricsKey = "=n";
unicode = 006B;
},
{
glyphname = k.init;
lastChange = "2016-08-06 01:36:31 +0000";
layers = (
{
components = (
{
name = hlaskagorna;
},
{
name = igora;
transform = "{-1, 0, 0, -1, 323, 500}";
}
);
layerId = "76F08205-C3C5-4E97-8429-CDDB50136507";
paths = (
{
closed = 1;
nodes = (
"658 247 OFFCURVE",
"626 71 OFFCURVE",
"482 28 CURVE",
"402 301 LINE",
"231 301 LINE",
"289 104 LINE SMOOTH",
"308 39 OFFCURVE",
"372 -2 OFFCURVE",
"444 -2 CURVE",
"616 -5 OFFCURVE",
"680 213 OFFCURVE",
"731 368 CURVE",
"719 393 LINE"
);
},
{
closed = 1;
nodes = (
"258 301 LINE",
"290 353 OFFCURVE",
"324 409 OFFCURVE",
"383 442 CURVE",
"383 442 OFFCURVE",
"381 431 OFFCURVE",
"381 419 CURVE SMOOTH",
"381 365 OFFCURVE",
"419 332 OFFCURVE",
"463 332 CURVE SMOOTH",
"511 332 OFFCURVE",
"549 370 OFFCURVE",
"549 416 CURVE SMOOTH",
"549 462 OFFCURVE",
"511 500 OFFCURVE",
"458 500 CURVE SMOOTH",
"371 500 OFFCURVE",
"285 402 OFFCURVE",
"229 301 CURVE"
);
}
);
width = 631;
},
{
associatedMasterId = "76F08205-C3C5-4E97-8429-CDDB50136507";
layerId = "0A63C09D-361F-4CDE-B57B-6B8350E3DBA6";
name = "Bold Jul 16 16, 20:44";
paths = (
{
closed = 1;
nodes = (
"229 250 LINE",
"322 772 LINE",
"156 800 LINE",
"58 250 LINE"
);
},
{
closed = 1;
nodes = (
"229 250 LINE",
"58 250 LINE",
"18 28 LINE",
"184 0 LINE"
);
},
{
closed = 1;
nodes = (
"676 246 OFFCURVE",
"589 104 OFFCURVE",
"484 29 CURVE",
"405 301 LINE",
"234 301 LINE",
"313 28 LINE",
"479 0 LINE",
"600 85 OFFCURVE",
"682 214 OFFCURVE",
"733 369 CURVE",
"721 394 LINE"
);
},
{
closed = 1;
nodes = (
"247 285 LINE",
"313 345 OFFCURVE",
"355 404 OFFCURVE",
"439 464 CURVE",
"439 464 OFFCURVE",
"427 444 OFFCURVE",
"427 420 CURVE SMOOTH",
"427 381 OFFCURVE",
"454 355 OFFCURVE",
"494 355 CURVE SMOOTH",
"534 355 OFFCURVE",
"561 383 OFFCURVE",
"561 425 CURVE SMOOTH",
"561 469 OFFCURVE",
"531 498 OFFCURVE",
"488 498 CURVE SMOOTH",
"436 498 OFFCURVE",
"388 457 OFFCURVE",
"234 301 CURVE"
);
}
);
width = 600;
}
);
leftMetricsKey = "=n";
rightMetricsKey = "=n";
},
{
glyphname = k.fina;
lastChange = "2016-08-04 23:23:03 +0000";
layers = (
{
components = (
{
name = hlaskagorna;
transform = "{1, 0, 0, 1, -10, 0}";
},
{
name = igora;
transform = "{-1, 0, 0, -1, 313, 500}";
}
);
layerId = "76F08205-C3C5-4E97-8429-CDDB50136507";
paths = (
{
closed = 1;
nodes = (
"582 114 LINE",
"553 74 OFFCURVE",
"517 43 OFFCURVE",
"467 28 CURVE",
"387 301 LINE",
"216 301 LINE",
"274 104 LINE SMOOTH",
"293 39 OFFCURVE",
"357 -2 OFFCURVE",
"429 -2 CURVE",
"505 -3 OFFCURVE",
"560 39 OFFCURVE",
"602 99 CURVE"
);
},
{
closed = 1;
nodes = (
"248 301 LINE",
"280 353 OFFCURVE",
"314 409 OFFCURVE",
"373 442 CURVE",
"373 442 OFFCURVE",
"371 431 OFFCURVE",
"371 419 CURVE SMOOTH",
"371 365 OFFCURVE",
"409 332 OFFCURVE",
"453 332 CURVE SMOOTH",
"501 332 OFFCURVE",
"539 370 OFFCURVE",
"539 416 CURVE SMOOTH",
"539 462 OFFCURVE",
"501 500 OFFCURVE",
"448 500 CURVE SMOOTH",
"361 500 OFFCURVE",
"275 402 OFFCURVE",
"219 301 CURVE"
);
}
);
width = 612;
},
{
associatedMasterId = "76F08205-C3C5-4E97-8429-CDDB50136507";
layerId = "86D01F3F-E0D9-4F9F-AEB9-EE9BC7D1A1A1";
name = "Bold Jul 18 16, 13:14";
paths = (
{
closed = 1;
nodes = (
"229 250 LINE",
"322 772 LINE",
"156 800 LINE",
"58 250 LINE"
);
},
{
closed = 1;
nodes = (
"229 250 LINE",
"58 250 LINE",
"18 28 LINE",
"184 0 LINE"
);
},
{
closed = 1;
nodes = (
"582 124 LINE",
"552 87 OFFCURVE",
"519 54 OFFCURVE",
"484 29 CURVE",
"405 301 LINE",
"234 301 LINE",
"313 28 LINE",
"368 19 OFFCURVE",
"424 9 OFFCURVE",
"479 0 CURVE",
"523 31 OFFCURVE",
"563 68 OFFCURVE",
"597 111 CURVE"
);
},
{
closed = 1;
nodes = (
"247 285 LINE",
"313 345 OFFCURVE",
"355 404 OFFCURVE",
"439 464 CURVE",
"439 464 OFFCURVE",
"427 444 OFFCURVE",
"427 420 CURVE SMOOTH",
"427 381 OFFCURVE",
"454 355 OFFCURVE",
"494 355 CURVE SMOOTH",
"534 355 OFFCURVE",
"561 383 OFFCURVE",
"561 425 CURVE SMOOTH",
"561 469 OFFCURVE",
"531 498 OFFCURVE",
"488 498 CURVE SMOOTH",
"436 498 OFFCURVE",
"388 457 OFFCURVE",
"234 301 CURVE"
);
}
);
width = 592;
}
);
leftMetricsKey = "=n-10";
rightMetricsKey = "=n.fina";
},
{
glyphname = k.isol;
lastChange = "2016-08-04 22:02:41 +0000";
layers = (
{
components = (
{
name = hlaskagorna;
},
{
name = igora;
transform = "{-1, 0, 0, -1, 323, 500}";
}
);
layerId = "76F08205-C3C5-4E97-8429-CDDB50136507";
paths = (
{
closed = 1;
nodes = (
"592 114 LINE",
"563 74 OFFCURVE",
"527 43 OFFCURVE",
"477 28 CURVE",
"397 301 LINE",
"226 301 LINE",
"284 104 LINE SMOOTH",
"303 39 OFFCURVE",
"367 -2 OFFCURVE",
"439 -2 CURVE",
"515 -3 OFFCURVE",
"570 39 OFFCURVE",
"612 99 CURVE"
);
},
{
closed = 1;
nodes = (
"258 301 LINE",
"290 353 OFFCURVE",
"324 409 OFFCURVE",
"383 442 CURVE",
"383 442 OFFCURVE",
"381 431 OFFCURVE",
"381 419 CURVE SMOOTH",
"381 365 OFFCURVE",
"419 332 OFFCURVE",
"463 332 CURVE SMOOTH",
"511 332 OFFCURVE",
"549 370 OFFCURVE",
"549 416 CURVE SMOOTH",
"549 462 OFFCURVE",
"511 500 OFFCURVE",
"458 500 CURVE SMOOTH",
"371 500 OFFCURVE",
"285 402 OFFCURVE",
"229 301 CURVE"
);
}
);
width = 622;
},
{
associatedMasterId = "76F08205-C3C5-4E97-8429-CDDB50136507";
layerId = "60C707AA-C981-4DF4-ADC3-28B19C8D1F64";
name = "Bold Jul 16 16, 20:44";
paths = (
{
closed = 1;
nodes = (
"229 250 LINE",
"322 772 LINE",
"156 800 LINE",
"58 250 LINE"
);
},
{
closed = 1;
nodes = (
"229 250 LINE",
"58 250 LINE",
"18 28 LINE",
"184 0 LINE"
);
},
{
closed = 1;
nodes = (
"676 246 OFFCURVE",
"589 104 OFFCURVE",
"484 29 CURVE",
"405 301 LINE",
"234 301 LINE",
"313 28 LINE",
"479 0 LINE",
"600 85 OFFCURVE",
"682 214 OFFCURVE",
"733 369 CURVE",
"721 394 LINE"
);
},
{
closed = 1;
nodes = (
"247 285 LINE",
"313 345 OFFCURVE",
"355 404 OFFCURVE",
"439 464 CURVE",
"439 464 OFFCURVE",
"427 444 OFFCURVE",
"427 420 CURVE SMOOTH",
"427 381 OFFCURVE",
"454 355 OFFCURVE",
"494 355 CURVE SMOOTH",
"534 355 OFFCURVE",
"561 383 OFFCURVE",
"561 425 CURVE SMOOTH",
"561 469 OFFCURVE",
"531 498 OFFCURVE",
"488 498 CURVE SMOOTH",
"436 498 OFFCURVE",
"388 457 OFFCURVE",
"234 301 CURVE"
);
}
);
width = 600;
}
);
leftMetricsKey = "=n";
rightMetricsKey = "=n.fina";
},
{
glyphname = l;
lastChange = "2016-08-05 18:33:31 +0000";
layers = (
{
associatedMasterId = "76F08205-C3C5-4E97-8429-CDDB50136507";
layerId = "485244D1-10A5-47FD-95DA-C65DADE6DFAA";
name = "Bold Jul 16 16, 11:16";
paths = (
{
closed = 1;
nodes = (
"229 250 LINE",
"322 772 LINE",
"156 800 LINE",
"58 250 LINE"
);
},
{
closed = 1;
nodes = (
"381 246 OFFCURVE",
"294 104 OFFCURVE",
"189 29 CURVE",
"229 250 LINE",
"58 250 LINE",
"18 28 LINE",
"184 0 LINE",
"305 85 OFFCURVE",
"387 214 OFFCURVE",
"438 369 CURVE",
"426 394 LINE"
);
}
);
width = 342;
},
{
components = (
{
name = hlaskagorna;
transform = "{1, 0, 0, 1, -16, 0}";
},
{
name = ndol;
transform = "{1, 0, 0, 1, -344, 0}";
}
);
layerId = "76F08205-C3C5-4E97-8429-CDDB50136507";
width = 338;
},
{
associatedMasterId = "76F08205-C3C5-4E97-8429-CDDB50136507";
components = (
{
name = hlaskagorna;
},
{
name = ndol;
transform = "{1, 0, 0, 1, -328, 0}";
}
);
layerId = "56CDCAAE-2642-4D65-AF37-902E560F90E4";
name = "Bold Aug 1 16, 20:37";
width = 362;
}
);
leftMetricsKey = n;
rightMetricsKey = "=n";
unicode = 006C;
},
{
glyphname = l.fina;
lastChange = "2016-08-06 01:23:48 +0000";
layers = (
{
components = (
{
name = hlaskagorna;
transform = "{1, 0, 0, 1, -17, 0}";
},
{
name = nogakoniec;
transform = "{1, 0, 0, 1, -345, 0}";
}
);
layerId = "76F08205-C3C5-4E97-8429-CDDB50136507";
width = 322;
},
{
associatedMasterId = "76F08205-C3C5-4E97-8429-CDDB50136507";
layerId = "9A6C2939-1EEE-413B-9F5A-308ECC5954A2";
name = "Bold Jul 16 16, 20:44";
paths = (
{
closed = 1;
nodes = (
"229 250 LINE",
"322 772 LINE",
"156 800 LINE",
"58 250 LINE"
);
},
{
closed = 1;
nodes = (
"381 246 OFFCURVE",
"294 104 OFFCURVE",
"189 29 CURVE",
"229 250 LINE",
"58 250 LINE",
"18 28 LINE",
"184 0 LINE",
"305 85 OFFCURVE",
"387 214 OFFCURVE",
"438 369 CURVE",
"426 394 LINE"
);
}
);
width = 458;
}
);
leftMetricsKey = "=n";
rightKerningGroup = n;
rightMetricsKey = "=n.fina";
},
{
glyphname = l.isol;
lastChange = "2016-08-04 22:12:57 +0000";
layers = (
{
components = (
{
name = hlaskagorna;
transform = "{1, 0, 0, 1, -17, 0}";
},
{
name = nogakoniec;
transform = "{1, 0, 0, 1, -345, 0}";
}
);
layerId = "76F08205-C3C5-4E97-8429-CDDB50136507";
width = 322;
},
{
associatedMasterId = "76F08205-C3C5-4E97-8429-CDDB50136507";
layerId = "340C0E66-56AE-4080-9DF0-972AC89E2E91";
name = "Bold Jul 16 16, 20:44";
paths = (
{
closed = 1;
nodes = (
"231 250 LINE",
"324 772 LINE",
"158 800 LINE",
"60 250 LINE"
);
},
{
closed = 1;
nodes = (
"383 246 OFFCURVE",
"296 104 OFFCURVE",
"191 29 CURVE",
"231 250 LINE",
"60 250 LINE",
"20 28 LINE",
"186 0 LINE",
"307 85 OFFCURVE",
"389 214 OFFCURVE",
"440 369 CURVE",
"428 394 LINE"
);
}
);
width = 602;
}
);
leftMetricsKey = "=n";
rightMetricsKey = "=n.fina";
},
{
glyphname = m;
lastChange = "2016-08-05 18:16:59 +0000";
layers = (
{
associatedMasterId = "76F08205-C3C5-4E97-8429-CDDB50136507";
layerId = "1391807F-6E97-4E78-AFE5-8A85D049BE36";
name = stare;
paths = (
{
closed = 1;
nodes = (
"182 -1 LINE",
"216 187 LINE",
"264 305 OFFCURVE",
"338 411 OFFCURVE",
"424 472 CURVE",
"344 27 LINE",
"510 -1 LINE",
"542 178 LINE",
"591 299 OFFCURVE",
"666 409 OFFCURVE",
"754 472 CURVE",
"674 28 LINE",
"840 0 LINE",
"961 85 OFFCURVE",
"1043 214 OFFCURVE",
"1094 369 CURVE",
"1082 394 LINE",
"1037 246 OFFCURVE",
"950 104 OFFCURVE",
"845 29 CURVE",
"925 473 LINE",
"759 501 LINE",
"673 440 OFFCURVE",
"606 357 OFFCURVE",
"556 258 CURVE",
"595 473 LINE",
"429 501 LINE",
"344 442 OFFCURVE",
"279 360 OFFCURVE",
"230 264 CURVE",
"267 473 LINE",
"101 501 LINE",
"16 27 LINE"
);
}
);
width = 999;
},
{
components = (
{
name = "n-gora";
transform = "{1, 0, 0, 1, 1, 0}";
},
{
name = igora;
transform = "{1, 0, 0, 1, -40, 0}";
},
{
name = igora;
transform = "{-1, 0, 0, -1, 323, 500}";
},
{
name = "n-gora";
transform = "{1, 0, 0, 1, 333, 0}";
},
{
name = ndol;
transform = "{1, 0, 0, 1, 332, 0}";
},
{
name = igora;
transform = "{-1, 0, 0, -1, 651, 500}";
}
);
layerId = "76F08205-C3C5-4E97-8429-CDDB50136507";
width = 1014;
}
);
leftMetricsKey = "=n";
rightMetricsKey = "=n";
unicode = 006D;
},
{
glyphname = n;
lastChange = "2016-08-06 01:10:34 +0000";
layers = (
{
associatedMasterId = "75DB590C-AE7F-4677-9922-7BF9096FA72E";
layerId = "67E109B9-6DA3-4C8B-A462-F8DDDC856B36";
name = "Light May 8 16, 01:30";
paths = (
{
closed = 1;
nodes = (
"195 250 LINE",
"150 0 LINE",
"171 0 LINE",
"216 250 LINE"
);
},
{
closed = 1;
nodes = (
"455 251 LINE",
"420 58 LINE SMOOTH",
"413 17 OFFCURVE",
"427 0 OFFCURVE",
"448 0 CURVE SMOOTH",
"467 0 OFFCURVE",
"486 15 OFFCURVE",
"502 35 CURVE SMOOTH",
"671 250 LINE",
"657 265 LINE",
"495 56 LINE SMOOTH",
"482 39 OFFCURVE",
"466 22 OFFCURVE",
"454 22 CURVE SMOOTH",
"444 22 OFFCURVE",
"437 35 OFFCURVE",
"441 57 CURVE SMOOTH",
"476 251 LINE"
);
},
{
closed = 1;
nodes = (
"476 251 LINE",
"510 442 LINE SMOOTH",
"517 483 OFFCURVE",
"504 500 OFFCURVE",
"483 500 CURVE SMOOTH",
"457 500 OFFCURVE",
"434 473 OFFCURVE",
"418 453 CURVE SMOOTH",
"192 169 LINE",
"196 140 LINE",
"428 435 LINE SMOOTH",
"441 451 OFFCURVE",
"464 477 OFFCURVE",
"478 477 CURVE SMOOTH",
"487 477 OFFCURVE",
"493 465 OFFCURVE",
"489 443 CURVE SMOOTH",
"455 251 LINE"
);
},
{
closed = 1;
nodes = (
"216 250 LINE",
"251 443 LINE SMOOTH",
"258 484 OFFCURVE",
"244 501 OFFCURVE",
"223 501 CURVE SMOOTH",
"204 501 OFFCURVE",
"185 486 OFFCURVE",
"169 466 CURVE SMOOTH",
"0 251 LINE",
"14 236 LINE",
"176 445 LINE SMOOTH",
"189 462 OFFCURVE",
"205 479 OFFCURVE",
"217 479 CURVE SMOOTH",
"227 479 OFFCURVE",
"234 466 OFFCURVE",
"230 444 CURVE SMOOTH",
"195 250 LINE"
);
}
);
width = 646;
},
{
associatedMasterId = "56480930-E578-4B9B-8352-F8597265F588";
layerId = "7A0E7BAC-EDB4-4F07-96AD-27DBE466D231";
name = "Regular May 8 16, 11:09";
paths = (
{
closed = 1;
nodes = (
"155 250 LINE",
"110 0 LINE",
"181 0 LINE",
"226 250 LINE"
);
},
{
closed = 1;
nodes = (
"435 251 LINE",
"400 58 LINE SMOOTH",
"393 17 OFFCURVE",
"427 0 OFFCURVE",
"448 0 CURVE SMOOTH",
"467 0 OFFCURVE",
"486 15 OFFCURVE",
"502 35 CURVE SMOOTH",
"671 250 LINE",
"657 265 LINE",
"495 56 LINE SMOOTH",
"482 39 OFFCURVE",
"476 30 OFFCURVE",
"464 30 CURVE SMOOTH",
"454 30 OFFCURVE",
"447 35 OFFCURVE",
"451 57 CURVE SMOOTH",
"486 251 LINE"
);
},
{
closed = 1;
nodes = (
"486 251 LINE",
"520 442 LINE SMOOTH",
"527 483 OFFCURVE",
"504 500 OFFCURVE",
"483 500 CURVE SMOOTH",
"457 500 OFFCURVE",
"434 473 OFFCURVE",
"418 453 CURVE SMOOTH",
"192 169 LINE",
"196 140 LINE",
"428 435 LINE SMOOTH",
"441 451 OFFCURVE",
"444 477 OFFCURVE",
"458 477 CURVE SMOOTH",
"467 477 OFFCURVE",
"473 465 OFFCURVE",
"469 443 CURVE SMOOTH",
"435 251 LINE"
);
},
{
closed = 1;
nodes = (
"226 250 LINE",
"261 443 LINE SMOOTH",
"268 484 OFFCURVE",
"252 501 OFFCURVE",
"228 501 CURVE SMOOTH",
"206 501 OFFCURVE",
"185 486 OFFCURVE",
"169 466 CURVE SMOOTH",
"0 251 LINE",
"14 236 LINE",
"152 415 LINE SMOOTH",
"165 432 OFFCURVE",
"177 445 OFFCURVE",
"184 445 CURVE SMOOTH",
"193 445 OFFCURVE",
"186 421 OFFCURVE",
"182 399 CURVE SMOOTH",
"155 250 LINE"
);
}
);
width = 600;
},
{
associatedMasterId = "76F08205-C3C5-4E97-8429-CDDB50136507";
guideLines = (
{
angle = 259.796;
position = "{614, 250}";
},
{
angle = 51.1862;
position = "{758, 264}";
}
);
layerId = "9926BF42-27CF-433C-A584-C31C7EFA208A";
name = "Bold Jul 16 16, 11:14";
paths = (
{
closed = 1;
nodes = (
"267 473 LINE",
"101 501 LINE",
"16 27 LINE",
"182 -1 LINE"
);
},
{
closed = 1;
nodes = (
"232 255 OFFCURVE",
"319 397 OFFCURVE",
"424 472 CURVE",
"384 250 LINE",
"555 250 LINE",
"595 473 LINE",
"429 501 LINE",
"308 416 OFFCURVE",
"226 287 OFFCURVE",
"175 132 CURVE",
"187 107 LINE"
);
},
{
closed = 1;
nodes = (
"631 85 OFFCURVE",
"713 214 OFFCURVE",
"764 369 CURVE",
"752 394 LINE",
"707 246 OFFCURVE",
"620 104 OFFCURVE",
"515 29 CURVE",
"555 250 LINE",
"384 250 LINE",
"344 28 LINE",
"510 0 LINE"
);
}
);
width = 668;
},
{
anchors = (
{
name = top;
position = "{358, 579}";
}
);
components = (
{
name = ndol;
},
{
name = igora;
transform = "{1, 0, 0, 1, -40, 0}";
},
{
name = igora;
transform = "{-1, 0, 0, -1, 323, 500}";
},
{
name = "n-gora";
transform = "{1, 0, 0, 1, 1, 0}";
}
);
guideLines = (
{
angle = 259.796;
position = "{101, 505}";
},
{
angle = 51.1862;
position = "{758, 264}";
}
);
layerId = "76F08205-C3C5-4E97-8429-CDDB50136507";
width = 682;
}
);
unicode = 006E;
},
{
glyphname = n.init;
lastChange = "2016-08-04 22:15:15 +0000";
layers = (
{
components = (
{
name = "n-gora";
transform = "{1, 0, 0, 1, 1, 0}";
},
{
name = igora;
transform = "{1, 0, 0, 1, -40, 0}";
},
{
name = igora;
transform = "{-1, 0, 0, -1, 323, 500}";
},
{
name = ndol;
}
);
layerId = "76F08205-C3C5-4E97-8429-CDDB50136507";
width = 682;
},
{
associatedMasterId = "76F08205-C3C5-4E97-8429-CDDB50136507";
layerId = "C03F9816-1FC4-400C-B0C2-67C107CF2815";
name = "Bold Jul 15 16, 14:17";
paths = (
{
closed = 1;
nodes = (
"56 250 LINE",
"227 250 LINE",
"267 473 LINE",
"101 501 LINE"
);
},
{
closed = 1;
nodes = (
"227 250 LINE",
"56 250 LINE",
"16 27 LINE",
"182 -1 LINE"
);
},
{
closed = 1;
nodes = (
"232 255 OFFCURVE",
"320 473 OFFCURVE",
"424 472 CURVE",
"384 250 LINE",
"555 250 LINE",
"575 363 LINE SMOOTH",
"590 450 OFFCURVE",
"544 502 OFFCURVE",
"450 502 CURVE",
"290 505 OFFCURVE",
"226 287 OFFCURVE",
"175 132 CURVE",
"187 107 LINE"
);
},
{
closed = 1;
nodes = (
"707 245 OFFCURVE",
"619 27 OFFCURVE",
"515 28 CURVE",
"555 250 LINE",
"384 250 LINE",
"364 137 LINE SMOOTH",
"349 50 OFFCURVE",
"395 -2 OFFCURVE",
"489 -2 CURVE",
"649 -5 OFFCURVE",
"713 213 OFFCURVE",
"764 368 CURVE",
"752 393 LINE"
);
}
);
width = 668;
},
{
associatedMasterId = "76F08205-C3C5-4E97-8429-CDDB50136507";
layerId = "324E9BBC-D9B8-4A0B-84A3-83BA0F111E8D";
name = "Bold Jul 16 16, 20:45";
paths = (
{
closed = 1;
nodes = (
"56 250 LINE",
"227 250 LINE",
"267 473 LINE",
"101 501 LINE"
);
},
{
closed = 1;
nodes = (
"227 250 LINE",
"56 250 LINE",
"16 27 LINE",
"182 -1 LINE"
);
},
{
closed = 1;
nodes = (
"232 255 OFFCURVE",
"320 473 OFFCURVE",
"424 472 CURVE",
"384 250 LINE",
"555 250 LINE",
"575 363 LINE SMOOTH",
"590 450 OFFCURVE",
"544 502 OFFCURVE",
"462 502 CURVE",
"290 505 OFFCURVE",
"226 287 OFFCURVE",
"175 132 CURVE",
"187 107 LINE"
);
},
{
closed = 1;
nodes = (
"707 245 OFFCURVE",
"619 27 OFFCURVE",
"515 28 CURVE",
"555 250 LINE",
"384 250 LINE",
"364 137 LINE SMOOTH",
"349 50 OFFCURVE",
"395 -2 OFFCURVE",
"477 -2 CURVE",
"649 -5 OFFCURVE",
"713 213 OFFCURVE",
"764 368 CURVE",
"752 393 LINE"
);
}
);
width = 668;
}
);
leftMetricsKey = "=n";
rightMetricsKey = "=n";
},
{
glyphname = n.fina;
lastChange = "2016-08-06 01:10:48 +0000";
layers = (
{
anchors = (
{
name = top;
position = "{358, 579}";
}
);
components = (
{
name = "n-gora";
transform = "{1, 0, 0, 1, 1, 0}";
},
{
name = igora;
transform = "{1, 0, 0, 1, -40, 0}";
},
{
name = igora;
transform = "{-1, 0, 0, -1, 323, 500}";
},
{
name = nogakoniec;
}
);
layerId = "76F08205-C3C5-4E97-8429-CDDB50136507";
width = 667;
},
{
associatedMasterId = "76F08205-C3C5-4E97-8429-CDDB50136507";
layerId = "B1341B51-456D-4AC6-89B9-05CE7F054AC4";
name = "Bold Jul 15 16, 14:59";
paths = (
{
closed = 1;
nodes = (
"56 250 LINE",
"227 250 LINE",
"267 473 LINE",
"101 501 LINE"
);
},
{
closed = 1;
nodes = (
"227 250 LINE",
"56 250 LINE",
"16 27 LINE",
"182 -1 LINE"
);
},
{
closed = 1;
nodes = (
"232 255 OFFCURVE",
"320 473 OFFCURVE",
"424 472 CURVE",
"384 250 LINE",
"555 250 LINE",
"575 363 LINE SMOOTH",
"590 450 OFFCURVE",
"544 502 OFFCURVE",
"450 502 CURVE",
"290 505 OFFCURVE",
"226 287 OFFCURVE",
"175 132 CURVE",
"187 107 LINE"
);
},
{
closed = 1;
nodes = (
"347 -42 OFFCURVE",
"425 -110 OFFCURVE",
"532 -110 CURVE SMOOTH",
"653 -110 OFFCURVE",
"724 -19 OFFCURVE",
"724 60 CURVE SMOOTH",
"724 113 OFFCURVE",
"694 139 OFFCURVE",
"657 139 CURVE SMOOTH",
"619 139 OFFCURVE",
"589 109 OFFCURVE",
"589 72 CURVE SMOOTH",
"589 34 OFFCURVE",
"619 4 OFFCURVE",
"657 4 CURVE SMOOTH",
"674 4 OFFCURVE",
"690 13 OFFCURVE",
"690 13 CURVE SMOOTH",
"690 13 OFFCURVE",
"663 -72 OFFCURVE",
"584 -83 CURVE SMOOTH",
"526 -91 OFFCURVE",
"507 -52 OFFCURVE",
"516 6 CURVE SMOOTH",
"555 250 LINE",
"384 250 LINE",
"361 72 LINE SMOOTH"
);
}
);
width = 600;
},
{
associatedMasterId = "76F08205-C3C5-4E97-8429-CDDB50136507";
components = (
{
name = igora;
transform = "{1, 0, 0, 1, -40, 0}";
},
{
name = igora;
transform = "{-1, 0, 0, -1, 323, 500}";
},
{
name = "n-gora";
transform = "{1, 0, 0, 1, 1, 0}";
},
{
name = "wyjscie-final";
transform = "{1, 0, 0, 1, 42, 0}";
}
);
layerId = "D74DB6BB-5612-4940-9F0D-A9C285750D64";
name = "Bold Jul 16 16, 20:45";
width = 600;
}
);
leftMetricsKey = "=n";
rightKerningGroup = n;
},
{
glyphname = n.isol;
lastChange = "2016-08-04 21:47:44 +0000";
layers = (
{
components = (
{
name = "n-gora";
transform = "{1, 0, 0, 1, 1, 0}";
},
{
name = igora;
transform = "{1, 0, 0, 1, -40, 0}";
},
{
name = igora;
transform = "{-1, 0, 0, -1, 323, 500}";
},
{
name = nogakoniec;
}
);
layerId = "76F08205-C3C5-4E97-8429-CDDB50136507";
width = 667;
},
{
associatedMasterId = "76F08205-C3C5-4E97-8429-CDDB50136507";
layerId = "48DADBCB-FEC9-4DED-BAD3-20E803613F16";
name = "Bold Jul 15 16, 14:59";
paths = (
{
closed = 1;
nodes = (
"182 -1 LINE",
"215.737 187.178 LINE",
"264.404 304.669 OFFCURVE",
"338.191 410.708 OFFCURVE",
"424 472 CURVE",
"363 133 LINE SMOOTH",
"337 -7 OFFCURVE",
"400 -90 OFFCURVE",
"543 -90 CURVE SMOOTH",
"685 -90 OFFCURVE",
"710 2 OFFCURVE",
"710 40 CURVE SMOOTH",
"710 76 OFFCURVE",
"680 107 OFFCURVE",
"643 107 CURVE SMOOTH",
"605 107 OFFCURVE",
"575 77 OFFCURVE",
"575 40 CURVE SMOOTH",
"575 2 OFFCURVE",
"605 -28 OFFCURVE",
"643 -28 CURVE SMOOTH",
"657 -28 OFFCURVE",
"668 -23 OFFCURVE",
"668 -23 CURVE SMOOTH",
"668 -23 OFFCURVE",
"639 -72 OFFCURVE",
"581 -72 CURVE SMOOTH",
"524 -72 OFFCURVE",
"506 -23 OFFCURVE",
"534 133 CURVE SMOOTH",
"595 473 LINE",
"429 501 LINE",
"344.321 441.515 OFFCURVE",
"278.743 360.481 OFFCURVE",
"229.523 264.067 CURVE",
"267 473 LINE",
"101 501 LINE",
"16 27 LINE"
);
}
);
width = 600;
},
{
associatedMasterId = "76F08205-C3C5-4E97-8429-CDDB50136507";
layerId = "FE0B3296-0F0A-405A-BE36-88E7845EFFB3";
name = "Bold Jul 16 16, 20:45";
paths = (
{
closed = 1;
nodes = (
"182 -1 LINE",
"215.737 187.178 LINE",
"264.404 304.669 OFFCURVE",
"338.191 410.708 OFFCURVE",
"424 472 CURVE",
"363 133 LINE SMOOTH",
"337 -7 OFFCURVE",
"400 -90 OFFCURVE",
"543 -90 CURVE SMOOTH",
"685 -90 OFFCURVE",
"710 2 OFFCURVE",
"710 40 CURVE SMOOTH",
"710 76 OFFCURVE",
"680 107 OFFCURVE",
"643 107 CURVE SMOOTH",
"605 107 OFFCURVE",
"575 77 OFFCURVE",
"575 40 CURVE SMOOTH",
"575 2 OFFCURVE",
"605 -28 OFFCURVE",
"643 -28 CURVE SMOOTH",
"657 -28 OFFCURVE",
"668 -23 OFFCURVE",
"668 -23 CURVE SMOOTH",
"668 -23 OFFCURVE",
"639 -72 OFFCURVE",
"581 -72 CURVE SMOOTH",
"524 -72 OFFCURVE",
"506 -23 OFFCURVE",
"534 133 CURVE SMOOTH",
"595 473 LINE",
"429 501 LINE",
"344.321 441.515 OFFCURVE",
"278.743 360.481 OFFCURVE",
"229.523 264.067 CURVE",
"267 473 LINE",
"101 501 LINE",
"16 27 LINE"
);
}
);
width = 600;
}
);
leftMetricsKey = "=n";
rightMetricsKey = "=n.fina";
},
{
glyphname = o;
lastChange = "2016-08-06 01:10:25 +0000";
layers = (
{
associatedMasterId = "76F08205-C3C5-4E97-8429-CDDB50136507";
layerId = "736BC304-E998-4341-AF90-BC5DEFD9FB4E";
name = "Bold Jun 17 16, 19:23";
paths = (
{
closed = 1;
nodes = (
"125 149 LINE",
"125 317 OFFCURVE",
"185 480 OFFCURVE",
"277 480 CURVE",
"318 500 LINE",
"145 500 OFFCURVE",
"-15 357 OFFCURVE",
"-15 185 CURVE"
);
},
{
closed = 1;
nodes = (
"198 20 LINE",
"145 20 OFFCURVE",
"125 72 OFFCURVE",
"125 149 CURVE",
"-15 185 LINE",
"-15 59 OFFCURVE",
"72 0 OFFCURVE",
"169 0 CURVE"
);
},
{
closed = 1;
nodes = (
"349 351 LINE",
"349 183 OFFCURVE",
"293 20 OFFCURVE",
"198 20 CURVE",
"169 0 LINE",
"333 0 OFFCURVE",
"489 143 OFFCURVE",
"489 318 CURVE"
);
},
{
closed = 1;
nodes = (
"277 480 LINE",
"330 480 OFFCURVE",
"349 425 OFFCURVE",
"349 351 CURVE",
"489 318 LINE",
"489 438 OFFCURVE",
"423 500 OFFCURVE",
"318 500 CURVE"
);
}
);
width = 466;
},
{
associatedMasterId = "76F08205-C3C5-4E97-8429-CDDB50136507";
components = (
{
name = ocale;
}
);
layerId = "CE70BDC6-DEF2-4E66-B285-91C6E98AD0F0";
name = "Bold Jul 7 16, 19:57";
width = 521;
},
{
associatedMasterId = "76F08205-C3C5-4E97-8429-CDDB50136507";
components = (
{
name = ocale;
}
);
layerId = "9FDE9FC8-192C-42A0-AEB7-A32E614121D8";
name = "Bold Jul 7 16, 19:57";
width = 521;
},
{
associatedMasterId = "76F08205-C3C5-4E97-8429-CDDB50136507";
components = (
{
name = ocale;
}
);
layerId = "C34E89B7-6337-48B1-ACAA-56003516E64B";
name = "Bold Jul 7 16, 19:57";
width = 521;
},
{
associatedMasterId = "76F08205-C3C5-4E97-8429-CDDB50136507";
components = (
{
name = ocale;
}
);
layerId = "674D8729-0447-44DB-9008-B7D8BD3F2822";
name = "Bold Jul 7 16, 19:57";
width = 521;
},
{
associatedMasterId = "76F08205-C3C5-4E97-8429-CDDB50136507";
layerId = "753403A5-2B43-461A-BFED-8C4F1AFFB808";
name = "Bold Jul 14 16, 15:23";
width = 521;
},
{
associatedMasterId = "76F08205-C3C5-4E97-8429-CDDB50136507";
layerId = "AC294C8E-CA7B-4159-9C52-55108FEBEFA1";
name = "Bold Jul 16 16, 11:16";
paths = (
{
closed = 1;
nodes = (
"9 57.254 OFFCURVE",
"119.612 0.2 OFFCURVE",
"234.396 0.005 CURVE SMOOTH",
"416.183 0.2 OFFCURVE",
"542 138.116 OFFCURVE",
"542 298 CURVE SMOOTH",
"542 442.746 OFFCURVE",
"431.388 499.8 OFFCURVE",
"316.604 499.995 CURVE SMOOTH",
"134.817 499.8 OFFCURVE",
"9 361.884 OFFCURVE",
"9 202 CURVE SMOOTH"
);
},
{
closed = 1;
nodes = (
"170 316.819 OFFCURVE",
"217.891 480.627 OFFCURVE",
"313.673 480.991 CURVE SMOOTH",
"358.229 480.628 OFFCURVE",
"381 443.48 OFFCURVE",
"381 340 CURVE SMOOTH",
"381 185.196 OFFCURVE",
"328 19 OFFCURVE",
"235.352 19.01 CURVE SMOOTH",
"185 19 OFFCURVE",
"170 68.382 OFFCURVE",
"170 158 CURVE SMOOTH"
);
}
);
width = 521;
},
{
anchors = (
{
name = top;
position = "{318, 579}";
}
);
layerId = "76F08205-C3C5-4E97-8429-CDDB50136507";
paths = (
{
closed = 1;
nodes = (
"236 468 LINE",
"236 468 OFFCURVE",
"267 480 OFFCURVE",
"313 480 CURVE SMOOTH",
"363 480 OFFCURVE",
"398 466 OFFCURVE",
"398 466 CURVE",
"321 30 LINE",
"321 30 OFFCURVE",
"294 20 OFFCURVE",
"252 20 CURVE SMOOTH",
"197 20 OFFCURVE",
"160 37 OFFCURVE",
"160 37 CURVE"
);
},
{
closed = 1;
nodes = (
"410 -5 OFFCURVE",
"544 111 OFFCURVE",
"544 285 CURVE SMOOTH",
"544 417 OFFCURVE",
"454 505 OFFCURVE",
"314 505 CURVE SMOOTH",
"149 505 OFFCURVE",
"20 389 OFFCURVE",
"20 215 CURVE SMOOTH",
"20 83 OFFCURVE",
"105 -5 OFFCURVE",
"248 -5 CURVE SMOOTH"
);
}
);
width = 569;
}
);
unicode = 006F;
},
{
glyphname = o.init;
lastChange = "2016-08-05 18:30:12 +0000";
layers = (
{
components = (
{
name = o;
}
);
layerId = "76F08205-C3C5-4E97-8429-CDDB50136507";
width = 569;
},
{
associatedMasterId = "76F08205-C3C5-4E97-8429-CDDB50136507";
layerId = "CDC96D5E-3B24-4500-BDEA-A4D33CEC2B3A";
name = "Bold Jul 16 16, 20:45";
paths = (
{
closed = 1;
nodes = (
"542 443 OFFCURVE",
"431 500 OFFCURVE",
"316 500 CURVE",
"313 481 LINE",
"358 481 OFFCURVE",
"381 444 OFFCURVE",
"381 340 CURVE SMOOTH",
"381 185 OFFCURVE",
"328 19 OFFCURVE",
"235 19 CURVE",
"234 0 LINE",
"416 0 OFFCURVE",
"542 138 OFFCURVE",
"542 298 CURVE SMOOTH"
);
},
{
closed = 1;
nodes = (
"9 57 OFFCURVE",
"120 0 OFFCURVE",
"235 0 CURVE",
"236 19 LINE",
"185 19 OFFCURVE",
"170 68 OFFCURVE",
"170 158 CURVE SMOOTH",
"170 317 OFFCURVE",
"218 481 OFFCURVE",
"314 481 CURVE",
"317 500 LINE",
"135 500 OFFCURVE",
"9 362 OFFCURVE",
"9 202 CURVE SMOOTH"
);
}
);
width = 600;
}
);
leftMetricsKey = "=o";
rightMetricsKey = "=o";
},
{
glyphname = o.fina;
lastChange = "2016-08-05 18:30:17 +0000";
layers = (
{
components = (
{
name = o;
}
);
layerId = "76F08205-C3C5-4E97-8429-CDDB50136507";
width = 569;
},
{
associatedMasterId = "76F08205-C3C5-4E97-8429-CDDB50136507";
layerId = "FC49C654-1022-497B-ADEC-EA07A34BAEDE";
name = "Bold Jul 16 16, 20:45";
paths = (
{
closed = 1;
nodes = (
"542 443 OFFCURVE",
"431 500 OFFCURVE",
"316 500 CURVE",
"313 481 LINE",
"358 481 OFFCURVE",
"381 444 OFFCURVE",
"381 340 CURVE SMOOTH",
"381 185 OFFCURVE",
"328 19 OFFCURVE",
"235 19 CURVE",
"234 0 LINE",
"416 0 OFFCURVE",
"542 138 OFFCURVE",
"542 298 CURVE SMOOTH"
);
},
{
closed = 1;
nodes = (
"9 57 OFFCURVE",
"120 0 OFFCURVE",
"235 0 CURVE",
"236 19 LINE",
"185 19 OFFCURVE",
"170 68 OFFCURVE",
"170 158 CURVE SMOOTH",
"170 317 OFFCURVE",
"218 481 OFFCURVE",
"314 481 CURVE",
"317 500 LINE",
"135 500 OFFCURVE",
"9 362 OFFCURVE",
"9 202 CURVE SMOOTH"
);
}
);
width = 600;
}
);
leftMetricsKey = "=o";
rightMetricsKey = "=o";
},
{
glyphname = o.isol;
lastChange = "2016-08-05 18:30:22 +0000";
layers = (
{
components = (
{
name = o;
}
);
layerId = "76F08205-C3C5-4E97-8429-CDDB50136507";
width = 569;
},
{
associatedMasterId = "76F08205-C3C5-4E97-8429-CDDB50136507";
layerId = "64586911-8F1E-4090-938A-20CAE889F9F3";
name = "Bold Jul 16 16, 20:45";
paths = (
{
closed = 1;
nodes = (
"542 443 OFFCURVE",
"431 500 OFFCURVE",
"316 500 CURVE",
"313 481 LINE",
"358 481 OFFCURVE",
"381 444 OFFCURVE",
"381 340 CURVE SMOOTH",
"381 185 OFFCURVE",
"328 19 OFFCURVE",
"235 19 CURVE",
"234 0 LINE",
"416 0 OFFCURVE",
"542 138 OFFCURVE",
"542 298 CURVE SMOOTH"
);
},
{
closed = 1;
nodes = (
"9 57 OFFCURVE",
"120 0 OFFCURVE",
"235 0 CURVE",
"236 19 LINE",
"185 19 OFFCURVE",
"170 68 OFFCURVE",
"170 158 CURVE SMOOTH",
"170 317 OFFCURVE",
"218 481 OFFCURVE",
"314 481 CURVE",
"317 500 LINE",
"135 500 OFFCURVE",
"9 362 OFFCURVE",
"9 202 CURVE SMOOTH"
);
}
);
width = 600;
}
);
leftMetricsKey = o;
rightMetricsKey = "=o";
},
{
glyphname = p;
lastChange = "2016-08-05 18:33:31 +0000";
layers = (
{
components = (
{
name = igora;
transform = "{1, 0, 0, 1, -52, 0}";
},
{
name = brz;
transform = "{-1, 0, 0, -1, 535, 502}";
},
{
name = hlaskagorna;
transform = "{-1, 0, 0, -1, 271, 500}";
}
);
layerId = "76F08205-C3C5-4E97-8429-CDDB50136507";
width = 592;
},
{
associatedMasterId = "76F08205-C3C5-4E97-8429-CDDB50136507";
layerId = "37E41C82-A502-4CC0-81D1-DD23CEBE2DF6";
name = "Bold Jun 18 16, 00:03";
paths = (
{
closed = 1;
nodes = (
"476 247 LINE",
"476 103 OFFCURVE",
"419 20 OFFCURVE",
"274 20 CURVE",
"274 0 LINE",
"470 0 OFFCURVE",
"618 159 OFFCURVE",
"618 326 CURVE"
);
},
{
closed = 1;
nodes = (
"298 249 LINE",
"312 234 LINE",
"429 378 LINE",
"429 378 OFFCURVE",
"476 352 OFFCURVE",
"476 247 CURVE",
"618 326 LINE",
"618 464 OFFCURVE",
"499 500 OFFCURVE",
"499 500 CURVE"
);
},
{
closed = 1;
nodes = (
"234 -228 LINE",
"358 473 LINE",
"192 501 LINE",
"68 -200 LINE"
);
},
{
closed = 1;
nodes = (
"186 464 LINE",
"147 250 LINE",
"318 250 LINE",
"358 473 LINE",
"192 501 LINE",
"-9 251 LINE",
"3 236 LINE"
);
}
);
width = 600;
},
{
associatedMasterId = "76F08205-C3C5-4E97-8429-CDDB50136507";
layerId = "D829043E-6702-4E10-8DCE-DC6266F95F8F";
name = poczatek;
paths = (
{
closed = 1;
nodes = (
"234 -228 LINE",
"358 473 LINE",
"192 501 LINE",
"68 -200 LINE"
);
},
{
closed = 1;
nodes = (
"186 464 LINE",
"147 250 LINE",
"318 250 LINE",
"358 473 LINE",
"192 501 LINE"
);
},
{
closed = 1;
nodes = (
"482 250 LINE",
"448 62 OFFCURVE",
"409 18 OFFCURVE",
"364 18 CURVE",
"387 0 LINE",
"484 0 OFFCURVE",
"626 56 OFFCURVE",
"658 250 CURVE"
);
},
{
closed = 1;
nodes = (
"463 452 LINE",
"497 452 OFFCURVE",
"507 394 OFFCURVE",
"482 250 CURVE",
"658 250 LINE",
"687 414 OFFCURVE",
"630 500 OFFCURVE",
"535 500 CURVE"
);
},
{
closed = 1;
nodes = (
"296 190 LINE",
"321 327 OFFCURVE",
"412 452 OFFCURVE",
"463 452 CURVE",
"535 500 LINE",
"403 500 OFFCURVE",
"299 334 OFFCURVE",
"274 190 CURVE"
);
},
{
closed = 1;
nodes = (
"364 18 LINE",
"312 18 OFFCURVE",
"275 75 OFFCURVE",
"296 190 CURVE",
"274 190 LINE",
"257 106 OFFCURVE",
"257 0 OFFCURVE",
"387 0 CURVE"
);
}
);
width = 656;
},
{
associatedMasterId = "76F08205-C3C5-4E97-8429-CDDB50136507";
layerId = "251469CB-64CD-4179-A887-C390DA7666C6";
name = "Bold Jul 15 16, 14:20";
paths = (
{
closed = 1;
nodes = (
"144 -228 LINE",
"268 472 LINE",
"102 500 LINE",
"-22 -200 LINE"
);
},
{
closed = 1;
nodes = (
"424 0 OFFCURVE",
"574 134 OFFCURVE",
"574 315 CURVE SMOOTH",
"574 429 OFFCURVE",
"512 500 OFFCURVE",
"386 500 CURVE",
"327 458 OFFCURVE",
"282 406 OFFCURVE",
"245 346 CURVE",
"17 26 LINE",
"17 26 OFFCURVE",
"91 0 OFFCURVE",
"188 0 CURVE SMOOTH"
);
},
{
closed = 1;
nodes = (
"200 20 OFFCURVE",
"188 22 OFFCURVE",
"188 22 CURVE",
"235 287 LINE",
"277 363 OFFCURVE",
"287 375 OFFCURVE",
"334 424 CURVE",
"334 424 OFFCURVE",
"403 386 OFFCURVE",
"403 273 CURVE SMOOTH",
"403 160 OFFCURVE",
"343 20 OFFCURVE",
"216 20 CURVE SMOOTH"
);
}
);
width = 594;
},
{
associatedMasterId = "76F08205-C3C5-4E97-8429-CDDB50136507";
layerId = "B38AB28A-F372-4F44-908E-FE02D70368C5";
name = "Bold Jul 15 16, 14:20 Jul 18 16, 11:48";
paths = (
{
closed = 1;
nodes = (
"144 -228 LINE",
"268 472 LINE",
"102 500 LINE",
"-22 -200 LINE"
);
},
{
closed = 1;
nodes = (
"443 2 OFFCURVE",
"557 138 OFFCURVE",
"557 312 CURVE SMOOTH",
"557 420 OFFCURVE",
"509 502 OFFCURVE",
"404 502 CURVE SMOOTH",
"293 502 OFFCURVE",
"250 409 OFFCURVE",
"250 409 CURVE",
"18 30 LINE",
"184 4 LINE",
"196 65 LINE",
"196 65 OFFCURVE",
"238 2 OFFCURVE",
"321 2 CURVE SMOOTH"
);
},
{
closed = 1;
nodes = (
"320 21 LINE",
"237 24 OFFCURVE",
"201 91 OFFCURVE",
"201 91 CURVE",
"251 376 LINE",
"251 376 OFFCURVE",
"295 477 OFFCURVE",
"403 481 CURVE"
);
}
);
width = 594;
}
);
rightKerningGroup = p;
rightMetricsKey = "=o";
unicode = 0070;
},
{
glyphname = p.init;
lastChange = "2016-08-05 18:33:31 +0000";
layers = (
{
components = (
{
name = igora;
transform = "{1, 0, 0, 1, -52, 0}";
},
{
name = brz;
transform = "{-1, 0, 0, -1, 535, 502}";
},
{
name = hlaskagorna;
transform = "{-1, 0, 0, -1, 271, 500}";
}
);
layerId = "76F08205-C3C5-4E97-8429-CDDB50136507";
width = 592;
},
{
associatedMasterId = "76F08205-C3C5-4E97-8429-CDDB50136507";
layerId = "5C47C1B4-F0E0-45EF-822C-00E7C7D21ACB";
name = "Bold Jul 16 16, 20:46";
paths = (
{
closed = 1;
nodes = (
"144 -228 LINE",
"184.627 0.01 LINE",
"188 0 LINE SMOOTH",
"424 0 OFFCURVE",
"574 134 OFFCURVE",
"574 315 CURVE SMOOTH",
"574 429 OFFCURVE",
"512 500 OFFCURVE",
"386 500 CURVE",
"327 458 OFFCURVE",
"282 406 OFFCURVE",
"245 346 CURVE",
"268 472 LINE",
"102 500 LINE",
"-22 -200 LINE"
);
},
{
closed = 1;
nodes = (
"236.127 289.037 LINE",
"277.183 363.219 OFFCURVE",
"287.423 375.441 OFFCURVE",
"334 424 CURVE",
"334 424 OFFCURVE",
"403 386 OFFCURVE",
"403 273 CURVE SMOOTH",
"403 160 OFFCURVE",
"343 20 OFFCURVE",
"216 20 CURVE SMOOTH",
"201.97 20 OFFCURVE",
"191.015 21.538 OFFCURVE",
"188.531 21.917 CURVE"
);
}
);
width = 594;
}
);
leftMetricsKey = "=p";
rightMetricsKey = "=o";
},
{
glyphname = p.fina;
lastChange = "2016-08-05 18:33:31 +0000";
layers = (
{
components = (
{
name = igora;
transform = "{1, 0, 0, 1, -52, 0}";
},
{
name = brz;
transform = "{-1, 0, 0, -1, 535, 502}";
},
{
name = hlaskagorna;
transform = "{-1, 0, 0, -1, 271, 500}";
}
);
layerId = "76F08205-C3C5-4E97-8429-CDDB50136507";
width = 592;
},
{
associatedMasterId = "76F08205-C3C5-4E97-8429-CDDB50136507";
layerId = "ECA410F0-1FC1-42E3-9B72-76F4607E5F19";
name = "Bold Jul 16 16, 20:46";
paths = (
{
closed = 1;
nodes = (
"234 -228 LINE",
"274.341 0.058 LINE",
"282 0 LINE SMOOTH",
"518 0 OFFCURVE",
"668 134 OFFCURVE",
"668 315 CURVE SMOOTH",
"668 444 OFFCURVE",
"612 500 OFFCURVE",
"480 500 CURVE",
"424 460 OFFCURVE",
"379 410 OFFCURVE",
"334.4 339.584 CURVE",
"358 473 LINE",
"192 501 LINE",
"68 -200 LINE"
);
},
{
closed = 1;
nodes = (
"328 287 LINE",
"369 363 OFFCURVE",
"408 410 OFFCURVE",
"464 459 CURVE",
"464 459 OFFCURVE",
"496 416 OFFCURVE",
"496 318 CURVE SMOOTH",
"496 150 OFFCURVE",
"436 20 OFFCURVE",
"309 20 CURVE SMOOTH",
"293 20 OFFCURVE",
"281 22 OFFCURVE",
"281 22 CURVE"
);
}
);
width = 600;
}
);
leftMetricsKey = "=p";
rightMetricsKey = "=o";
},
{
glyphname = p.isol;
lastChange = "2016-08-05 18:33:31 +0000";
layers = (
{
components = (
{
name = igora;
transform = "{1, 0, 0, 1, -52, 0}";
},
{
name = brz;
transform = "{-1, 0, 0, -1, 535, 502}";
},
{
name = hlaskagorna;
transform = "{-1, 0, 0, -1, 271, 500}";
}
);
layerId = "76F08205-C3C5-4E97-8429-CDDB50136507";
width = 592;
},
{
associatedMasterId = "76F08205-C3C5-4E97-8429-CDDB50136507";
layerId = "53FF9C4D-9D15-4F26-B7E4-47A744264A43";
name = "Bold Jul 16 16, 20:46";
paths = (
{
closed = 1;
nodes = (
"144 -228 LINE",
"268 472 LINE",
"102 500 LINE",
"-22 -200 LINE"
);
},
{
closed = 1;
nodes = (
"490 0 OFFCURVE",
"588 116 OFFCURVE",
"588 291 CURVE SMOOTH",
"588 424 OFFCURVE",
"517 502 OFFCURVE",
"414 502 CURVE SMOOTH",
"305 502 OFFCURVE",
"246 414 OFFCURVE",
"246 414 CURVE",
"193 80 LINE",
"193 80 OFFCURVE",
"248 0 OFFCURVE",
"357 0 CURVE SMOOTH"
);
},
{
closed = 1;
nodes = (
"339 26 LINE",
"239 40 OFFCURVE",
"205 117 OFFCURVE",
"205 117 CURVE",
"249 377 LINE",
"249 377 OFFCURVE",
"300 476 OFFCURVE",
"422 476 CURVE"
);
}
);
width = 600;
}
);
leftMetricsKey = "=p";
rightMetricsKey = "=o";
},
{
glyphname = q;
lastChange = "2016-08-06 01:36:56 +0000";
layers = (
{
components = (
{
name = igora;
transform = "{1, 0, 0, 1, 274, 0}";
},
{
name = hlaskagorna;
transform = "{-1, 0, 0, -1, 597, 500}";
},
{
name = brz;
transform = "{1, 0, 0, 1, 52, 0}";
}
);
layerId = "76F08205-C3C5-4E97-8429-CDDB50136507";
width = 601;
},
{
associatedMasterId = "75DB590C-AE7F-4677-9922-7BF9096FA72E";
layerId = "1E44C092-E33C-4E8A-9B8A-23867B6ACDB0";
name = "Light May 8 16, 15:36";
paths = (
{
closed = 1;
nodes = (
"8 174 LINE",
"8 318 OFFCURVE",
"107 480 OFFCURVE",
"302 480 CURVE",
"302 500 LINE",
"106 500 OFFCURVE",
"-12 341 OFFCURVE",
"-12 174 CURVE"
);
},
{
closed = 1;
nodes = (
"278 251 LINE",
"264 266 LINE",
"73 26 LINE",
"73 26 OFFCURVE",
"8 69 OFFCURVE",
"8 174 CURVE",
"-12 174 LINE",
"-12 36 OFFCURVE",
"77 0 OFFCURVE",
"77 0 CURVE"
);
},
{
closed = 1;
nodes = (
"198 -187 LINE",
"323 500 LINE",
"302 500 LINE",
"179 -187 LINE"
);
},
{
closed = 1;
nodes = (
"565 254 LINE",
"551 269 LINE",
"201 -171 LINE",
"243 51 LINE",
"222 51 LINE",
"179 -187 LINE",
"200 -200 LINE"
);
}
);
width = 546;
}
);
leftMetricsKey = "=o";
rightMetricsKey = "=g";
unicode = 0071;
},
{
glyphname = q.init;
lastChange = "2016-08-06 01:36:31 +0000";
layers = (
{
components = (
{
name = igora;
transform = "{1, 0, 0, 1, 274, 0}";
},
{
name = hlaskagorna;
transform = "{-1, 0, 0, -1, 597, 500}";
},
{
name = brz;
transform = "{1, 0, 0, 1, 52, 0}";
}
);
layerId = "76F08205-C3C5-4E97-8429-CDDB50136507";
width = 601;
},
{
associatedMasterId = "76F08205-C3C5-4E97-8429-CDDB50136507";
layerId = "F081D1B0-D144-4B20-82B9-F0BAF242F789";
name = "Bold Jul 16 16, 20:46";
paths = (
{
closed = 1;
nodes = (
"15 56 OFFCURVE",
"71 0 OFFCURVE",
"203 0 CURVE",
"260.977 41.272 OFFCURVE",
"305.435 92.2 OFFCURVE",
"342.068 150.887 CURVE",
"280 -200 LINE",
"446 -228 LINE",
"569.954 472.741 LINE",
"524 489 OFFCURVE",
"460 499 OFFCURVE",
"401 500 CURVE SMOOTH",
"165 500 OFFCURVE",
"15 366 OFFCURVE",
"15 185 CURVE SMOOTH"
);
},
{
closed = 1;
nodes = (
"186 350 OFFCURVE",
"246 480 OFFCURVE",
"373 480 CURVE SMOOTH",
"386.226 480 OFFCURVE",
"396.719 478.633 OFFCURVE",
"399.96 478.159 CURVE",
"352.598 210.41 LINE",
"312.108 135.927 OFFCURVE",
"273.361 89.441 OFFCURVE",
"218 41 CURVE",
"218 41 OFFCURVE",
"186 84 OFFCURVE",
"186 182 CURVE SMOOTH"
);
}
);
width = 600;
}
);
leftMetricsKey = "=o";
rightMetricsKey = "=g";
},
{
glyphname = q.fina;
lastChange = "2016-08-06 01:36:56 +0000";
layers = (
{
components = (
{
name = igora;
transform = "{1, 0, 0, 1, 274, 0}";
},
{
name = hlaskagorna;
transform = "{-1, 0, 0, -1, 597, 500}";
},
{
name = brz;
transform = "{1, 0, 0, 1, 52, 0}";
}
);
layerId = "76F08205-C3C5-4E97-8429-CDDB50136507";
width = 601;
},
{
associatedMasterId = "76F08205-C3C5-4E97-8429-CDDB50136507";
layerId = "EC4CA81E-73DB-4F2B-A0F1-852C3F40F5A3";
name = "Bold Jul 16 16, 20:46";
paths = (
{
closed = 1;
nodes = (
"15 56 OFFCURVE",
"71 0 OFFCURVE",
"203 0 CURVE",
"260.977 41.272 OFFCURVE",
"305.435 92.2 OFFCURVE",
"342.068 150.887 CURVE",
"280 -200 LINE",
"446 -228 LINE",
"569.954 472.741 LINE",
"524 489 OFFCURVE",
"460 499 OFFCURVE",
"401 500 CURVE SMOOTH",
"165 500 OFFCURVE",
"15 366 OFFCURVE",
"15 185 CURVE SMOOTH"
);
},
{
closed = 1;
nodes = (
"186 350 OFFCURVE",
"246 480 OFFCURVE",
"373 480 CURVE SMOOTH",
"386.226 480 OFFCURVE",
"396.719 478.633 OFFCURVE",
"399.96 478.159 CURVE",
"352.598 210.41 LINE",
"312.108 135.927 OFFCURVE",
"273.361 89.441 OFFCURVE",
"218 41 CURVE",
"218 41 OFFCURVE",
"186 84 OFFCURVE",
"186 182 CURVE SMOOTH"
);
}
);
width = 600;
}
);
leftMetricsKey = "=o";
rightMetricsKey = "=g";
},
{
glyphname = q.isol;
lastChange = "2016-08-06 01:36:56 +0000";
layers = (
{
components = (
{
name = igora;
transform = "{1, 0, 0, 1, 274, 0}";
},
{
name = hlaskagorna;
transform = "{-1, 0, 0, -1, 597, 500}";
},
{
name = brz;
transform = "{1, 0, 0, 1, 52, 0}";
}
);
layerId = "76F08205-C3C5-4E97-8429-CDDB50136507";
width = 601;
},
{
associatedMasterId = "76F08205-C3C5-4E97-8429-CDDB50136507";
layerId = "C66B246C-BA44-465F-8DF5-81455D303FA1";
name = "Bold Jul 16 16, 20:46";
paths = (
{
closed = 1;
nodes = (
"15 56 OFFCURVE",
"71 0 OFFCURVE",
"203 0 CURVE",
"260.977 41.272 OFFCURVE",
"305.435 92.2 OFFCURVE",
"342.068 150.887 CURVE",
"280 -200 LINE",
"446 -228 LINE",
"569.954 472.741 LINE",
"524 489 OFFCURVE",
"460 499 OFFCURVE",
"401 500 CURVE SMOOTH",
"165 500 OFFCURVE",
"15 366 OFFCURVE",
"15 185 CURVE SMOOTH"
);
},
{
closed = 1;
nodes = (
"186 350 OFFCURVE",
"246 480 OFFCURVE",
"373 480 CURVE SMOOTH",
"386.226 480 OFFCURVE",
"396.719 478.633 OFFCURVE",
"399.96 478.159 CURVE",
"352.598 210.41 LINE",
"312.108 135.927 OFFCURVE",
"273.361 89.441 OFFCURVE",
"218 41 CURVE",
"218 41 OFFCURVE",
"186 84 OFFCURVE",
"186 182 CURVE SMOOTH"
);
}
);
width = 600;
}
);
leftMetricsKey = "=o";
rightMetricsKey = "=g";
},
{
glyphname = r;
lastChange = "2016-08-04 22:21:18 +0000";
layers = (
{
associatedMasterId = "76F08205-C3C5-4E97-8429-CDDB50136507";
layerId = "24938EE4-4295-4E7F-9ECA-A6C272D65F28";
name = "Bold Jul 14 16, 14:51";
paths = (
{
closed = 1;
nodes = (
"226 250 LINE",
"55 250 LINE",
"15 27 LINE",
"181 0 LINE"
);
},
{
closed = 1;
nodes = (
"94 464 LINE",
"55 250 LINE",
"226 250 LINE",
"266 473 LINE",
"100 501 LINE"
);
},
{
closed = 1;
nodes = (
"203 255 OFFCURVE",
"290 397 OFFCURVE",
"395 472 CURVE",
"372 353 LINE",
"540 325 LINE",
"566 473 LINE",
"400 501 LINE",
"279 416 OFFCURVE",
"197 287 OFFCURVE",
"146 132 CURVE",
"158 107 LINE"
);
}
);
width = 544;
},
{
associatedMasterId = "76F08205-C3C5-4E97-8429-CDDB50136507";
layerId = "979B86D0-5FD3-4B99-9037-A294EFB0C56D";
name = "Bold Jul 16 16, 11:12";
paths = (
{
closed = 1;
nodes = (
"226 250 LINE",
"55 250 LINE",
"15 27 LINE",
"181 0 LINE"
);
},
{
closed = 1;
nodes = (
"94 464 LINE",
"55 250 LINE",
"226 250 LINE",
"266 473 LINE",
"100 501 LINE"
);
},
{
closed = 1;
nodes = (
"158 107 LINE",
"201.455 249.919 OFFCURVE",
"284.076 387.243 OFFCURVE",
"384.25 464.041 CURVE",
"379.001 454.443 OFFCURVE",
"376 443.512 OFFCURVE",
"376 432 CURVE SMOOTH",
"376 395 OFFCURVE",
"407 364 OFFCURVE",
"444 364 CURVE SMOOTH",
"481 364 OFFCURVE",
"512 395 OFFCURVE",
"512 432 CURVE SMOOTH",
"512 469 OFFCURVE",
"481 500 OFFCURVE",
"436 500 CURVE SMOOTH",
"318 500 OFFCURVE",
"197 287 OFFCURVE",
"146 132 CURVE"
);
}
);
width = 472;
},
{
components = (
{
name = igora;
transform = "{1, 0, 0, 1, -40, 0}";
},
{
name = igora;
transform = "{-1, 0, 0, -1, 323, 500}";
}
);
layerId = "76F08205-C3C5-4E97-8429-CDDB50136507";
paths = (
{
closed = 1;
nodes = (
"158 107 LINE",
"188.021 206.583 OFFCURVE",
"271 361 OFFCURVE",
"356 436 CURVE",
"356 436 OFFCURVE",
"354 427 OFFCURVE",
"354 416 CURVE SMOOTH",
"354 370 OFFCURVE",
"392 332 OFFCURVE",
"438 332 CURVE SMOOTH",
"484 332 OFFCURVE",
"522 370 OFFCURVE",
"522 416 CURVE SMOOTH",
"522 462 OFFCURVE",
"484 500 OFFCURVE",
"434 500 CURVE SMOOTH",
"304 500 OFFCURVE",
"185 250 OFFCURVE",
"146 132 CURVE"
);
}
);
width = 472;
}
);
leftMetricsKey = "=n";
unicode = 0072;
},
{
glyphname = r.init;
lastChange = "2016-08-04 22:21:44 +0000";
layers = (
{
components = (
{
name = igora;
transform = "{1, 0, 0, 1, -40, 0}";
},
{
name = igora;
transform = "{-1, 0, 0, -1, 323, 500}";
}
);
layerId = "76F08205-C3C5-4E97-8429-CDDB50136507";
paths = (
{
closed = 1;
nodes = (
"158 107 LINE",
"188.021 206.583 OFFCURVE",
"271 361 OFFCURVE",
"356 436 CURVE",
"356 436 OFFCURVE",
"354 427 OFFCURVE",
"354 416 CURVE SMOOTH",
"354 370 OFFCURVE",
"392 332 OFFCURVE",
"438 332 CURVE SMOOTH",
"484 332 OFFCURVE",
"522 370 OFFCURVE",
"522 416 CURVE SMOOTH",
"522 462 OFFCURVE",
"484 500 OFFCURVE",
"434 500 CURVE SMOOTH",
"304 500 OFFCURVE",
"185 250 OFFCURVE",
"146 132 CURVE"
);
}
);
width = 472;
},
{
associatedMasterId = "76F08205-C3C5-4E97-8429-CDDB50136507";
layerId = "4EB40DD2-2C3E-4233-823D-F1C03C4F8B15";
name = "Bold Jul 16 16, 20:46";
paths = (
{
closed = 1;
nodes = (
"226 250 LINE",
"55 250 LINE",
"15 27 LINE",
"181 0 LINE"
);
},
{
closed = 1;
nodes = (
"94 464 LINE",
"55 250 LINE",
"226 250 LINE",
"266 473 LINE",
"100 501 LINE"
);
},
{
closed = 1;
nodes = (
"158 107 LINE",
"201.455 249.919 OFFCURVE",
"284.076 387.243 OFFCURVE",
"384.25 464.041 CURVE",
"379.001 454.443 OFFCURVE",
"376 443.512 OFFCURVE",
"376 432 CURVE SMOOTH",
"376 395 OFFCURVE",
"407 364 OFFCURVE",
"444 364 CURVE SMOOTH",
"481 364 OFFCURVE",
"512 395 OFFCURVE",
"512 432 CURVE SMOOTH",
"512 469 OFFCURVE",
"481 500 OFFCURVE",
"436 500 CURVE SMOOTH",
"318 500 OFFCURVE",
"197 287 OFFCURVE",
"146 132 CURVE"
);
}
);
width = 492;
}
);
leftMetricsKey = "=n";
rightMetricsKey = "=r";
},
{
glyphname = r.fina;
lastChange = "2016-08-04 22:21:52 +0000";
layers = (
{
components = (
{
name = igora;
transform = "{1, 0, 0, 1, -40, 0}";
},
{
name = igora;
transform = "{-1, 0, 0, -1, 323, 500}";
}
);
layerId = "76F08205-C3C5-4E97-8429-CDDB50136507";
paths = (
{
closed = 1;
nodes = (
"158 107 LINE",
"188.021 206.583 OFFCURVE",
"271 361 OFFCURVE",
"356 436 CURVE",
"356 436 OFFCURVE",
"354 427 OFFCURVE",
"354 416 CURVE SMOOTH",
"354 370 OFFCURVE",
"392 332 OFFCURVE",
"438 332 CURVE SMOOTH",
"484 332 OFFCURVE",
"522 370 OFFCURVE",
"522 416 CURVE SMOOTH",
"522 462 OFFCURVE",
"484 500 OFFCURVE",
"434 500 CURVE SMOOTH",
"304 500 OFFCURVE",
"185 250 OFFCURVE",
"146 132 CURVE"
);
}
);
width = 472;
},
{
associatedMasterId = "76F08205-C3C5-4E97-8429-CDDB50136507";
layerId = "CBE002A9-0824-4B50-81B8-8032CAFF84DD";
name = "Bold Jul 16 16, 20:47";
paths = (
{
closed = 1;
nodes = (
"226 250 LINE",
"55 250 LINE",
"15 27 LINE",
"181 0 LINE"
);
},
{
closed = 1;
nodes = (
"94 464 LINE",
"55 250 LINE",
"226 250 LINE",
"266 473 LINE",
"100 501 LINE"
);
},
{
closed = 1;
nodes = (
"158 107 LINE",
"201.455 249.919 OFFCURVE",
"284.076 387.243 OFFCURVE",
"384.25 464.041 CURVE",
"379.001 454.443 OFFCURVE",
"376 443.512 OFFCURVE",
"376 432 CURVE SMOOTH",
"376 395 OFFCURVE",
"407 364 OFFCURVE",
"444 364 CURVE SMOOTH",
"481 364 OFFCURVE",
"512 395 OFFCURVE",
"512 432 CURVE SMOOTH",
"512 469 OFFCURVE",
"481 500 OFFCURVE",
"436 500 CURVE SMOOTH",
"318 500 OFFCURVE",
"197 287 OFFCURVE",
"146 132 CURVE"
);
}
);
width = 600;
}
);
leftMetricsKey = "=n";
rightMetricsKey = "=r";
},
{
glyphname = r.isol;
lastChange = "2016-08-04 22:21:58 +0000";
layers = (
{
components = (
{
name = igora;
transform = "{1, 0, 0, 1, -40, 0}";
},
{
name = igora;
transform = "{-1, 0, 0, -1, 323, 500}";
}
);
layerId = "76F08205-C3C5-4E97-8429-CDDB50136507";
paths = (
{
closed = 1;
nodes = (
"158 107 LINE",
"188.021 206.583 OFFCURVE",
"271 361 OFFCURVE",
"356 436 CURVE",
"356 436 OFFCURVE",
"354 427 OFFCURVE",
"354 416 CURVE SMOOTH",
"354 370 OFFCURVE",
"392 332 OFFCURVE",
"438 332 CURVE SMOOTH",
"484 332 OFFCURVE",
"522 370 OFFCURVE",
"522 416 CURVE SMOOTH",
"522 462 OFFCURVE",
"484 500 OFFCURVE",
"434 500 CURVE SMOOTH",
"304 500 OFFCURVE",
"185 250 OFFCURVE",
"146 132 CURVE"
);
}
);
width = 472;
},
{
associatedMasterId = "76F08205-C3C5-4E97-8429-CDDB50136507";
layerId = "2AE6D716-F74C-4CA2-A62A-735242E97FFB";
name = "Bold Jul 16 16, 20:47";
paths = (
{
closed = 1;
nodes = (
"226 250 LINE",
"55 250 LINE",
"15 27 LINE",
"181 0 LINE"
);
},
{
closed = 1;
nodes = (
"94 464 LINE",
"55 250 LINE",
"226 250 LINE",
"266 473 LINE",
"100 501 LINE"
);
},
{
closed = 1;
nodes = (
"158 107 LINE",
"201 250 OFFCURVE",
"284 387 OFFCURVE",
"384 464 CURVE",
"379 454 OFFCURVE",
"376 444 OFFCURVE",
"376 432 CURVE SMOOTH",
"376 395 OFFCURVE",
"407 364 OFFCURVE",
"444 364 CURVE SMOOTH",
"481 364 OFFCURVE",
"512 395 OFFCURVE",
"512 432 CURVE SMOOTH",
"512 469 OFFCURVE",
"481 500 OFFCURVE",
"436 500 CURVE SMOOTH",
"318 500 OFFCURVE",
"197 287 OFFCURVE",
"146 132 CURVE"
);
}
);
width = 600;
}
);
leftMetricsKey = "=n";
rightMetricsKey = "=r";
},
{
glyphname = s;
lastChange = "2016-08-06 01:32:13 +0000";
layers = (
{
associatedMasterId = "76F08205-C3C5-4E97-8429-CDDB50136507";
layerId = "8DD96AFF-B9C8-4E1F-B278-394C7E17289F";
name = "Bold Jul 7 16, 19:57";
paths = (
{
closed = 1;
nodes = (
"394 1 OFFCURVE",
"439 115 OFFCURVE",
"439 205 CURVE SMOOTH",
"439 271 OFFCURVE",
"394 308 OFFCURVE",
"379 322 CURVE SMOOTH",
"379 322 OFFCURVE",
"220 485 OFFCURVE",
"220 485 CURVE",
"182 318 LINE",
"382 110 LINE",
"382 110 OFFCURVE",
"359 26 OFFCURVE",
"228 26 CURVE",
"235 1 LINE"
);
},
{
closed = 1;
nodes = (
"228 26 LINE",
"201 26 OFFCURVE",
"145 44 OFFCURVE",
"139 46 CURVE",
"83 49 LINE",
"108 33 OFFCURVE",
"196 1 OFFCURVE",
"235 1 CURVE"
);
},
{
closed = 1;
nodes = (
"158 38 OFFCURVE",
"189 69 OFFCURVE",
"189 107 CURVE SMOOTH",
"189 145 OFFCURVE",
"158 176 OFFCURVE",
"120 176 CURVE SMOOTH",
"82 176 OFFCURVE",
"51 145 OFFCURVE",
"51 107 CURVE SMOOTH",
"51 69 OFFCURVE",
"82 38 OFFCURVE",
"120 38 CURVE SMOOTH"
);
}
);
width = 458;
},
{
associatedMasterId = "76F08205-C3C5-4E97-8429-CDDB50136507";
layerId = "66B3B247-EDB8-4B42-B1B1-CEC72552DD56";
name = nowe;
paths = (
{
closed = 1;
nodes = (
"7 51 OFFCURVE",
"60 -3 OFFCURVE",
"187 -3 CURVE SMOOTH",
"334 -3 OFFCURVE",
"414 56 OFFCURVE",
"414 156 CURVE SMOOTH",
"414 307 OFFCURVE",
"232 291 OFFCURVE",
"232 407 CURVE SMOOTH",
"232 451 OFFCURVE",
"259 480 OFFCURVE",
"316 480 CURVE SMOOTH",
"362 480 OFFCURVE",
"387 458 OFFCURVE",
"387 458 CURVE SMOOTH",
"387 458 OFFCURVE",
"323 450 OFFCURVE",
"323 392 CURVE SMOOTH",
"323 354 OFFCURVE",
"350 327 OFFCURVE",
"391 327 CURVE SMOOTH",
"431 327 OFFCURVE",
"458 353 OFFCURVE",
"458 393 CURVE SMOOTH",
"458 448 OFFCURVE",
"405 502 OFFCURVE",
"287 502 CURVE SMOOTH",
"152 502 OFFCURVE",
"61 444 OFFCURVE",
"61 340 CURVE SMOOTH",
"61 195 OFFCURVE",
"243 225 OFFCURVE",
"243 99 CURVE SMOOTH",
"243 49 OFFCURVE",
"214 19 OFFCURVE",
"158 19 CURVE SMOOTH",
"113 19 OFFCURVE",
"78 41 OFFCURVE",
"78 41 CURVE SMOOTH",
"78 41 OFFCURVE",
"142 49 OFFCURVE",
"142 107 CURVE SMOOTH",
"142 145 OFFCURVE",
"115 172 OFFCURVE",
"74 172 CURVE SMOOTH",
"34 172 OFFCURVE",
"7 146 OFFCURVE",
"7 106 CURVE SMOOTH"
);
}
);
width = 447;
},
{
associatedMasterId = "76F08205-C3C5-4E97-8429-CDDB50136507";
layerId = "CF562A4C-29BE-4034-B36C-7EF216E99C46";
name = "Bold Jul 23 16, 13:03";
paths = (
{
closed = 1;
nodes = (
"2 51 OFFCURVE",
"60 -3 OFFCURVE",
"191 -3 CURVE SMOOTH",
"334 -3 OFFCURVE",
"414 56 OFFCURVE",
"414 156 CURVE SMOOTH",
"414 307 OFFCURVE",
"232 291 OFFCURVE",
"232 407 CURVE SMOOTH",
"232 451 OFFCURVE",
"259 480 OFFCURVE",
"316 480 CURVE SMOOTH",
"362 480 OFFCURVE",
"387 461 OFFCURVE",
"387 461 CURVE SMOOTH",
"387 461 OFFCURVE",
"318 450 OFFCURVE",
"318 392 CURVE SMOOTH",
"318 354 OFFCURVE",
"349 322 OFFCURVE",
"390 322 CURVE SMOOTH",
"430 322 OFFCURVE",
"463 353 OFFCURVE",
"463 393 CURVE SMOOTH",
"463 448 OFFCURVE",
"405 502 OFFCURVE",
"287 502 CURVE SMOOTH",
"152 502 OFFCURVE",
"61 444 OFFCURVE",
"61 340 CURVE SMOOTH",
"61 200 OFFCURVE",
"243 225 OFFCURVE",
"243 99 CURVE SMOOTH",
"243 49 OFFCURVE",
"214 19 OFFCURVE",
"158 19 CURVE SMOOTH",
"113 19 OFFCURVE",
"78 38 OFFCURVE",
"78 38 CURVE SMOOTH",
"78 38 OFFCURVE",
"147 52 OFFCURVE",
"147 109 CURVE SMOOTH",
"147 148 OFFCURVE",
"115 177 OFFCURVE",
"74 177 CURVE SMOOTH",
"34 177 OFFCURVE",
"2 146 OFFCURVE",
"2 106 CURVE SMOOTH"
);
}
);
width = 447;
},
{
associatedMasterId = "76F08205-C3C5-4E97-8429-CDDB50136507";
layerId = "9F6491AD-F12B-435E-BCB8-2062C41B614C";
name = "Bold Aug 6 16, 00:16";
paths = (
{
closed = 1;
nodes = (
"2 51 OFFCURVE",
"60 -3 OFFCURVE",
"191 -3 CURVE SMOOTH",
"334 -3 OFFCURVE",
"414 56 OFFCURVE",
"414 156 CURVE SMOOTH",
"414 307 OFFCURVE",
"232 291 OFFCURVE",
"232 407 CURVE SMOOTH",
"232 451 OFFCURVE",
"259 480 OFFCURVE",
"316 480 CURVE SMOOTH",
"362 480 OFFCURVE",
"387 461 OFFCURVE",
"387 461 CURVE SMOOTH",
"387 461 OFFCURVE",
"318 450 OFFCURVE",
"318 392 CURVE SMOOTH",
"318 354 OFFCURVE",
"349 322 OFFCURVE",
"390 322 CURVE SMOOTH",
"430 322 OFFCURVE",
"463 353 OFFCURVE",
"463 393 CURVE SMOOTH",
"463 448 OFFCURVE",
"405 502 OFFCURVE",
"287 502 CURVE SMOOTH",
"152 502 OFFCURVE",
"61 444 OFFCURVE",
"61 340 CURVE SMOOTH",
"61 200 OFFCURVE",
"243 225 OFFCURVE",
"243 99 CURVE SMOOTH",
"243 49 OFFCURVE",
"214 19 OFFCURVE",
"158 19 CURVE SMOOTH",
"113 19 OFFCURVE",
"78 38 OFFCURVE",
"78 38 CURVE SMOOTH",
"78 38 OFFCURVE",
"147 52 OFFCURVE",
"147 109 CURVE SMOOTH",
"147 148 OFFCURVE",
"115 177 OFFCURVE",
"74 177 CURVE SMOOTH",
"34 177 OFFCURVE",
"2 146 OFFCURVE",
"2 106 CURVE SMOOTH"
);
}
);
width = 447;
},
{
anchors = (
{
name = top;
position = "{298, 579}";
}
);
layerId = "76F08205-C3C5-4E97-8429-CDDB50136507";
paths = (
{
closed = 1;
nodes = (
"-8 63 OFFCURVE",
"50 -5 OFFCURVE",
"179 -5 CURVE SMOOTH",
"301 -5 OFFCURVE",
"394 51 OFFCURVE",
"394 143 CURVE SMOOTH",
"394 220 OFFCURVE",
"336 257 OFFCURVE",
"250 276 CURVE",
"284 484 LINE",
"356 486 OFFCURVE",
"397 454 OFFCURVE",
"397 454 CURVE SMOOTH",
"397 454 OFFCURVE",
"328 443 OFFCURVE",
"328 385 CURVE SMOOTH",
"328 347 OFFCURVE",
"359 315 OFFCURVE",
"400 315 CURVE SMOOTH",
"440 315 OFFCURVE",
"473 346 OFFCURVE",
"473 386 CURVE SMOOTH",
"473 441 OFFCURVE",
"415 505 OFFCURVE",
"287 505 CURVE SMOOTH",
"181 505 OFFCURVE",
"111 455 OFFCURVE",
"111 379 CURVE SMOOTH",
"111 305 OFFCURVE",
"180 265 OFFCURVE",
"242 256 CURVE",
"201 18 LINE",
"99 5 OFFCURVE",
"50 66 OFFCURVE",
"50 66 CURVE SMOOTH",
"50 66 OFFCURVE",
"137 59 OFFCURVE",
"137 134 CURVE SMOOTH",
"137 178 OFFCURVE",
"105 205 OFFCURVE",
"64 205 CURVE SMOOTH",
"24 205 OFFCURVE",
"-8 174 OFFCURVE",
"-8 126 CURVE SMOOTH"
);
}
);
width = 483;
},
{
associatedMasterId = "76F08205-C3C5-4E97-8429-CDDB50136507";
layerId = "00AE35EE-B6C6-4137-961B-D411F94A6334";
name = "Bold Aug 6 16, 00:16";
paths = (
{
closed = 1;
nodes = (
"-8 63 OFFCURVE",
"50 -5 OFFCURVE",
"175 -5 CURVE SMOOTH",
"301 -5 OFFCURVE",
"394 51 OFFCURVE",
"394 143 CURVE SMOOTH",
"394 220 OFFCURVE",
"336 257 OFFCURVE",
"250 276 CURVE",
"284 484 LINE",
"356 486 OFFCURVE",
"397 454 OFFCURVE",
"397 454 CURVE SMOOTH",
"397 454 OFFCURVE",
"328 443 OFFCURVE",
"328 385 CURVE SMOOTH",
"328 347 OFFCURVE",
"359 315 OFFCURVE",
"400 315 CURVE SMOOTH",
"440 315 OFFCURVE",
"473 346 OFFCURVE",
"473 386 CURVE SMOOTH",
"473 441 OFFCURVE",
"415 505 OFFCURVE",
"287 505 CURVE SMOOTH",
"181 505 OFFCURVE",
"111 455 OFFCURVE",
"111 379 CURVE SMOOTH",
"111 305 OFFCURVE",
"180 265 OFFCURVE",
"242 256 CURVE",
"201 18 LINE",
"99 5 OFFCURVE",
"50 66 OFFCURVE",
"50 66 CURVE SMOOTH",
"50 66 OFFCURVE",
"137 59 OFFCURVE",
"137 134 CURVE SMOOTH",
"137 178 OFFCURVE",
"105 205 OFFCURVE",
"64 205 CURVE SMOOTH",
"24 205 OFFCURVE",
"-8 174 OFFCURVE",
"-8 126 CURVE SMOOTH"
);
}
);
width = 447;
}
);
leftKerningGroup = s;
unicode = 0073;
},
{
color = 0;
glyphname = s.init;
lastChange = "2016-08-06 01:19:45 +0000";
layers = (
{
associatedMasterId = "76F08205-C3C5-4E97-8429-CDDB50136507";
layerId = "B17CBAD2-741F-4462-A830-81011654A3D9";
name = "Bold Aug 2 16, 14:47";
paths = (
{
closed = 1;
nodes = (
"2 51 OFFCURVE",
"60 -3 OFFCURVE",
"191 -3 CURVE SMOOTH",
"334 -3 OFFCURVE",
"376 50 OFFCURVE",
"376 150 CURVE SMOOTH",
"376 211 OFFCURVE",
"361 258 OFFCURVE",
"178 461 CURVE",
"234 478 LINE",
"337 494 OFFCURVE",
"387 461 OFFCURVE",
"387 461 CURVE SMOOTH",
"387 461 OFFCURVE",
"318 450 OFFCURVE",
"318 392 CURVE SMOOTH",
"318 354 OFFCURVE",
"349 322 OFFCURVE",
"390 322 CURVE SMOOTH",
"430 322 OFFCURVE",
"463 353 OFFCURVE",
"463 393 CURVE SMOOTH",
"463 448 OFFCURVE",
"405 502 OFFCURVE",
"287 502 CURVE SMOOTH",
"152 502 OFFCURVE",
"61 444 OFFCURVE",
"61 340 CURVE SMOOTH",
"61 290 OFFCURVE",
"183 223 OFFCURVE",
"305 43 CURVE",
"158 19 LINE",
"113 19 OFFCURVE",
"78 38 OFFCURVE",
"78 38 CURVE SMOOTH",
"78 38 OFFCURVE",
"146 52 OFFCURVE",
"146 109 CURVE SMOOTH",
"146 148 OFFCURVE",
"115 177 OFFCURVE",
"74 177 CURVE SMOOTH",
"34 177 OFFCURVE",
"2 146 OFFCURVE",
"2 106 CURVE SMOOTH"
);
}
);
width = 473;
},
{
components = (
{
name = s;
}
);
layerId = "76F08205-C3C5-4E97-8429-CDDB50136507";
width = 483;
},
{
associatedMasterId = "76F08205-C3C5-4E97-8429-CDDB50136507";
layerId = "B809D8B3-BF21-4DE9-A0A8-FEDCEA8DC724";
name = "Bold Aug 6 16, 00:35";
paths = (
{
closed = 1;
nodes = (
"2 51 OFFCURVE",
"60 -3 OFFCURVE",
"191 -3 CURVE SMOOTH",
"334 -3 OFFCURVE",
"414 56 OFFCURVE",
"414 156 CURVE SMOOTH",
"414 307 OFFCURVE",
"232 291 OFFCURVE",
"232 407 CURVE SMOOTH",
"232 451 OFFCURVE",
"259 480 OFFCURVE",
"316 480 CURVE SMOOTH",
"362 480 OFFCURVE",
"387 461 OFFCURVE",
"387 461 CURVE SMOOTH",
"387 461 OFFCURVE",
"318 450 OFFCURVE",
"318 392 CURVE SMOOTH",
"318 354 OFFCURVE",
"349 322 OFFCURVE",
"390 322 CURVE SMOOTH",
"430 322 OFFCURVE",
"463 353 OFFCURVE",
"463 393 CURVE SMOOTH",
"463 448 OFFCURVE",
"405 502 OFFCURVE",
"287 502 CURVE SMOOTH",
"152 502 OFFCURVE",
"61 444 OFFCURVE",
"61 340 CURVE SMOOTH",
"61 200 OFFCURVE",
"243 225 OFFCURVE",
"243 99 CURVE SMOOTH",
"243 49 OFFCURVE",
"214 19 OFFCURVE",
"158 19 CURVE SMOOTH",
"113 19 OFFCURVE",
"78 38 OFFCURVE",
"78 38 CURVE SMOOTH",
"78 38 OFFCURVE",
"146 52 OFFCURVE",
"146 109 CURVE SMOOTH",
"146 148 OFFCURVE",
"115 177 OFFCURVE",
"74 177 CURVE SMOOTH",
"34 177 OFFCURVE",
"2 146 OFFCURVE",
"2 106 CURVE SMOOTH"
);
}
);
width = 473;
}
);
leftKerningGroup = s;
},
{
color = 0;
glyphname = s.fina;
lastChange = "2016-08-06 01:19:45 +0000";
layers = (
{
components = (
{
name = s;
}
);
layerId = "76F08205-C3C5-4E97-8429-CDDB50136507";
width = 483;
},
{
associatedMasterId = "76F08205-C3C5-4E97-8429-CDDB50136507";
layerId = "C2D433DD-5755-420E-98B7-C775A0FECAC1";
name = "Bold Aug 6 16, 00:35";
paths = (
{
closed = 1;
nodes = (
"2 51 OFFCURVE",
"60 -3 OFFCURVE",
"191 -3 CURVE SMOOTH",
"334 -3 OFFCURVE",
"414 56 OFFCURVE",
"414 156 CURVE SMOOTH",
"414 307 OFFCURVE",
"232 291 OFFCURVE",
"232 407 CURVE SMOOTH",
"232 451 OFFCURVE",
"259 480 OFFCURVE",
"316 480 CURVE SMOOTH",
"362 480 OFFCURVE",
"387 461 OFFCURVE",
"387 461 CURVE SMOOTH",
"387 461 OFFCURVE",
"318 450 OFFCURVE",
"318 392 CURVE SMOOTH",
"318 354 OFFCURVE",
"349 322 OFFCURVE",
"390 322 CURVE SMOOTH",
"430 322 OFFCURVE",
"463 353 OFFCURVE",
"463 393 CURVE SMOOTH",
"463 448 OFFCURVE",
"405 502 OFFCURVE",
"287 502 CURVE SMOOTH",
"152 502 OFFCURVE",
"61 444 OFFCURVE",
"61 340 CURVE SMOOTH",
"61 200 OFFCURVE",
"243 225 OFFCURVE",
"243 99 CURVE SMOOTH",
"243 49 OFFCURVE",
"214 19 OFFCURVE",
"158 19 CURVE SMOOTH",
"113 19 OFFCURVE",
"78 38 OFFCURVE",
"78 38 CURVE SMOOTH",
"78 38 OFFCURVE",
"146 52 OFFCURVE",
"146 109 CURVE SMOOTH",
"146 148 OFFCURVE",
"115 177 OFFCURVE",
"74 177 CURVE SMOOTH",
"34 177 OFFCURVE",
"2 146 OFFCURVE",
"2 106 CURVE SMOOTH"
);
}
);
width = 600;
}
);
leftKerningGroup = s;
},
{
glyphname = t;
lastChange = "2016-08-04 22:23:46 +0000";
layers = (
{
components = (
{
name = tkreska;
transform = "{1, 0, 0, 1, -14, 0}";
},
{
name = ndol;
transform = "{1, 0, 0, 1, -342, 0}";
}
);
layerId = "76F08205-C3C5-4E97-8429-CDDB50136507";
paths = (
{
closed = 1;
nodes = (
"213 250 LINE",
"279 619 LINE",
"113 659 LINE",
"42 250 LINE"
);
}
);
width = 340;
},
{
associatedMasterId = "76F08205-C3C5-4E97-8429-CDDB50136507";
layerId = "18C66553-9E18-4B0A-B6CE-133086BDFB03";
name = "Bold Jul 15 16, 14:58";
paths = (
{
closed = 1;
nodes = (
"229 250 LINE",
"301 658 LINE",
"135 686 LINE",
"58 250 LINE"
);
},
{
closed = 1;
nodes = (
"28 479 LINE",
"353 479 LINE",
"353 498 LINE",
"28 498 LINE"
);
},
{
closed = 1;
nodes = (
"305 85 OFFCURVE",
"387 214 OFFCURVE",
"438 369 CURVE",
"426 394 LINE",
"381 246 OFFCURVE",
"294 104 OFFCURVE",
"189 29 CURVE",
"229 250 LINE",
"58 250 LINE",
"18 28 LINE",
"184 0 LINE"
);
}
);
width = 342;
}
);
rightMetricsKey = "=n";
unicode = 0074;
},
{
glyphname = t.init;
lastChange = "2016-08-06 01:28:26 +0000";
layers = (
{
components = (
{
name = ndol;
transform = "{1, 0, 0, 1, -342, 0}";
},
{
name = tkreska;
transform = "{1, 0, 0, 1, -14, 0}";
}
);
layerId = "76F08205-C3C5-4E97-8429-CDDB50136507";
paths = (
{
closed = 1;
nodes = (
"213 250 LINE",
"279 619 LINE",
"113 659 LINE",
"42 250 LINE"
);
}
);
width = 340;
},
{
associatedMasterId = "76F08205-C3C5-4E97-8429-CDDB50136507";
layerId = "B1A6B386-4BFB-4773-A845-017DFBFC96A1";
name = "Bold Jul 16 16, 20:47";
paths = (
{
closed = 1;
nodes = (
"229 250 LINE",
"301 658 LINE",
"135 686 LINE",
"58 250 LINE"
);
},
{
closed = 1;
nodes = (
"381 246 OFFCURVE",
"294 104 OFFCURVE",
"189 29 CURVE",
"229 250 LINE",
"58 250 LINE",
"18 28 LINE",
"184 0 LINE",
"305 85 OFFCURVE",
"387 214 OFFCURVE",
"438 369 CURVE",
"426 394 LINE"
);
},
{
closed = 1;
nodes = (
"28 479 LINE",
"353 479 LINE",
"353 498 LINE",
"28 498 LINE"
);
}
);
width = 342;
}
);
leftMetricsKey = "=t";
rightMetricsKey = n;
},
{
glyphname = t.fina;
lastChange = "2016-08-06 01:28:28 +0000";
layers = (
{
components = (
{
name = tkreska;
transform = "{1, 0, 0, 1, -14, 0}";
},
{
name = nogakoniec;
transform = "{1, 0, 0, 1, -342, 0}";
}
);
layerId = "76F08205-C3C5-4E97-8429-CDDB50136507";
paths = (
{
closed = 1;
nodes = (
"213 250 LINE",
"279 619 LINE",
"113 659 LINE",
"42 250 LINE"
);
}
);
width = 340;
},
{
associatedMasterId = "76F08205-C3C5-4E97-8429-CDDB50136507";
layerId = "CCDFCF79-5029-4709-A95E-75F3D18B0087";
name = "Bold Jul 16 16, 20:47";
paths = (
{
closed = 1;
nodes = (
"229 250 LINE",
"301 658 LINE",
"135 686 LINE",
"58 250 LINE"
);
},
{
closed = 1;
nodes = (
"381 246 OFFCURVE",
"294 104 OFFCURVE",
"189 29 CURVE",
"229 250 LINE",
"58 250 LINE",
"18 28 LINE",
"184 0 LINE",
"305 85 OFFCURVE",
"387 214 OFFCURVE",
"438 369 CURVE",
"426 394 LINE"
);
},
{
closed = 1;
nodes = (
"28 479 LINE",
"353 479 LINE",
"353 498 LINE",
"28 498 LINE"
);
}
);
width = 600;
}
);
leftMetricsKey = t;
rightMetricsKey = "=n.fina";
},
{
glyphname = t.isol;
lastChange = "2016-08-06 01:28:31 +0000";
layers = (
{
components = (
{
name = tkreska;
transform = "{1, 0, 0, 1, -14, 0}";
},
{
name = nogakoniec;
transform = "{1, 0, 0, 1, -342, 0}";
}
);
layerId = "76F08205-C3C5-4E97-8429-CDDB50136507";
paths = (
{
closed = 1;
nodes = (
"213 250 LINE",
"279 619 LINE",
"113 659 LINE",
"42 250 LINE"
);
}
);
width = 340;
},
{
associatedMasterId = "76F08205-C3C5-4E97-8429-CDDB50136507";
layerId = "109ECD20-24AF-4F68-81B2-A66E1FB82C4A";
name = "Bold Jul 16 16, 20:47";
paths = (
{
closed = 1;
nodes = (
"229 250 LINE",
"301 658 LINE",
"135 686 LINE",
"58 250 LINE"
);
},
{
closed = 1;
nodes = (
"381 246 OFFCURVE",
"294 104 OFFCURVE",
"189 29 CURVE",
"229 250 LINE",
"58 250 LINE",
"18 28 LINE",
"184 0 LINE",
"305 85 OFFCURVE",
"387 214 OFFCURVE",
"438 369 CURVE",
"426 394 LINE"
);
},
{
closed = 1;
nodes = (
"28 479 LINE",
"353 479 LINE",
"353 498 LINE",
"28 498 LINE"
);
}
);
width = 600;
}
);
leftMetricsKey = "=t";
rightMetricsKey = "=n.fina";
},
{
glyphname = u;
lastChange = "2016-08-04 23:19:45 +0000";
layers = (
{
associatedMasterId = "76F08205-C3C5-4E97-8429-CDDB50136507";
layerId = "EEF9A55B-4046-4E71-A75F-FDAB52DB6882";
name = "Bold Jul 15 16, 23:02";
paths = (
{
closed = 1;
nodes = (
"270 59 OFFCURVE",
"335 139 OFFCURVE",
"384 234 CURVE",
"347 28 LINE",
"513 0 LINE",
"634 85 OFFCURVE",
"716 214 OFFCURVE",
"767 369 CURVE",
"755 394 LINE",
"710 246 OFFCURVE",
"623 104 OFFCURVE",
"518 29 CURVE",
"598 473 LINE",
"432 501 LINE",
"398 310 LINE",
"349 194 OFFCURVE",
"276 90 OFFCURVE",
"191 29 CURVE",
"271 473 LINE",
"105 501 LINE",
"20 28 LINE",
"186 0 LINE"
);
}
);
width = 672;
},
{
components = (
{
name = "n-gora";
transform = "{-1, 0, 0, -1, 610, 499}";
},
{
name = igora;
transform = "{1, 0, 0, 1, 288, 0}";
},
{
name = igora;
transform = "{1, 0, 0, 1, -40, -1}";
},
{
name = ndol;
}
);
layerId = "76F08205-C3C5-4E97-8429-CDDB50136507";
width = 682;
}
);
leftMetricsKey = "=n";
rightMetricsKey = "=n";
unicode = 0075;
},
{
glyphname = u.init;
lastChange = "2016-08-04 23:19:57 +0000";
layers = (
{
components = (
{
name = "n-gora";
transform = "{-1, 0, 0, -1, 610, 499}";
},
{
name = igora;
transform = "{1, 0, 0, 1, 288, 0}";
},
{
name = igora;
transform = "{1, 0, 0, 1, -40, -1}";
},
{
name = ndol;
}
);
layerId = "76F08205-C3C5-4E97-8429-CDDB50136507";
width = 682;
},
{
associatedMasterId = "76F08205-C3C5-4E97-8429-CDDB50136507";
layerId = "0BF2686C-FC2C-48BF-9915-4586DEC31AB1";
name = "Bold Jul 16 16, 20:47";
paths = (
{
closed = 1;
nodes = (
"269.946 58.97 OFFCURVE",
"335.12 139.118 OFFCURVE",
"384.195 234.433 CURVE",
"347 28 LINE",
"513 0 LINE",
"634 85 OFFCURVE",
"716 214 OFFCURVE",
"767 369 CURVE",
"755 394 LINE",
"710 246 OFFCURVE",
"623 104 OFFCURVE",
"518 29 CURVE",
"598 473 LINE",
"432 501 LINE",
"397.823 310.366 LINE",
"349.146 194.253 OFFCURVE",
"275.966 89.69 OFFCURVE",
"191 29 CURVE",
"271 473 LINE",
"105 501 LINE",
"20 28 LINE",
"186 0 LINE"
);
}
);
width = 600;
}
);
leftMetricsKey = "=n";
rightMetricsKey = "=n";
},
{
glyphname = u.fina;
lastChange = "2016-08-04 23:20:04 +0000";
layers = (
{
components = (
{
name = "n-gora";
transform = "{-1, 0, 0, -1, 610, 499}";
},
{
name = igora;
transform = "{1, 0, 0, 1, 288, 0}";
},
{
name = igora;
transform = "{1, 0, 0, 1, -40, -1}";
},
{
name = nogakoniec;
}
);
layerId = "76F08205-C3C5-4E97-8429-CDDB50136507";
width = 667;
},
{
associatedMasterId = "76F08205-C3C5-4E97-8429-CDDB50136507";
layerId = "D6512C7C-5D57-454A-B2A7-6D634CC9FD40";
name = "Bold Jul 16 16, 20:47";
paths = (
{
closed = 1;
nodes = (
"269.946 58.97 OFFCURVE",
"335.12 139.118 OFFCURVE",
"384.195 234.433 CURVE",
"347 28 LINE",
"513 0 LINE",
"634 85 OFFCURVE",
"716 214 OFFCURVE",
"767 369 CURVE",
"755 394 LINE",
"710 246 OFFCURVE",
"623 104 OFFCURVE",
"518 29 CURVE",
"598 473 LINE",
"432 501 LINE",
"397.823 310.366 LINE",
"349.146 194.253 OFFCURVE",
"275.966 89.69 OFFCURVE",
"191 29 CURVE",
"271 473 LINE",
"105 501 LINE",
"20 28 LINE",
"186 0 LINE"
);
}
);
width = 600;
}
);
leftMetricsKey = "=n";
rightMetricsKey = "=n.fina";
},
{
glyphname = u.isol;
lastChange = "2016-08-04 23:20:12 +0000";
layers = (
{
components = (
{
name = "n-gora";
transform = "{-1, 0, 0, -1, 610, 499}";
},
{
name = igora;
transform = "{1, 0, 0, 1, 288, 0}";
},
{
name = igora;
transform = "{1, 0, 0, 1, -40, -1}";
},
{
name = nogakoniec;
}
);
layerId = "76F08205-C3C5-4E97-8429-CDDB50136507";
width = 667;
},
{
associatedMasterId = "76F08205-C3C5-4E97-8429-CDDB50136507";
layerId = "31268B26-E7B7-4F19-AA87-DC6CB98196F5";
name = "Bold Jul 16 16, 20:48";
paths = (
{
closed = 1;
nodes = (
"269.946 58.97 OFFCURVE",
"335.12 139.118 OFFCURVE",
"384.195 234.433 CURVE",
"347 28 LINE",
"513 0 LINE",
"634 85 OFFCURVE",
"716 214 OFFCURVE",
"767 369 CURVE",
"755 394 LINE",
"710 246 OFFCURVE",
"623 104 OFFCURVE",
"518 29 CURVE",
"598 473 LINE",
"432 501 LINE",
"397.823 310.366 LINE",
"349.146 194.253 OFFCURVE",
"275.966 89.69 OFFCURVE",
"191 29 CURVE",
"271 473 LINE",
"105 501 LINE",
"20 28 LINE",
"186 0 LINE"
);
}
);
width = 787;
}
);
leftMetricsKey = "=n";
rightMetricsKey = "=n.fina";
},
{
glyphname = v;
lastChange = "2016-08-04 23:20:17 +0000";
layers = (
{
associatedMasterId = "76F08205-C3C5-4E97-8429-CDDB50136507";
layerId = "E5B9F96E-A95C-49E3-9852-0F83AA424B45";
name = "Bold Jul 16 16, 11:21";
paths = (
{
closed = 1;
nodes = (
"184 0 LINE",
"323 91 OFFCURVE",
"485 308 OFFCURVE",
"485 427 CURVE SMOOTH",
"485 479 OFFCURVE",
"450 500 OFFCURVE",
"409 500 CURVE SMOOTH",
"365 500 OFFCURVE",
"340 465 OFFCURVE",
"340 431 CURVE SMOOTH",
"340 373 OFFCURVE",
"411 340 OFFCURVE",
"464 393 CURVE",
"464 393 OFFCURVE",
"398 178 OFFCURVE",
"189 29 CURVE",
"229 250 LINE",
"58 250 LINE",
"18 28 LINE"
);
},
{
closed = 1;
nodes = (
"58 250 LINE",
"229 250 LINE",
"269 473 LINE",
"103 501 LINE"
);
}
);
width = 495;
},
{
components = (
{
name = igora;
transform = "{1, 0, 0, 1, -57, -1}";
}
);
layerId = "76F08205-C3C5-4E97-8429-CDDB50136507";
paths = (
{
closed = 1;
nodes = (
"300 -2 OFFCURVE",
"521 319 OFFCURVE",
"476 442 CURVE SMOOTH",
"459 489 OFFCURVE",
"411 511 OFFCURVE",
"367 496 CURVE SMOOTH",
"324 481 OFFCURVE",
"301 431 OFFCURVE",
"317 388 CURVE SMOOTH",
"333 345 OFFCURVE",
"382 321 OFFCURVE",
"425 338 CURVE SMOOTH",
"435 342 OFFCURVE",
"443 346 OFFCURVE",
"443 346 CURVE",
"422 241 OFFCURVE",
"280 61 OFFCURVE",
"170 33 CURVE",
"144 -2 LINE"
);
},
{
closed = 1;
nodes = (
"170 33 LINE",
"210 249 LINE",
"39 249 LINE",
"19 137 LINE SMOOTH",
"4 50 OFFCURVE",
"50 -2 OFFCURVE",
"144 -2 CURVE"
);
}
);
width = 476;
}
);
leftMetricsKey = "=n";
unicode = 0076;
},
{
glyphname = v.init;
lastChange = "2016-08-04 23:20:37 +0000";
layers = (
{
components = (
{
name = igora;
transform = "{1, 0, 0, 1, -57, -1}";
}
);
layerId = "76F08205-C3C5-4E97-8429-CDDB50136507";
paths = (
{
closed = 1;
nodes = (
"300 -2 OFFCURVE",
"521 319 OFFCURVE",
"476 442 CURVE SMOOTH",
"459 489 OFFCURVE",
"411 511 OFFCURVE",
"367 496 CURVE SMOOTH",
"324 481 OFFCURVE",
"301 431 OFFCURVE",
"317 388 CURVE SMOOTH",
"333 345 OFFCURVE",
"382 321 OFFCURVE",
"425 338 CURVE SMOOTH",
"435 342 OFFCURVE",
"443 346 OFFCURVE",
"443 346 CURVE",
"422 241 OFFCURVE",
"280 61 OFFCURVE",
"170 33 CURVE",
"144 -2 LINE"
);
},
{
closed = 1;
nodes = (
"170 33 LINE",
"210 249 LINE",
"39 249 LINE",
"19 137 LINE SMOOTH",
"3 50 OFFCURVE",
"50 -2 OFFCURVE",
"144 -2 CURVE"
);
}
);
width = 476;
},
{
associatedMasterId = "76F08205-C3C5-4E97-8429-CDDB50136507";
layerId = "0884BE7A-10F8-4D69-9E61-206E601CC747";
name = "Bold Jul 16 16, 20:48";
paths = (
{
closed = 1;
nodes = (
"184 0 LINE",
"323 91 OFFCURVE",
"485 308 OFFCURVE",
"485 427 CURVE SMOOTH",
"485 479 OFFCURVE",
"450 500 OFFCURVE",
"409 500 CURVE SMOOTH",
"365 500 OFFCURVE",
"340 465 OFFCURVE",
"340 431 CURVE SMOOTH",
"340 373 OFFCURVE",
"411 340 OFFCURVE",
"464 393 CURVE",
"464 393 OFFCURVE",
"398 178 OFFCURVE",
"189 29 CURVE",
"229 250 LINE",
"58 250 LINE",
"18 28 LINE"
);
},
{
closed = 1;
nodes = (
"58 250 LINE",
"229 250 LINE",
"269 473 LINE",
"103 501 LINE"
);
}
);
width = 600;
}
);
leftMetricsKey = "=n";
rightMetricsKey = "=v";
},
{
glyphname = v.fina;
lastChange = "2016-08-04 23:20:45 +0000";
layers = (
{
components = (
{
name = igora;
transform = "{1, 0, 0, 1, -57, -1}";
}
);
layerId = "76F08205-C3C5-4E97-8429-CDDB50136507";
paths = (
{
closed = 1;
nodes = (
"300 -2 OFFCURVE",
"521 319 OFFCURVE",
"476 442 CURVE SMOOTH",
"459 489 OFFCURVE",
"411 511 OFFCURVE",
"367 496 CURVE SMOOTH",
"324 481 OFFCURVE",
"301 431 OFFCURVE",
"317 388 CURVE SMOOTH",
"333 345 OFFCURVE",
"382 321 OFFCURVE",
"425 338 CURVE SMOOTH",
"435 342 OFFCURVE",
"443 346 OFFCURVE",
"443 346 CURVE",
"422 241 OFFCURVE",
"280 61 OFFCURVE",
"170 33 CURVE",
"144 -2 LINE"
);
},
{
closed = 1;
nodes = (
"170 33 LINE",
"210 249 LINE",
"39 249 LINE",
"19 137 LINE SMOOTH",
"3 50 OFFCURVE",
"50 -2 OFFCURVE",
"144 -2 CURVE"
);
}
);
width = 476;
},
{
associatedMasterId = "76F08205-C3C5-4E97-8429-CDDB50136507";
layerId = "0EA65F9C-3502-4E63-90AA-A80A4648CFB0";
name = "Bold Jul 16 16, 20:48";
paths = (
{
closed = 1;
nodes = (
"184 0 LINE",
"323 91 OFFCURVE",
"485 308 OFFCURVE",
"485 427 CURVE SMOOTH",
"485 479 OFFCURVE",
"450 500 OFFCURVE",
"409 500 CURVE SMOOTH",
"365 500 OFFCURVE",
"340 465 OFFCURVE",
"340 431 CURVE SMOOTH",
"340 373 OFFCURVE",
"411 340 OFFCURVE",
"464 393 CURVE",
"464 393 OFFCURVE",
"398 178 OFFCURVE",
"189 29 CURVE",
"229 250 LINE",
"58 250 LINE",
"18 28 LINE"
);
},
{
closed = 1;
nodes = (
"58 250 LINE",
"229 250 LINE",
"269 473 LINE",
"103 501 LINE"
);
}
);
width = 600;
}
);
leftMetricsKey = "=n";
rightMetricsKey = "=v";
},
{
glyphname = v.isol;
lastChange = "2016-08-04 23:20:53 +0000";
layers = (
{
components = (
{
name = igora;
transform = "{1, 0, 0, 1, -57, -1}";
}
);
layerId = "76F08205-C3C5-4E97-8429-CDDB50136507";
paths = (
{
closed = 1;
nodes = (
"300 -2 OFFCURVE",
"521 319 OFFCURVE",
"476 442 CURVE SMOOTH",
"459 489 OFFCURVE",
"411 511 OFFCURVE",
"367 496 CURVE SMOOTH",
"324 481 OFFCURVE",
"301 431 OFFCURVE",
"317 388 CURVE SMOOTH",
"333 345 OFFCURVE",
"382 321 OFFCURVE",
"425 338 CURVE SMOOTH",
"435 342 OFFCURVE",
"443 346 OFFCURVE",
"443 346 CURVE",
"422 241 OFFCURVE",
"280 61 OFFCURVE",
"170 33 CURVE",
"144 -2 LINE"
);
},
{
closed = 1;
nodes = (
"170 33 LINE",
"210 249 LINE",
"39 249 LINE",
"19 137 LINE SMOOTH",
"3 50 OFFCURVE",
"50 -2 OFFCURVE",
"144 -2 CURVE"
);
}
);
width = 476;
},
{
associatedMasterId = "76F08205-C3C5-4E97-8429-CDDB50136507";
layerId = "7F0AB38C-CF9E-4F89-A60F-489A69276D48";
name = "Bold Jul 16 16, 20:48";
paths = (
{
closed = 1;
nodes = (
"184 0 LINE",
"323 91 OFFCURVE",
"485 308 OFFCURVE",
"485 427 CURVE SMOOTH",
"485 479 OFFCURVE",
"450 500 OFFCURVE",
"409 500 CURVE SMOOTH",
"365 500 OFFCURVE",
"340 465 OFFCURVE",
"340 431 CURVE SMOOTH",
"340 373 OFFCURVE",
"411 340 OFFCURVE",
"464 393 CURVE",
"464 393 OFFCURVE",
"398 178 OFFCURVE",
"189 29 CURVE",
"229 250 LINE",
"58 250 LINE",
"18 28 LINE"
);
},
{
closed = 1;
nodes = (
"58 250 LINE",
"229 250 LINE",
"269 473 LINE",
"103 501 LINE"
);
}
);
width = 600;
}
);
leftMetricsKey = "=n";
rightMetricsKey = "=v";
},
{
glyphname = w;
lastChange = "2016-08-04 23:21:05 +0000";
layers = (
{
associatedMasterId = "76F08205-C3C5-4E97-8429-CDDB50136507";
layerId = "1785D726-8AF0-4CAB-BA2E-1F41543DB6E7";
name = "Bold Jul 15 16, 14:30";
paths = (
{
closed = 1;
nodes = (
"385 250 LINE",
"556 250 LINE",
"596 473 LINE",
"430 501 LINE"
);
},
{
closed = 1;
nodes = (
"58 250 LINE",
"229 250 LINE",
"269 473 LINE",
"103 501 LINE"
);
},
{
closed = 1;
nodes = (
"381 245 OFFCURVE",
"293 27 OFFCURVE",
"189 28 CURVE",
"229 250 LINE",
"58 250 LINE",
"38 137 LINE SMOOTH",
"23 50 OFFCURVE",
"69 -2 OFFCURVE",
"163 -2 CURVE",
"323 -5 OFFCURVE",
"387 213 OFFCURVE",
"438 368 CURVE",
"426 393 LINE"
);
},
{
closed = 1;
nodes = (
"350 50 OFFCURVE",
"396 -2 OFFCURVE",
"474 -3 CURVE SMOOTH",
"635 -5 OFFCURVE",
"810 258 OFFCURVE",
"810 427 CURVE SMOOTH",
"810 479 OFFCURVE",
"775 500 OFFCURVE",
"734 500 CURVE SMOOTH",
"690 500 OFFCURVE",
"665 465 OFFCURVE",
"665 431 CURVE SMOOTH",
"665 373 OFFCURVE",
"731 340 OFFCURVE",
"784 393 CURVE",
"769 272 OFFCURVE",
"652 72 OFFCURVE",
"516 28 CURVE",
"556 250 LINE",
"385 250 LINE",
"365 137 LINE SMOOTH"
);
}
);
width = 792;
},
{
associatedMasterId = "76F08205-C3C5-4E97-8429-CDDB50136507";
layerId = "0B46F329-F0D0-458C-8F2D-A0CEE41AA4CF";
name = "Bold Jul 16 16, 20:29";
paths = (
{
closed = 1;
nodes = (
"511 0 LINE",
"650 91 OFFCURVE",
"812 308 OFFCURVE",
"812 427 CURVE SMOOTH",
"812 479 OFFCURVE",
"777 500 OFFCURVE",
"736 500 CURVE SMOOTH",
"692 500 OFFCURVE",
"667 465 OFFCURVE",
"667 431 CURVE SMOOTH",
"667 373 OFFCURVE",
"738 340 OFFCURVE",
"791 393 CURVE",
"791 393 OFFCURVE",
"725 178 OFFCURVE",
"516 29 CURVE",
"556 250 LINE",
"385 250 LINE",
"345 28 LINE"
);
},
{
closed = 1;
nodes = (
"385 250 LINE",
"556 250 LINE",
"596 473 LINE",
"430 501 LINE"
);
},
{
closed = 1;
nodes = (
"381 246 OFFCURVE",
"294 104 OFFCURVE",
"189 29 CURVE",
"229 250 LINE",
"58 250 LINE",
"18 28 LINE",
"184 0 LINE",
"305 85 OFFCURVE",
"387 214 OFFCURVE",
"438 369 CURVE",
"426 394 LINE"
);
},
{
closed = 1;
nodes = (
"58 250 LINE",
"229 250 LINE",
"269 473 LINE",
"103 501 LINE"
);
}
);
width = 792;
},
{
components = (
{
name = "n-gora";
transform = "{-1, 0, 0, -1, 610, 498}";
},
{
name = igora;
transform = "{1, 0, 0, 1, 288, -1}";
},
{
name = igora;
transform = "{1, 0, 0, 1, -40, -2}";
}
);
layerId = "76F08205-C3C5-4E97-8429-CDDB50136507";
paths = (
{
closed = 1;
nodes = (
"645 -3 OFFCURVE",
"866 318 OFFCURVE",
"821 441 CURVE SMOOTH",
"804 488 OFFCURVE",
"756 510 OFFCURVE",
"712 495 CURVE SMOOTH",
"669 480 OFFCURVE",
"646 430 OFFCURVE",
"662 387 CURVE SMOOTH",
"678 344 OFFCURVE",
"727 320 OFFCURVE",
"770 337 CURVE SMOOTH",
"780 341 OFFCURVE",
"788 345 OFFCURVE",
"788 345 CURVE",
"767 240 OFFCURVE",
"625 55 OFFCURVE",
"515 27 CURVE",
"489 -3 LINE"
);
},
{
closed = 1;
nodes = (
"515 27 LINE",
"555 249 LINE",
"384 249 LINE",
"364 136 LINE SMOOTH",
"349 49 OFFCURVE",
"395 -3 OFFCURVE",
"489 -3 CURVE"
);
}
);
width = 821;
}
);
leftMetricsKey = "=n";
rightKerningGroup = w;
rightMetricsKey = "=v";
unicode = 0077;
},
{
glyphname = w.init;
lastChange = "2016-08-04 23:21:11 +0000";
layers = (
{
components = (
{
name = "n-gora";
transform = "{-1, 0, 0, -1, 610, 498}";
},
{
name = igora;
transform = "{1, 0, 0, 1, 288, -1}";
},
{
name = igora;
transform = "{1, 0, 0, 1, -40, -2}";
}
);
layerId = "76F08205-C3C5-4E97-8429-CDDB50136507";
paths = (
{
closed = 1;
nodes = (
"645 -3 OFFCURVE",
"866 318 OFFCURVE",
"821 441 CURVE SMOOTH",
"804 488 OFFCURVE",
"756 510 OFFCURVE",
"712 495 CURVE SMOOTH",
"669 480 OFFCURVE",
"646 430 OFFCURVE",
"662 387 CURVE SMOOTH",
"678 344 OFFCURVE",
"727 320 OFFCURVE",
"770 337 CURVE SMOOTH",
"780 341 OFFCURVE",
"788 345 OFFCURVE",
"788 345 CURVE",
"767 240 OFFCURVE",
"625 55 OFFCURVE",
"515 27 CURVE",
"489 -3 LINE"
);
},
{
closed = 1;
nodes = (
"515 27 LINE",
"555 249 LINE",
"384 249 LINE",
"364 136 LINE SMOOTH",
"349 49 OFFCURVE",
"395 -3 OFFCURVE",
"489 -3 CURVE"
);
}
);
width = 821;
},
{
associatedMasterId = "76F08205-C3C5-4E97-8429-CDDB50136507";
components = (
{
name = igora;
transform = "{1, 0, 0, 1, 281, 0}";
},
{
name = "wyscie-medial";
transform = "{1, 0, 0, 1, -283, 0}";
},
{
name = igora;
transform = "{1, 0, 0, 1, -46, 0}";
}
);
layerId = "7F5091B1-09D5-4E83-B401-968379B6E76E";
name = "Bold Jul 16 16, 20:48";
paths = (
{
closed = 1;
nodes = (
"503 0 LINE",
"632 91 OFFCURVE",
"804 298 OFFCURVE",
"804 419 CURVE SMOOTH",
"804 469 OFFCURVE",
"775 500 OFFCURVE",
"732 500 CURVE SMOOTH",
"689 500 OFFCURVE",
"653 466 OFFCURVE",
"653 418 CURVE SMOOTH",
"653 364 OFFCURVE",
"698 338 OFFCURVE",
"758 350 CURVE",
"758 350 OFFCURVE",
"707 203 OFFCURVE",
"508 29 CURVE",
"548 250 LINE",
"377 250 LINE",
"337 28 LINE"
);
}
);
width = 784;
}
);
leftMetricsKey = "=n";
rightMetricsKey = "=v";
},
{
glyphname = w.fina;
lastChange = "2016-08-04 23:21:24 +0000";
layers = (
{
components = (
{
name = "n-gora";
transform = "{-1, 0, 0, -1, 610, 498}";
},
{
name = igora;
transform = "{1, 0, 0, 1, 288, -1}";
},
{
name = igora;
transform = "{1, 0, 0, 1, -40, -2}";
}
);
layerId = "76F08205-C3C5-4E97-8429-CDDB50136507";
paths = (
{
closed = 1;
nodes = (
"645 -3 OFFCURVE",
"866 318 OFFCURVE",
"821 441 CURVE SMOOTH",
"804 488 OFFCURVE",
"756 510 OFFCURVE",
"712 495 CURVE SMOOTH",
"669 480 OFFCURVE",
"646 430 OFFCURVE",
"662 387 CURVE SMOOTH",
"678 344 OFFCURVE",
"727 320 OFFCURVE",
"770 337 CURVE SMOOTH",
"780 341 OFFCURVE",
"788 345 OFFCURVE",
"788 345 CURVE",
"767 240 OFFCURVE",
"625 55 OFFCURVE",
"515 27 CURVE",
"489 -3 LINE"
);
},
{
closed = 1;
nodes = (
"515 27 LINE",
"555 249 LINE",
"384 249 LINE",
"364 136 LINE SMOOTH",
"349 49 OFFCURVE",
"395 -3 OFFCURVE",
"489 -3 CURVE"
);
}
);
width = 821;
},
{
associatedMasterId = "76F08205-C3C5-4E97-8429-CDDB50136507";
components = (
{
name = igora;
transform = "{1, 0, 0, 1, 281, 0}";
},
{
name = "wyscie-medial";
transform = "{1, 0, 0, 1, -283, 0}";
},
{
name = igora;
transform = "{1, 0, 0, 1, -46, 0}";
}
);
layerId = "CE8AE10C-81D9-4178-B62C-CFC3B9432C3C";
name = "Bold Jul 16 16, 20:48";
paths = (
{
closed = 1;
nodes = (
"503 0 LINE",
"632 91 OFFCURVE",
"804 298 OFFCURVE",
"804 419 CURVE SMOOTH",
"804 469 OFFCURVE",
"775 500 OFFCURVE",
"732 500 CURVE SMOOTH",
"689 500 OFFCURVE",
"653 466 OFFCURVE",
"653 418 CURVE SMOOTH",
"653 364 OFFCURVE",
"698 338 OFFCURVE",
"758 350 CURVE",
"758 350 OFFCURVE",
"707 203 OFFCURVE",
"508 29 CURVE",
"548 250 LINE",
"377 250 LINE",
"337 28 LINE"
);
}
);
width = 814;
}
);
leftMetricsKey = "=n";
rightMetricsKey = "=v";
},
{
glyphname = w.isol;
lastChange = "2016-08-04 23:21:30 +0000";
layers = (
{
components = (
{
name = "n-gora";
transform = "{-1, 0, 0, -1, 610, 498}";
},
{
name = igora;
transform = "{1, 0, 0, 1, 288, -1}";
},
{
name = igora;
transform = "{1, 0, 0, 1, -40, -2}";
}
);
layerId = "76F08205-C3C5-4E97-8429-CDDB50136507";
paths = (
{
closed = 1;
nodes = (
"645 -3 OFFCURVE",
"866 318 OFFCURVE",
"821 441 CURVE SMOOTH",
"804 488 OFFCURVE",
"756 510 OFFCURVE",
"712 495 CURVE SMOOTH",
"669 480 OFFCURVE",
"646 430 OFFCURVE",
"662 387 CURVE SMOOTH",
"678 344 OFFCURVE",
"727 320 OFFCURVE",
"770 337 CURVE SMOOTH",
"780 341 OFFCURVE",
"788 345 OFFCURVE",
"788 345 CURVE",
"767 240 OFFCURVE",
"625 55 OFFCURVE",
"515 27 CURVE",
"489 -3 LINE"
);
},
{
closed = 1;
nodes = (
"515 27 LINE",
"555 249 LINE",
"384 249 LINE",
"364 136 LINE SMOOTH",
"349 49 OFFCURVE",
"395 -3 OFFCURVE",
"489 -3 CURVE"
);
}
);
width = 821;
},
{
associatedMasterId = "76F08205-C3C5-4E97-8429-CDDB50136507";
components = (
{
name = igora;
transform = "{1, 0, 0, 1, 281, 0}";
},
{
name = "wyscie-medial";
transform = "{1, 0, 0, 1, -283, 0}";
},
{
name = igora;
transform = "{1, 0, 0, 1, -46, 0}";
}
);
layerId = "1D8047D3-F39A-45EE-855F-85B2D927E8ED";
name = "Bold Jul 16 16, 20:48";
paths = (
{
closed = 1;
nodes = (
"503 0 LINE",
"632 91 OFFCURVE",
"804 298 OFFCURVE",
"804 419 CURVE SMOOTH",
"804 469 OFFCURVE",
"775 500 OFFCURVE",
"732 500 CURVE SMOOTH",
"689 500 OFFCURVE",
"653 466 OFFCURVE",
"653 418 CURVE SMOOTH",
"653 364 OFFCURVE",
"698 338 OFFCURVE",
"758 350 CURVE",
"758 350 OFFCURVE",
"707 203 OFFCURVE",
"508 29 CURVE",
"548 250 LINE",
"377 250 LINE",
"337 28 LINE"
);
}
);
width = 814;
}
);
leftMetricsKey = "=n";
rightMetricsKey = "=v";
},
{
glyphname = x;
lastChange = "2016-08-06 01:36:56 +0000";
layers = (
{
guideLines = (
{
angle = -61.069;
position = "{577, 39}";
}
);
layerId = "76F08205-C3C5-4E97-8429-CDDB50136507";
paths = (
{
closed = 1;
nodes = (
"786 363 LINE",
"680 46 OFFCURVE",
"579 35 OFFCURVE",
"579 35 CURVE",
"396 415 LINE SMOOTH",
"369 471 OFFCURVE",
"312 505 OFFCURVE",
"241 505 CURVE SMOOTH",
"129 505 OFFCURVE",
"95 406 OFFCURVE",
"80 363 CURVE",
"100 348 LINE",
"113 387 OFFCURVE",
"133 447 OFFCURVE",
"186 470 CURVE",
"371 85 LINE SMOOTH",
"398 29 OFFCURVE",
"455 -5 OFFCURVE",
"513 -5 CURVE SMOOTH",
"583 -5 OFFCURVE",
"703 15 OFFCURVE",
"806 348 CURVE"
);
},
{
closed = 1;
nodes = (
"439 306 LINE",
"471 358 OFFCURVE",
"481 386 OFFCURVE",
"534 447 CURVE",
"534 447 OFFCURVE",
"532 436 OFFCURVE",
"532 424 CURVE SMOOTH",
"532 370 OFFCURVE",
"570 337 OFFCURVE",
"614 337 CURVE SMOOTH",
"662 337 OFFCURVE",
"700 375 OFFCURVE",
"700 421 CURVE SMOOTH",
"700 467 OFFCURVE",
"662 505 OFFCURVE",
"609 505 CURVE SMOOTH",
"522 505 OFFCURVE",
"466 407 OFFCURVE",
"410 306 CURVE"
);
},
{
closed = 1;
nodes = (
"321 194 LINE",
"289 142 OFFCURVE",
"279 114 OFFCURVE",
"226 53 CURVE",
"226 53 OFFCURVE",
"228 64 OFFCURVE",
"228 76 CURVE SMOOTH",
"228 130 OFFCURVE",
"190 163 OFFCURVE",
"146 163 CURVE SMOOTH",
"98 163 OFFCURVE",
"60 125 OFFCURVE",
"60 79 CURVE SMOOTH",
"60 33 OFFCURVE",
"98 -5 OFFCURVE",
"151 -5 CURVE SMOOTH",
"238 -5 OFFCURVE",
"294 93 OFFCURVE",
"350 194 CURVE"
);
}
);
width = 706;
}
);
rightMetricsKey = "=n";
unicode = 0078;
},
{
glyphname = x.fina;
lastChange = "2016-08-05 21:42:23 +0000";
layers = (
{
layerId = "76F08205-C3C5-4E97-8429-CDDB50136507";
paths = (
{
closed = 1;
nodes = (
"678 126 LINE",
"620 40 OFFCURVE",
"579 35 OFFCURVE",
"579 35 CURVE",
"396 415 LINE SMOOTH",
"369 471 OFFCURVE",
"312 505 OFFCURVE",
"241 505 CURVE SMOOTH",
"129 505 OFFCURVE",
"95 406 OFFCURVE",
"80 363 CURVE",
"100 348 LINE",
"113 387 OFFCURVE",
"133 447 OFFCURVE",
"186 470 CURVE",
"371 85 LINE SMOOTH",
"398 29 OFFCURVE",
"455 -5 OFFCURVE",
"513 -5 CURVE SMOOTH",
"559 -5 OFFCURVE",
"628 4 OFFCURVE",
"699 107 CURVE"
);
},
{
closed = 1;
nodes = (
"439 306 LINE",
"471 358 OFFCURVE",
"481 386 OFFCURVE",
"534 447 CURVE",
"534 447 OFFCURVE",
"532 436 OFFCURVE",
"532 424 CURVE SMOOTH",
"532 370 OFFCURVE",
"570 337 OFFCURVE",
"614 337 CURVE SMOOTH",
"662 337 OFFCURVE",
"700 375 OFFCURVE",
"700 421 CURVE SMOOTH",
"700 467 OFFCURVE",
"662 505 OFFCURVE",
"609 505 CURVE SMOOTH",
"522 505 OFFCURVE",
"466 407 OFFCURVE",
"410 306 CURVE"
);
},
{
closed = 1;
nodes = (
"321 194 LINE",
"289 142 OFFCURVE",
"279 114 OFFCURVE",
"226 53 CURVE",
"226 53 OFFCURVE",
"228 64 OFFCURVE",
"228 76 CURVE SMOOTH",
"228 130 OFFCURVE",
"190 163 OFFCURVE",
"146 163 CURVE SMOOTH",
"98 163 OFFCURVE",
"60 125 OFFCURVE",
"60 79 CURVE SMOOTH",
"60 33 OFFCURVE",
"98 -5 OFFCURVE",
"151 -5 CURVE SMOOTH",
"238 -5 OFFCURVE",
"294 93 OFFCURVE",
"350 194 CURVE"
);
}
);
width = 720;
}
);
},
{
glyphname = y;
lastChange = "2016-08-06 01:30:37 +0000";
layers = (
{
components = (
{
name = igora;
transform = "{1, 0, 0, 1, -37, 0}";
},
{
name = "n-gora";
transform = "{-1, 0, 0, -1, 613, 500}";
},
{
name = glaska;
transform = "{1, 0, 0, 1, -7, 0}";
}
);
layerId = "76F08205-C3C5-4E97-8429-CDDB50136507";
width = 620;
},
{
associatedMasterId = "76F08205-C3C5-4E97-8429-CDDB50136507";
layerId = "689802DD-D751-45F6-B866-41C48CAB560A";
name = "Bold Jul 15 16, 23:01";
paths = (
{
closed = 1;
nodes = (
"429 500 LINE",
"327 -73 LINE",
"497 -73 LINE",
"592 470 LINE"
);
},
{
closed = 1;
nodes = (
"10 -279 OFFCURVE",
"98 -323 OFFCURVE",
"190 -323 CURVE SMOOTH",
"327 -323 OFFCURVE",
"469 -237 OFFCURVE",
"497 -73 CURVE",
"327 -73 LINE",
"293 -249 OFFCURVE",
"243 -304 OFFCURVE",
"171 -304 CURVE SMOOTH",
"123 -304 OFFCURVE",
"91 -279 OFFCURVE",
"91 -279 CURVE SMOOTH",
"91 -279 OFFCURVE",
"145 -271 OFFCURVE",
"145 -213 CURVE SMOOTH",
"145 -175 OFFCURVE",
"118 -148 OFFCURVE",
"77 -148 CURVE SMOOTH",
"37 -148 OFFCURVE",
"10 -175 OFFCURVE",
"10 -217 CURVE SMOOTH"
);
},
{
closed = 1;
nodes = (
"380 246 OFFCURVE",
"293 104 OFFCURVE",
"188 29 CURVE",
"228 250 LINE",
"57 250 LINE",
"17 28 LINE",
"183 0 LINE",
"304 85 OFFCURVE",
"386 214 OFFCURVE",
"437 369 CURVE",
"425 394 LINE"
);
},
{
closed = 1;
nodes = (
"57 250 LINE",
"228 250 LINE",
"268 473 LINE",
"102 501 LINE"
);
}
);
width = 602;
visible = 1;
},
{
associatedMasterId = "76F08205-C3C5-4E97-8429-CDDB50136507";
components = (
{
name = igora;
transform = "{1, 0, 0, 1, -37, 0}";
},
{
name = "n-gora";
transform = "{-1, 0, 0, -1, 613, 500}";
},
{
name = glaska;
transform = "{1, 0, 0, 1, -7, 0}";
}
);
layerId = "AD4174D0-C3CB-4A98-9F77-70D1B0D05C2E";
name = "Bold Aug 6 16, 00:16";
width = 640;
}
);
leftMetricsKey = "=n-10";
rightMetricsKey = "=g";
unicode = 0079;
},
{
glyphname = y.init;
lastChange = "2016-08-06 01:36:31 +0000";
layers = (
{
components = (
{
name = igora;
transform = "{1, 0, 0, 1, -27, 0}";
},
{
name = "n-gora";
transform = "{-1, 0, 0, -1, 623, 500}";
},
{
name = glaska;
transform = "{1, 0, 0, 1, 3, 0}";
}
);
layerId = "76F08205-C3C5-4E97-8429-CDDB50136507";
width = 630;
},
{
associatedMasterId = "76F08205-C3C5-4E97-8429-CDDB50136507";
layerId = "B7042971-5BB5-4548-A5CC-575343C2DD5B";
name = "Bold Jul 16 16, 20:48";
paths = (
{
closed = 1;
nodes = (
"439 500 LINE",
"337 -73 LINE",
"507 -73 LINE",
"602 470 LINE"
);
},
{
closed = 1;
nodes = (
"20 -279 OFFCURVE",
"108 -323 OFFCURVE",
"200 -323 CURVE SMOOTH",
"337 -323 OFFCURVE",
"479 -237 OFFCURVE",
"507 -73 CURVE",
"337 -73 LINE",
"303 -249 OFFCURVE",
"253 -304 OFFCURVE",
"181 -304 CURVE SMOOTH",
"133 -304 OFFCURVE",
"101 -279 OFFCURVE",
"101 -279 CURVE SMOOTH",
"101 -279 OFFCURVE",
"155 -271 OFFCURVE",
"155 -213 CURVE SMOOTH",
"155 -175 OFFCURVE",
"128 -148 OFFCURVE",
"87 -148 CURVE SMOOTH",
"47 -148 OFFCURVE",
"20 -175 OFFCURVE",
"20 -217 CURVE SMOOTH"
);
},
{
closed = 1;
nodes = (
"390 246 OFFCURVE",
"303 104 OFFCURVE",
"198 29 CURVE",
"238 250 LINE",
"67 250 LINE",
"27 28 LINE",
"193 0 LINE",
"314 85 OFFCURVE",
"396 214 OFFCURVE",
"447 369 CURVE",
"435 394 LINE"
);
},
{
closed = 1;
nodes = (
"67 250 LINE",
"238 250 LINE",
"278 473 LINE",
"112 501 LINE"
);
}
);
width = 600;
}
);
leftMetricsKey = "=n";
rightMetricsKey = "=g";
},
{
glyphname = y.fina;
lastChange = "2016-08-06 01:36:56 +0000";
layers = (
{
components = (
{
name = igora;
transform = "{1, 0, 0, 1, -37, 0}";
},
{
name = "n-gora";
transform = "{-1, 0, 0, -1, 613, 500}";
},
{
name = glaska;
transform = "{1, 0, 0, 1, -7, 0}";
}
);
layerId = "76F08205-C3C5-4E97-8429-CDDB50136507";
width = 620;
},
{
associatedMasterId = "76F08205-C3C5-4E97-8429-CDDB50136507";
layerId = "333FFD40-DE1A-46C3-B812-BF759CE56E11";
name = "Bold Jul 15 16, 14:31";
paths = (
{
closed = 1;
nodes = (
"429 500 LINE",
"327 -73 LINE",
"497 -73 LINE",
"592 470 LINE"
);
},
{
closed = 1;
nodes = (
"10 -279 OFFCURVE",
"98 -323 OFFCURVE",
"190 -323 CURVE SMOOTH",
"327 -323 OFFCURVE",
"469 -237 OFFCURVE",
"497 -73 CURVE",
"327 -73 LINE",
"293 -249 OFFCURVE",
"243 -304 OFFCURVE",
"171 -304 CURVE SMOOTH",
"123 -304 OFFCURVE",
"91 -279 OFFCURVE",
"91 -279 CURVE SMOOTH",
"91 -279 OFFCURVE",
"145 -271 OFFCURVE",
"145 -213 CURVE SMOOTH",
"145 -175 OFFCURVE",
"118 -148 OFFCURVE",
"77 -148 CURVE SMOOTH",
"37 -148 OFFCURVE",
"10 -175 OFFCURVE",
"10 -217 CURVE SMOOTH"
);
},
{
closed = 1;
nodes = (
"57 250 LINE",
"228 250 LINE",
"268 473 LINE",
"102 501 LINE"
);
},
{
closed = 1;
nodes = (
"381 245 OFFCURVE",
"293 27 OFFCURVE",
"189 28 CURVE",
"229 250 LINE",
"58 250 LINE",
"38 137 LINE SMOOTH",
"23 50 OFFCURVE",
"69 -2 OFFCURVE",
"163 -2 CURVE",
"323 -5 OFFCURVE",
"387 213 OFFCURVE",
"438 368 CURVE",
"426 393 LINE"
);
}
);
width = 600;
},
{
associatedMasterId = "76F08205-C3C5-4E97-8429-CDDB50136507";
layerId = "99A6C395-14A1-45E9-B681-84C4167CD9BA";
name = "Bold Jul 16 16, 20:48";
paths = (
{
closed = 1;
nodes = (
"429 500 LINE",
"330 -53 LINE",
"505 -51 LINE",
"592 470 LINE"
);
},
{
closed = 1;
nodes = (
"380 246 OFFCURVE",
"293 104 OFFCURVE",
"188 29 CURVE",
"228 250 LINE",
"57 250 LINE",
"17 28 LINE",
"183 0 LINE",
"304 85 OFFCURVE",
"386 214 OFFCURVE",
"437 369 CURVE",
"425 394 LINE"
);
},
{
closed = 1;
nodes = (
"57 250 LINE",
"228 250 LINE",
"268 473 LINE",
"102 501 LINE"
);
},
{
closed = 1;
nodes = (
"-3 -247 OFFCURVE",
"74 -301 OFFCURVE",
"215 -301 CURVE SMOOTH",
"345 -301 OFFCURVE",
"476 -215 OFFCURVE",
"505 -51 CURVE",
"330 -53 LINE",
"287 -264 LINE",
"287 -264 OFFCURVE",
"244 -275 OFFCURVE",
"211 -275 CURVE SMOOTH",
"140 -275 OFFCURVE",
"104 -264 OFFCURVE",
"78 -245 CURVE",
"82 -245 LINE SMOOTH",
"130 -245 OFFCURVE",
"168 -207 OFFCURVE",
"168 -159 CURVE SMOOTH",
"168 -112 OFFCURVE",
"130 -75 OFFCURVE",
"82 -75 CURVE SMOOTH",
"35 -75 OFFCURVE",
"-3 -112 OFFCURVE",
"-3 -167 CURVE"
);
}
);
width = 600;
}
);
leftMetricsKey = "=y";
rightMetricsKey = "=g";
},
{
glyphname = y.isol;
lastChange = "2016-08-06 01:36:56 +0000";
layers = (
{
components = (
{
name = igora;
transform = "{1, 0, 0, 1, -27, 0}";
},
{
name = "n-gora";
transform = "{-1, 0, 0, -1, 623, 500}";
},
{
name = glaska;
transform = "{1, 0, 0, 1, 3, 0}";
}
);
layerId = "76F08205-C3C5-4E97-8429-CDDB50136507";
width = 630;
},
{
associatedMasterId = "76F08205-C3C5-4E97-8429-CDDB50136507";
layerId = "72D8AE70-F245-41C2-95A5-552078754E46";
name = "Bold Jul 16 16, 20:48";
paths = (
{
closed = 1;
nodes = (
"439 500 LINE",
"337 -73 LINE",
"507 -73 LINE",
"602 470 LINE"
);
},
{
closed = 1;
nodes = (
"20 -279 OFFCURVE",
"108 -323 OFFCURVE",
"200 -323 CURVE SMOOTH",
"337 -323 OFFCURVE",
"479 -237 OFFCURVE",
"507 -73 CURVE",
"337 -73 LINE",
"303 -249 OFFCURVE",
"253 -304 OFFCURVE",
"181 -304 CURVE SMOOTH",
"133 -304 OFFCURVE",
"101 -279 OFFCURVE",
"101 -279 CURVE SMOOTH",
"101 -279 OFFCURVE",
"155 -271 OFFCURVE",
"155 -213 CURVE SMOOTH",
"155 -175 OFFCURVE",
"128 -148 OFFCURVE",
"87 -148 CURVE SMOOTH",
"47 -148 OFFCURVE",
"20 -175 OFFCURVE",
"20 -217 CURVE SMOOTH"
);
},
{
closed = 1;
nodes = (
"390 246 OFFCURVE",
"303 104 OFFCURVE",
"198 29 CURVE",
"238 250 LINE",
"67 250 LINE",
"27 28 LINE",
"193 0 LINE",
"314 85 OFFCURVE",
"396 214 OFFCURVE",
"447 369 CURVE",
"435 394 LINE"
);
},
{
closed = 1;
nodes = (
"67 250 LINE",
"238 250 LINE",
"278 473 LINE",
"112 501 LINE"
);
}
);
width = 600;
}
);
leftMetricsKey = "=n";
rightMetricsKey = "=g";
},
{
glyphname = z;
lastChange = "2016-08-06 01:29:35 +0000";
layers = (
{
associatedMasterId = "76F08205-C3C5-4E97-8429-CDDB50136507";
layerId = "92D50958-A58B-4DF0-8BFC-9FDA072654B2";
name = "Bold Jul 18 16, 12:23";
paths = (
{
closed = 1;
nodes = (
"5 0 LINE",
"531 482 LINE",
"518 499 LINE",
"-10 16 LINE"
);
},
{
closed = 1;
nodes = (
"490 106 LINE",
"490 106 OFFCURVE",
"474 59 OFFCURVE",
"417 59 CURVE SMOOTH",
"331 59 OFFCURVE",
"292 181 OFFCURVE",
"200 181 CURVE",
"5 0 LINE",
"5 0 OFFCURVE",
"52 41 OFFCURVE",
"113 41 CURVE SMOOTH",
"185 41 OFFCURVE",
"225 -11 OFFCURVE",
"309 -11 CURVE SMOOTH",
"430 -11 OFFCURVE",
"532 77 OFFCURVE",
"532 167 CURVE"
);
},
{
closed = 1;
nodes = (
"129 300 OFFCURVE",
"160 330 OFFCURVE",
"160 368 CURVE SMOOTH",
"160 406 OFFCURVE",
"129 436 OFFCURVE",
"92 436 CURVE SMOOTH",
"54 436 OFFCURVE",
"23 406 OFFCURVE",
"23 368 CURVE SMOOTH",
"23 330 OFFCURVE",
"54 300 OFFCURVE",
"92 300 CURVE SMOOTH"
);
},
{
closed = 1;
nodes = (
"73 431 LINE",
"73 431 OFFCURVE",
"98 467 OFFCURVE",
"137 467 CURVE SMOOTH",
"211 467 OFFCURVE",
"229 321 OFFCURVE",
"328 321 CURVE",
"518 499 LINE",
"518 499 OFFCURVE",
"471 448 OFFCURVE",
"404 448 CURVE SMOOTH",
"338 448 OFFCURVE",
"297 500 OFFCURVE",
"201 500 CURVE SMOOTH",
"114 500 OFFCURVE",
"23 453 OFFCURVE",
"23 368 CURVE"
);
},
{
closed = 1;
nodes = (
"502 98 OFFCURVE",
"532 128 OFFCURVE",
"532 167 CURVE SMOOTH",
"532 206 OFFCURVE",
"502 236 OFFCURVE",
"463 236 CURVE SMOOTH",
"424 236 OFFCURVE",
"394 206 OFFCURVE",
"394 167 CURVE SMOOTH",
"394 128 OFFCURVE",
"424 98 OFFCURVE",
"463 98 CURVE SMOOTH"
);
}
);
width = 541;
},
{
associatedMasterId = "76F08205-C3C5-4E97-8429-CDDB50136507";
layerId = "64604B2E-F167-4081-9DD8-18067C2DD7CF";
name = "Bold Jul 23 16, 14:48";
paths = (
{
closed = 1;
nodes = (
"5 0 LINE",
"531 482 LINE",
"518 499 LINE",
"-10 16 LINE"
);
},
{
closed = 1;
nodes = (
"490 106 LINE",
"490 106 OFFCURVE",
"474 59 OFFCURVE",
"417 59 CURVE SMOOTH",
"331 59 OFFCURVE",
"292 181 OFFCURVE",
"200 181 CURVE",
"5 0 LINE",
"5 0 OFFCURVE",
"52 41 OFFCURVE",
"113 41 CURVE SMOOTH",
"185 41 OFFCURVE",
"225 -11 OFFCURVE",
"309 -11 CURVE SMOOTH",
"430 -11 OFFCURVE",
"532 77 OFFCURVE",
"532 167 CURVE"
);
},
{
closed = 1;
nodes = (
"129 300 OFFCURVE",
"160 330 OFFCURVE",
"160 368 CURVE SMOOTH",
"160 406 OFFCURVE",
"129 436 OFFCURVE",
"92 436 CURVE SMOOTH",
"54 436 OFFCURVE",
"23 406 OFFCURVE",
"23 368 CURVE SMOOTH",
"23 330 OFFCURVE",
"54 300 OFFCURVE",
"92 300 CURVE SMOOTH"
);
},
{
closed = 1;
nodes = (
"73 431 LINE",
"73 431 OFFCURVE",
"108 472 OFFCURVE",
"167 472 CURVE",
"348 321 LINE",
"518 499 LINE",
"523 496 OFFCURVE",
"189 500 OFFCURVE",
"201 500 CURVE SMOOTH",
"114 500 OFFCURVE",
"23 453 OFFCURVE",
"23 368 CURVE"
);
},
{
closed = 1;
nodes = (
"502 98 OFFCURVE",
"532 128 OFFCURVE",
"532 167 CURVE SMOOTH",
"532 206 OFFCURVE",
"502 236 OFFCURVE",
"463 236 CURVE SMOOTH",
"424 236 OFFCURVE",
"394 206 OFFCURVE",
"394 167 CURVE SMOOTH",
"394 128 OFFCURVE",
"424 98 OFFCURVE",
"463 98 CURVE SMOOTH"
);
}
);
width = 547;
},
{
associatedMasterId = "76F08205-C3C5-4E97-8429-CDDB50136507";
layerId = "BDEA973B-073A-45F8-88F0-D5BF3FB72B8E";
name = "Bold Aug 2 16, 14:48";
paths = (
{
closed = 1;
nodes = (
"5 0 LINE",
"531 482 LINE",
"518 499 LINE",
"-10 16 LINE"
);
},
{
closed = 1;
nodes = (
"490 106 LINE",
"490 106 OFFCURVE",
"474 59 OFFCURVE",
"417 59 CURVE SMOOTH",
"331 59 OFFCURVE",
"292 181 OFFCURVE",
"200 181 CURVE",
"5 0 LINE",
"5 0 OFFCURVE",
"52 41 OFFCURVE",
"113 41 CURVE SMOOTH",
"185 41 OFFCURVE",
"225 -11 OFFCURVE",
"309 -11 CURVE SMOOTH",
"430 -11 OFFCURVE",
"532 77 OFFCURVE",
"532 167 CURVE"
);
},
{
closed = 1;
nodes = (
"129 300 OFFCURVE",
"160 330 OFFCURVE",
"160 368 CURVE SMOOTH",
"160 406 OFFCURVE",
"129 436 OFFCURVE",
"92 436 CURVE SMOOTH",
"54 436 OFFCURVE",
"23 406 OFFCURVE",
"23 368 CURVE SMOOTH",
"23 330 OFFCURVE",
"54 300 OFFCURVE",
"92 300 CURVE SMOOTH"
);
},
{
closed = 1;
nodes = (
"73 431 LINE",
"73 431 OFFCURVE",
"98 467 OFFCURVE",
"137 467 CURVE SMOOTH",
"211 467 OFFCURVE",
"229 321 OFFCURVE",
"328 321 CURVE",
"518 499 LINE",
"518 499 OFFCURVE",
"471 448 OFFCURVE",
"404 448 CURVE SMOOTH",
"338 448 OFFCURVE",
"297 500 OFFCURVE",
"201 500 CURVE SMOOTH",
"114 500 OFFCURVE",
"23 453 OFFCURVE",
"23 368 CURVE"
);
},
{
closed = 1;
nodes = (
"502 98 OFFCURVE",
"532 128 OFFCURVE",
"532 167 CURVE SMOOTH",
"532 206 OFFCURVE",
"502 236 OFFCURVE",
"463 236 CURVE SMOOTH",
"424 236 OFFCURVE",
"394 206 OFFCURVE",
"394 167 CURVE SMOOTH",
"394 128 OFFCURVE",
"424 98 OFFCURVE",
"463 98 CURVE SMOOTH"
);
}
);
width = 547;
},
{
associatedMasterId = "76F08205-C3C5-4E97-8429-CDDB50136507";
layerId = "9720148F-BB6D-44A6-BCCC-A040C8F4CC3B";
name = "Bold Aug 5 16, 20:01";
width = 567;
},
{
layerId = "76F08205-C3C5-4E97-8429-CDDB50136507";
paths = (
{
closed = 1;
nodes = (
"28 -5 LINE",
"551 482 LINE",
"531 505 LINE",
"10 16 LINE"
);
},
{
closed = 1;
nodes = (
"57 354 LINE",
"57 429 OFFCURVE",
"135 460 OFFCURVE",
"135 460 CURVE",
"325 289 LINE",
"455 405 LINE",
"428 427 LINE",
"362 482 OFFCURVE",
"293 508 OFFCURVE",
"228 508 CURVE SMOOTH",
"130 508 OFFCURVE",
"28 448 OFFCURVE",
"28 343 CURVE"
);
},
{
closed = 1;
nodes = (
"147 268 OFFCURVE",
"180 301 OFFCURVE",
"180 344 CURVE SMOOTH",
"180 387 OFFCURVE",
"147 420 OFFCURVE",
"104 420 CURVE SMOOTH",
"61 420 OFFCURVE",
"28 387 OFFCURVE",
"28 344 CURVE SMOOTH",
"28 301 OFFCURVE",
"61 268 OFFCURVE",
"104 268 CURVE SMOOTH"
);
},
{
closed = 1;
nodes = (
"531 149 LINE",
"531 74 OFFCURVE",
"448 44 OFFCURVE",
"448 44 CURVE",
"253 214 LINE",
"123 98 LINE",
"150 76 LINE",
"216 21 OFFCURVE",
"285 -5 OFFCURVE",
"350 -5 CURVE SMOOTH",
"448 -5 OFFCURVE",
"560 55 OFFCURVE",
"560 160 CURVE"
);
},
{
closed = 1;
nodes = (
"441 235 OFFCURVE",
"408 202 OFFCURVE",
"408 159 CURVE SMOOTH",
"408 116 OFFCURVE",
"441 83 OFFCURVE",
"484 83 CURVE SMOOTH",
"527 83 OFFCURVE",
"560 116 OFFCURVE",
"560 159 CURVE SMOOTH",
"560 202 OFFCURVE",
"527 235 OFFCURVE",
"484 235 CURVE SMOOTH"
);
}
);
width = 585;
}
);
unicode = 007A;
},
{
glyphname = A;
lastChange = "2016-08-05 11:22:33 +0000";
layers = (
{
associatedMasterId = "76F08205-C3C5-4E97-8429-CDDB50136507";
layerId = "8E203DE8-AF9F-47A5-98A9-B17915C786F8";
name = "Bold Jul 31 16, 14:59";
paths = (
{
closed = 1;
nodes = (
"883 250 LINE",
"984 808 LINE",
"818 836 LINE",
"712 250 LINE"
);
},
{
closed = 1;
nodes = (
"1035 245 OFFCURVE",
"947 27 OFFCURVE",
"843 28 CURVE",
"883 250 LINE",
"712 250 LINE",
"692 137 LINE SMOOTH",
"677 50 OFFCURVE",
"723 -2 OFFCURVE",
"817 -2 CURVE",
"977 -5 OFFCURVE",
"1041 213 OFFCURVE",
"1092 368 CURVE",
"1080 393 LINE"
);
},
{
closed = 1;
nodes = (
"11 63 OFFCURVE",
"79 0 OFFCURVE",
"168 0 CURVE SMOOTH",
"458 -1 OFFCURVE",
"659 669 OFFCURVE",
"840 814 CURVE",
"818 836 LINE",
"643 687 OFFCURVE",
"429 26 OFFCURVE",
"174 26 CURVE SMOOTH",
"140 26 OFFCURVE",
"113 38 OFFCURVE",
"95 50 CURVE",
"140 52 OFFCURVE",
"180 89 OFFCURVE",
"180 136 CURVE SMOOTH",
"180 183 OFFCURVE",
"142 221 OFFCURVE",
"95 221 CURVE SMOOTH",
"48 221 OFFCURVE",
"9 183 OFFCURVE",
"10 133 CURVE SMOOTH"
);
},
{
closed = 1;
nodes = (
"303 281 LINE",
"878 281 LINE",
"878 306 LINE",
"303 306 LINE"
);
}
);
width = 996;
},
{
components = (
{
name = ndol;
transform = "{1, 0, 0, 1, 328, 0}";
},
{
name = hlaskagorna;
transform = "{1, 0, 0, 1, 656, 0}";
},
{
name = Alaska;
}
);
layerId = "76F08205-C3C5-4E97-8429-CDDB50136507";
paths = (
{
closed = 1;
nodes = (
"303 281 LINE",
"878 281 LINE",
"878 306 LINE",
"303 306 LINE"
);
}
);
width = 1018;
},
{
associatedMasterId = "76F08205-C3C5-4E97-8429-CDDB50136507";
components = (
{
name = ndol;
transform = "{1, 0, 0, 1, 328, 0}";
},
{
name = hlaskagorna;
transform = "{1, 0, 0, 1, 656, 0}";
}
);
layerId = "B833E378-EB3B-4E0C-B565-36702DBE4D0D";
name = "Bold Aug 1 16, 20:22";
paths = (
{
closed = 1;
nodes = (
"11 63 OFFCURVE",
"79 0 OFFCURVE",
"168 0 CURVE SMOOTH",
"458 -1 OFFCURVE",
"702 543 OFFCURVE",
"833 778 CURVE",
"811 800 LINE",
"686 561 OFFCURVE",
"429 26 OFFCURVE",
"174 26 CURVE SMOOTH",
"140 26 OFFCURVE",
"113 38 OFFCURVE",
"95 50 CURVE",
"140 52 OFFCURVE",
"180 89 OFFCURVE",
"180 136 CURVE SMOOTH",
"180 183 OFFCURVE",
"142 221 OFFCURVE",
"95 221 CURVE SMOOTH",
"48 221 OFFCURVE",
"9 183 OFFCURVE",
"10 133 CURVE SMOOTH"
);
},
{
closed = 1;
nodes = (
"303 281 LINE",
"878 281 LINE",
"878 306 LINE",
"303 306 LINE"
);
}
);
width = 996;
}
);
unicode = 0041;
},
{
glyphname = A.init;
lastChange = "2016-08-05 11:22:52 +0000";
layers = (
{
components = (
{
name = ndol;
transform = "{1, 0, 0, 1, 372, 0}";
},
{
name = hlaskagorna;
transform = "{1, 0, 0, 1, 700, 0}";
},
{
name = Alaska;
transform = "{1, 0, 0, 1, 44, 0}";
}
);
layerId = "76F08205-C3C5-4E97-8429-CDDB50136507";
paths = (
{
closed = 1;
nodes = (
"347 281 LINE",
"922 281 LINE",
"922 306 LINE",
"347 306 LINE"
);
}
);
width = 1062;
}
);
leftMetricsKey = "=A";
rightMetricsKey = "=A";
},
{
glyphname = A.fina;
lastChange = "2016-08-05 11:24:02 +0000";
layers = (
{
components = (
{
name = hlaskagorna;
transform = "{1, 0, 0, 1, 700, 0}";
},
{
name = Alaska;
transform = "{1, 0, 0, 1, 44, 0}";
},
{
name = ndolinit;
transform = "{1, 0, 0, 1, 372, 0}";
}
);
layerId = "76F08205-C3C5-4E97-8429-CDDB50136507";
paths = (
{
closed = 1;
nodes = (
"347 281 LINE",
"922 281 LINE",
"922 306 LINE",
"347 306 LINE"
);
}
);
width = 1039;
}
);
leftMetricsKey = "=A";
rightMetricsKey = "=n.fina";
},
{
glyphname = A.isol;
lastChange = "2016-08-05 11:24:22 +0000";
layers = (
{
components = (
{
name = hlaskagorna;
transform = "{1, 0, 0, 1, 700, 0}";
},
{
name = Alaska;
transform = "{1, 0, 0, 1, 44, 0}";
},
{
name = ndolinit;
transform = "{1, 0, 0, 1, 372, 0}";
}
);
layerId = "76F08205-C3C5-4E97-8429-CDDB50136507";
paths = (
{
closed = 1;
nodes = (
"347 281 LINE",
"922 281 LINE",
"922 306 LINE",
"347 306 LINE"
);
}
);
width = 1039;
}
);
leftMetricsKey = "=A";
rightMetricsKey = "=n.fina";
},
{
glyphname = B;
lastChange = "2016-08-05 18:33:31 +0000";
layers = (
{
components = (
{
name = Blaska;
},
{
name = Bterminal;
}
);
layerId = "76F08205-C3C5-4E97-8429-CDDB50136507";
paths = (
{
closed = 1;
nodes = (
"477 805 LINE",
"640 804 OFFCURVE",
"707 751 OFFCURVE",
"707 751 CURVE",
"653 439 LINE",
"338 439 LINE",
"331 411 LINE",
"648 411 LINE",
"586 29 LINE",
"586 29 OFFCURVE",
"564 23 OFFCURVE",
"494 23 CURVE",
"393 23 OFFCURVE",
"233 64 OFFCURVE",
"233 64 CURVE",
"228 34 LINE",
"228 34 OFFCURVE",
"385 -5 OFFCURVE",
"502 -5 CURVE SMOOTH",
"696 -5 OFFCURVE",
"826 91 OFFCURVE",
"826 236 CURVE SMOOTH",
"826 348 OFFCURVE",
"766 404 OFFCURVE",
"675 426 CURVE",
"773 451 OFFCURVE",
"839 526 OFFCURVE",
"839 614 CURVE SMOOTH",
"839 724 OFFCURVE",
"695 828 OFFCURVE",
"477 830 CURVE"
);
}
);
width = 848;
},
{
associatedMasterId = "76F08205-C3C5-4E97-8429-CDDB50136507";
layerId = "9F547A3C-C4F1-4301-9CC9-31E01CC50574";
name = "Bold Jul 22 16, 21:56";
paths = (
{
closed = 1;
nodes = (
"-13 19 OFFCURVE",
"-155 58 OFFCURVE",
"-186 66 CURVE",
"-197 38 LINE",
"-197 38 OFFCURVE",
"-13 -9 OFFCURVE",
"154 -9 CURVE SMOOTH",
"412 -9 OFFCURVE",
"559 113 OFFCURVE",
"559 275 CURVE SMOOTH",
"559 380 OFFCURVE",
"497 434 OFFCURVE",
"378 439 CURVE",
"489 467 OFFCURVE",
"592 534 OFFCURVE",
"592 649 CURVE SMOOTH",
"592 769 OFFCURVE",
"492 836 OFFCURVE",
"299 836 CURVE SMOOTH",
"57 836 OFFCURVE",
"-68 733 OFFCURVE",
"-68 733 CURVE",
"-53 711 LINE",
"-53 711 OFFCURVE",
"58 811 OFFCURVE",
"297 811 CURVE SMOOTH",
"392 811 OFFCURVE",
"437 796 OFFCURVE",
"437 796 CURVE",
"361 453 LINE",
"11 453 LINE",
"4 425 LINE",
"355 425 LINE",
"282 31 LINE",
"282 31 OFFCURVE",
"252 19 OFFCURVE",
"168 19 CURVE"
);
},
{
closed = 1;
nodes = (
"81 0 LINE",
"228 813 LINE",
"52 790 LINE",
"-85 30 LINE"
);
}
);
width = 600;
},
{
associatedMasterId = "76F08205-C3C5-4E97-8429-CDDB50136507";
layerId = "EC1E8F09-A5B9-4AC4-BAD4-5F76C0045F7C";
name = "Bold Aug 1 16, 20:24";
paths = (
{
closed = 1;
nodes = (
"81 19 OFFCURVE",
"-79 63 OFFCURVE",
"-79 63 CURVE",
"-85 30 LINE",
"-85 30 OFFCURVE",
"72 -9 OFFCURVE",
"192 -9 CURVE SMOOTH",
"412 -9 OFFCURVE",
"559 113 OFFCURVE",
"559 275 CURVE SMOOTH",
"559 380 OFFCURVE",
"497 434 OFFCURVE",
"378 439 CURVE",
"489 467 OFFCURVE",
"592 534 OFFCURVE",
"592 649 CURVE SMOOTH",
"592 769 OFFCURVE",
"482 836 OFFCURVE",
"317 836 CURVE SMOOTH",
"177 836 OFFCURVE",
"52 790 OFFCURVE",
"52 790 CURVE",
"69 759 LINE",
"69 759 OFFCURVE",
"188 811 OFFCURVE",
"321 811 CURVE SMOOTH",
"392 811 OFFCURVE",
"437 796 OFFCURVE",
"437 796 CURVE",
"361 453 LINE",
"-109 453 LINE",
"-116 425 LINE",
"355 425 LINE",
"282 31 LINE",
"282 31 OFFCURVE",
"252 19 OFFCURVE",
"196 19 CURVE"
);
},
{
closed = 1;
nodes = (
"81 0 LINE",
"226 803 LINE",
"52 790 LINE",
"-85 30 LINE"
);
}
);
width = 600;
},
{
associatedMasterId = "76F08205-C3C5-4E97-8429-CDDB50136507";
layerId = "D568662A-8F78-439D-B0B0-457E0C585828";
name = "Bold Aug 1 16, 20:45";
paths = (
{
closed = 1;
nodes = (
"393 19 OFFCURVE",
"233 60 OFFCURVE",
"233 60 CURVE",
"227 30 LINE",
"227 30 OFFCURVE",
"385 -9 OFFCURVE",
"502 -9 CURVE SMOOTH",
"679 -9 OFFCURVE",
"796 79 OFFCURVE",
"796 236 CURVE SMOOTH",
"796 349 OFFCURVE",
"735 424 OFFCURVE",
"645 426 CURVE",
"749 452 OFFCURVE",
"819 535 OFFCURVE",
"819 614 CURVE SMOOTH",
"819 723 OFFCURVE",
"684 800 OFFCURVE",
"468 800 CURVE SMOOTH",
"165 800 OFFCURVE",
"0 649 OFFCURVE",
"0 458 CURVE SMOOTH",
"0 343 OFFCURVE",
"59 287 OFFCURVE",
"135 287 CURVE SMOOTH",
"196 287 OFFCURVE",
"246 323 OFFCURVE",
"246 376 CURVE",
"224 379 LINE",
"224 333 OFFCURVE",
"182 310 OFFCURVE",
"139 310 CURVE SMOOTH",
"76 310 OFFCURVE",
"30 359 OFFCURVE",
"30 456 CURVE SMOOTH",
"30 634 OFFCURVE",
"184 775 OFFCURVE",
"473 775 CURVE SMOOTH",
"619 775 OFFCURVE",
"677 739 OFFCURVE",
"677 739 CURVE",
"623 439 LINE",
"338 439 LINE",
"331 411 LINE",
"618 411 LINE",
"556 25 LINE",
"556 25 OFFCURVE",
"564 19 OFFCURVE",
"508 19 CURVE"
);
},
{
closed = 1;
nodes = (
"233 60 LINE",
"396 18 LINE",
"498 618 LINE",
"332 646 LINE"
);
},
{
closed = 1;
nodes = (
"216 311 OFFCURVE",
"250 344 OFFCURVE",
"250 385 CURVE SMOOTH",
"250 425 OFFCURVE",
"217 458 OFFCURVE",
"177 458 CURVE SMOOTH",
"136 458 OFFCURVE",
"103 425 OFFCURVE",
"104 385 CURVE SMOOTH",
"106 341 OFFCURVE",
"148 311 OFFCURVE",
"181 311 CURVE SMOOTH"
);
}
);
width = 912;
},
{
associatedMasterId = "76F08205-C3C5-4E97-8429-CDDB50136507";
layerId = "351875BB-8C79-4773-898E-2F773ADA4617";
name = "Bold Aug 3 16, 23:56";
paths = (
{
closed = 1;
nodes = (
"393 23 OFFCURVE",
"233 64 OFFCURVE",
"233 64 CURVE",
"228 34 LINE",
"228 34 OFFCURVE",
"385 -5 OFFCURVE",
"502 -5 CURVE SMOOTH",
"696 -5 OFFCURVE",
"826 91 OFFCURVE",
"826 236 CURVE SMOOTH",
"826 348 OFFCURVE",
"766 404 OFFCURVE",
"675 426 CURVE",
"773 451 OFFCURVE",
"839 526 OFFCURVE",
"839 614 CURVE SMOOTH",
"839 726 OFFCURVE",
"691 800 OFFCURVE",
"468 800 CURVE SMOOTH",
"165 800 OFFCURVE",
"0 649 OFFCURVE",
"0 458 CURVE SMOOTH",
"0 343 OFFCURVE",
"59 287 OFFCURVE",
"135 287 CURVE SMOOTH",
"196 287 OFFCURVE",
"246 323 OFFCURVE",
"246 376 CURVE",
"224 379 LINE",
"224 333 OFFCURVE",
"182 310 OFFCURVE",
"139 310 CURVE SMOOTH",
"76 310 OFFCURVE",
"30 359 OFFCURVE",
"30 456 CURVE SMOOTH",
"30 634 OFFCURVE",
"184 775 OFFCURVE",
"473 775 CURVE SMOOTH",
"649 775 OFFCURVE",
"707 737 OFFCURVE",
"707 737 CURVE",
"653 439 LINE",
"338 439 LINE",
"331 411 LINE",
"648 411 LINE",
"586 29 LINE",
"586 29 OFFCURVE",
"564 23 OFFCURVE",
"494 23 CURVE"
);
},
{
closed = 1;
nodes = (
"233 64 LINE",
"396 22 LINE",
"527 780 LINE",
"356 785 LINE"
);
},
{
closed = 1;
nodes = (
"216 311 OFFCURVE",
"250 344 OFFCURVE",
"250 385 CURVE SMOOTH",
"250 425 OFFCURVE",
"217 458 OFFCURVE",
"177 458 CURVE SMOOTH",
"136 458 OFFCURVE",
"103 425 OFFCURVE",
"104 385 CURVE SMOOTH",
"106 341 OFFCURVE",
"148 311 OFFCURVE",
"181 311 CURVE SMOOTH"
);
}
);
width = 829;
}
);
rightMetricsKey = "=D";
unicode = 0042;
},
{
glyphname = C;
lastChange = "2016-08-05 11:27:34 +0000";
layers = (
{
layerId = "76F08205-C3C5-4E97-8429-CDDB50136507";
paths = (
{
closed = 1;
nodes = (
"20 604 OFFCURVE",
"20 347 CURVE SMOOTH",
"20 154 OFFCURVE",
"140 -5 OFFCURVE",
"340 -5 CURVE SMOOTH",
"523 -5 OFFCURVE",
"662 142 OFFCURVE",
"715 325 CURVE",
"696 344 LINE",
"622 122 OFFCURVE",
"483 22 OFFCURVE",
"344 22 CURVE SMOOTH",
"300 22 OFFCURVE",
"249 32 OFFCURVE",
"211 58 CURVE",
"338 751 LINE",
"381 769 OFFCURVE",
"420 773 OFFCURVE",
"451 773 CURVE SMOOTH",
"540 773 OFFCURVE",
"616 739 OFFCURVE",
"616 739 CURVE",
"577 732 OFFCURVE",
"547 703 OFFCURVE",
"547 660 CURVE SMOOTH",
"547 614 OFFCURVE",
"585 576 OFFCURVE",
"633 576 CURVE SMOOTH",
"678 576 OFFCURVE",
"718 612 OFFCURVE",
"718 662 CURVE SMOOTH",
"718 760 OFFCURVE",
"568 800 OFFCURVE",
"459 800 CURVE SMOOTH",
"206 800 OFFCURVE"
);
}
);
width = 622;
}
);
unicode = 0043;
},
{
glyphname = C.init;
lastChange = "2016-08-05 11:28:00 +0000";
layers = (
{
layerId = "76F08205-C3C5-4E97-8429-CDDB50136507";
paths = (
{
closed = 1;
nodes = (
"20 604 OFFCURVE",
"20 347 CURVE SMOOTH",
"20 154 OFFCURVE",
"140 -5 OFFCURVE",
"340 -5 CURVE SMOOTH",
"523 -5 OFFCURVE",
"662 142 OFFCURVE",
"715 325 CURVE",
"696 344 LINE",
"622 122 OFFCURVE",
"483 22 OFFCURVE",
"344 22 CURVE SMOOTH",
"300 22 OFFCURVE",
"249 32 OFFCURVE",
"211 58 CURVE",
"338 751 LINE",
"381 769 OFFCURVE",
"420 773 OFFCURVE",
"451 773 CURVE SMOOTH",
"540 773 OFFCURVE",
"616 739 OFFCURVE",
"616 739 CURVE",
"577 732 OFFCURVE",
"547 703 OFFCURVE",
"547 660 CURVE SMOOTH",
"547 614 OFFCURVE",
"585 576 OFFCURVE",
"633 576 CURVE SMOOTH",
"678 576 OFFCURVE",
"718 612 OFFCURVE",
"718 662 CURVE SMOOTH",
"718 760 OFFCURVE",
"568 800 OFFCURVE",
"459 800 CURVE SMOOTH",
"206 800 OFFCURVE"
);
}
);
width = 622;
}
);
leftMetricsKey = "=C";
rightMetricsKey = "=C";
},
{
glyphname = C.fina;
lastChange = "2016-08-05 11:28:09 +0000";
layers = (
{
layerId = "76F08205-C3C5-4E97-8429-CDDB50136507";
paths = (
{
closed = 1;
nodes = (
"20 604 OFFCURVE",
"20 347 CURVE SMOOTH",
"20 154 OFFCURVE",
"140 -5 OFFCURVE",
"340 -5 CURVE SMOOTH",
"523 -5 OFFCURVE",
"662 142 OFFCURVE",
"715 325 CURVE",
"696 344 LINE",
"622 122 OFFCURVE",
"483 22 OFFCURVE",
"344 22 CURVE SMOOTH",
"300 22 OFFCURVE",
"249 32 OFFCURVE",
"211 58 CURVE",
"338 751 LINE",
"381 769 OFFCURVE",
"420 773 OFFCURVE",
"451 773 CURVE SMOOTH",
"540 773 OFFCURVE",
"616 739 OFFCURVE",
"616 739 CURVE",
"577 732 OFFCURVE",
"547 703 OFFCURVE",
"547 660 CURVE SMOOTH",
"547 614 OFFCURVE",
"585 576 OFFCURVE",
"633 576 CURVE SMOOTH",
"678 576 OFFCURVE",
"718 612 OFFCURVE",
"718 662 CURVE SMOOTH",
"718 760 OFFCURVE",
"568 800 OFFCURVE",
"459 800 CURVE SMOOTH",
"206 800 OFFCURVE"
);
}
);
width = 622;
}
);
leftMetricsKey = "=C";
rightMetricsKey = "=C";
},
{
glyphname = C.isol;
lastChange = "2016-08-05 11:30:03 +0000";
layers = (
{
layerId = "76F08205-C3C5-4E97-8429-CDDB50136507";
paths = (
{
closed = 1;
nodes = (
"20 604 OFFCURVE",
"20 347 CURVE SMOOTH",
"20 154 OFFCURVE",
"140 -5 OFFCURVE",
"340 -5 CURVE SMOOTH",
"523 -5 OFFCURVE",
"662 142 OFFCURVE",
"715 325 CURVE",
"696 344 LINE",
"622 122 OFFCURVE",
"483 22 OFFCURVE",
"344 22 CURVE SMOOTH",
"300 22 OFFCURVE",
"249 32 OFFCURVE",
"211 58 CURVE",
"338 751 LINE",
"381 769 OFFCURVE",
"420 773 OFFCURVE",
"451 773 CURVE SMOOTH",
"540 773 OFFCURVE",
"616 739 OFFCURVE",
"616 739 CURVE",
"577 732 OFFCURVE",
"547 703 OFFCURVE",
"547 660 CURVE SMOOTH",
"547 614 OFFCURVE",
"585 576 OFFCURVE",
"633 576 CURVE SMOOTH",
"678 576 OFFCURVE",
"718 612 OFFCURVE",
"718 662 CURVE SMOOTH",
"718 760 OFFCURVE",
"568 800 OFFCURVE",
"459 800 CURVE SMOOTH",
"206 800 OFFCURVE"
);
}
);
width = 622;
}
);
leftMetricsKey = "=C";
rightMetricsKey = "=C";
},
{
glyphname = D;
lastChange = "2016-08-05 11:43:57 +0000";
layers = (
{
associatedMasterId = "76F08205-C3C5-4E97-8429-CDDB50136507";
layerId = "9F32443E-0FDE-4C49-8DFD-C1EA05462B3F";
name = "Bold Jul 22 16, 21:49";
paths = (
{
closed = 1;
nodes = (
"-26 29 LINE",
"142 0 LINE",
"286 800 LINE",
"123 789 LINE"
);
},
{
closed = 1;
nodes = (
"-136 38 LINE",
"-103 27 OFFCURVE",
"54 -10 OFFCURVE",
"217 -10 CURVE SMOOTH",
"479 -10 OFFCURVE",
"665 153 OFFCURVE",
"700 412 CURVE SMOOTH",
"735 670 OFFCURVE",
"595 823 OFFCURVE",
"324 823 CURVE SMOOTH",
"66 823 OFFCURVE",
"-121 704 OFFCURVE",
"-121 488 CURVE SMOOTH",
"-121 409 OFFCURVE",
"-88 342 OFFCURVE",
"-47 302 CURVE",
"-25 319 LINE",
"-73 369 OFFCURVE",
"-90 425 OFFCURVE",
"-90 486 CURVE SMOOTH",
"-90 687 OFFCURVE",
"87 796 OFFCURVE",
"329 796 CURVE SMOOTH",
"463 796 OFFCURVE",
"537 751 OFFCURVE",
"537 751 CURVE",
"404 51 LINE",
"404 51 OFFCURVE",
"333 17 OFFCURVE",
"218 17 CURVE SMOOTH",
"80 17 OFFCURVE",
"-94 53 OFFCURVE",
"-125 66 CURVE"
);
}
);
width = 726;
},
{
associatedMasterId = "76F08205-C3C5-4E97-8429-CDDB50136507";
layerId = "49EDBE78-A7AC-4443-A34E-1537DBCDCE98";
name = "Bold Jul 22 16, 21:49 Jul 22 16, 22:00";
paths = (
{
closed = 1;
nodes = (
"-26 29 LINE",
"142 0 LINE",
"286 800 LINE",
"123 789 LINE"
);
},
{
closed = 1;
nodes = (
"-136 38 LINE",
"-103 27 OFFCURVE",
"54 -10 OFFCURVE",
"217 -10 CURVE SMOOTH",
"479 -10 OFFCURVE",
"665 153 OFFCURVE",
"700 412 CURVE SMOOTH",
"735 670 OFFCURVE",
"595 823 OFFCURVE",
"324 823 CURVE SMOOTH",
"66 823 OFFCURVE",
"-121 704 OFFCURVE",
"-121 488 CURVE SMOOTH",
"-121 409 OFFCURVE",
"-88 342 OFFCURVE",
"-47 302 CURVE",
"-25 319 LINE",
"-73 369 OFFCURVE",
"-90 425 OFFCURVE",
"-90 486 CURVE SMOOTH",
"-90 687 OFFCURVE",
"87 796 OFFCURVE",
"329 796 CURVE SMOOTH",
"463 796 OFFCURVE",
"537 751 OFFCURVE",
"537 751 CURVE",
"404 51 LINE",
"404 51 OFFCURVE",
"333 17 OFFCURVE",
"218 17 CURVE SMOOTH",
"80 17 OFFCURVE",
"-94 53 OFFCURVE",
"-125 66 CURVE"
);
}
);
width = 726;
},
{
associatedMasterId = "76F08205-C3C5-4E97-8429-CDDB50136507";
layerId = "4035C11A-3C51-4907-8471-F1B1643A6A1B";
name = "Bold Aug 4 16, 00:00";
paths = (
{
closed = 1;
nodes = (
"226 60 LINE",
"390 18 LINE",
"527 780 LINE",
"356 785 LINE"
);
},
{
closed = 1;
nodes = (
"216 311 OFFCURVE",
"250 344 OFFCURVE",
"250 385 CURVE SMOOTH",
"250 425 OFFCURVE",
"217 458 OFFCURVE",
"177 458 CURVE SMOOTH",
"136 458 OFFCURVE",
"103 425 OFFCURVE",
"104 385 CURVE SMOOTH",
"105 341 OFFCURVE",
"148 311 OFFCURVE",
"181 311 CURVE SMOOTH"
);
},
{
closed = 1;
nodes = (
"0 343 OFFCURVE",
"59 287 OFFCURVE",
"135 287 CURVE SMOOTH",
"196 287 OFFCURVE",
"246 323 OFFCURVE",
"246 376 CURVE",
"224 379 LINE",
"224 333 OFFCURVE",
"182 310 OFFCURVE",
"139 310 CURVE SMOOTH",
"76 310 OFFCURVE",
"30 359 OFFCURVE",
"30 456 CURVE SMOOTH",
"30 634 OFFCURVE",
"194 773 OFFCURVE",
"483 773 CURVE SMOOTH",
"658 773 OFFCURVE",
"757 702 OFFCURVE",
"757 702 CURVE",
"644 71 LINE",
"644 71 OFFCURVE",
"575 22 OFFCURVE",
"454 24 CURVE SMOOTH",
"351 25 OFFCURVE",
"226 60 OFFCURVE",
"226 60 CURVE",
"220 31 LINE",
"220 31 OFFCURVE",
"332 -6 OFFCURVE",
"452 -6 CURVE SMOOTH",
"694 -6 OFFCURVE",
"867 153 OFFCURVE",
"904 392 CURVE SMOOTH",
"941 637 OFFCURVE",
"789 800 OFFCURVE",
"468 800 CURVE SMOOTH",
"165 800 OFFCURVE",
"0 649 OFFCURVE",
"0 458 CURVE SMOOTH"
);
}
);
width = 939;
},
{
components = (
{
name = Blaska;
transform = "{1, 0, 0, 1, -6, 0}";
},
{
name = Bterminal;
}
);
layerId = "76F08205-C3C5-4E97-8429-CDDB50136507";
paths = (
{
closed = 1;
nodes = (
"477 805 LINE",
"681 805 OFFCURVE",
"757 722 OFFCURVE",
"757 722 CURVE",
"644 71 LINE",
"644 71 OFFCURVE",
"575 23 OFFCURVE",
"454 24 CURVE SMOOTH",
"371 25 OFFCURVE",
"227 64 OFFCURVE",
"227 64 CURVE",
"221 31 LINE",
"221 31 OFFCURVE",
"332 -6 OFFCURVE",
"452 -6 CURVE SMOOTH",
"694 -6 OFFCURVE",
"867 153 OFFCURVE",
"904 392 CURVE SMOOTH",
"941 635 OFFCURVE",
"792 827 OFFCURVE",
"477 830 CURVE"
);
}
);
width = 919;
}
);
unicode = 0044;
},
{
glyphname = E;
lastChange = "2016-08-06 00:21:18 +0000";
layers = (
{
layerId = "76F08205-C3C5-4E97-8429-CDDB50136507";
paths = (
{
closed = 1;
nodes = (
"45 65 OFFCURVE",
"154 -9 OFFCURVE",
"298 -9 CURVE SMOOTH",
"587 -9 OFFCURVE",
"719 331 OFFCURVE",
"719 331 CURVE",
"700 350 LINE",
"700 350 OFFCURVE",
"549 16 OFFCURVE",
"310 16 CURVE SMOOTH",
"261 16 OFFCURVE",
"235 31 OFFCURVE",
"235 31 CURVE",
"313 415 LINE",
"496 415 LINE",
"500 443 LINE",
"318 443 LINE",
"377 769 LINE",
"377 769 OFFCURVE",
"408 775 OFFCURVE",
"446 775 CURVE SMOOTH",
"557 775 OFFCURVE",
"604 724 OFFCURVE",
"604 724 CURVE",
"525 733 OFFCURVE",
"496 687 OFFCURVE",
"496 648 CURVE SMOOTH",
"496 603 OFFCURVE",
"534 565 OFFCURVE",
"581 565 CURVE SMOOTH",
"628 565 OFFCURVE",
"666 603 OFFCURVE",
"666 652 CURVE SMOOTH",
"666 717 OFFCURVE",
"602 800 OFFCURVE",
"432 800 CURVE SMOOTH",
"269 800 OFFCURVE",
"160 713 OFFCURVE",
"160 584 CURVE SMOOTH",
"160 489 OFFCURVE",
"220 450 OFFCURVE",
"296 429 CURVE",
"140 423 OFFCURVE",
"45 333 OFFCURVE",
"45 204 CURVE SMOOTH"
);
}
);
width = 600;
}
);
unicode = 0045;
},
{
glyphname = E.init;
lastChange = "2016-08-05 11:31:05 +0000";
layers = (
{
layerId = "76F08205-C3C5-4E97-8429-CDDB50136507";
paths = (
{
closed = 1;
nodes = (
"45 65 OFFCURVE",
"154 -9 OFFCURVE",
"298 -9 CURVE SMOOTH",
"587 -9 OFFCURVE",
"719 331 OFFCURVE",
"719 331 CURVE",
"700 350 LINE",
"700 350 OFFCURVE",
"549 16 OFFCURVE",
"310 16 CURVE SMOOTH",
"261 16 OFFCURVE",
"235 31 OFFCURVE",
"235 31 CURVE",
"313 415 LINE",
"496 415 LINE",
"500 443 LINE",
"318 443 LINE",
"377 769 LINE",
"377 769 OFFCURVE",
"408 775 OFFCURVE",
"446 775 CURVE SMOOTH",
"557 775 OFFCURVE",
"604 724 OFFCURVE",
"604 724 CURVE",
"525 733 OFFCURVE",
"496 687 OFFCURVE",
"496 648 CURVE SMOOTH",
"496 603 OFFCURVE",
"534 565 OFFCURVE",
"581 565 CURVE SMOOTH",
"628 565 OFFCURVE",
"666 603 OFFCURVE",
"666 652 CURVE SMOOTH",
"666 717 OFFCURVE",
"602 800 OFFCURVE",
"432 800 CURVE SMOOTH",
"269 800 OFFCURVE",
"160 713 OFFCURVE",
"160 584 CURVE SMOOTH",
"160 489 OFFCURVE",
"220 450 OFFCURVE",
"296 429 CURVE",
"140 423 OFFCURVE",
"45 333 OFFCURVE",
"45 204 CURVE SMOOTH"
);
}
);
width = 600;
}
);
leftMetricsKey = "=E";
rightMetricsKey = "=E";
},
{
glyphname = E.fina;
lastChange = "2016-08-05 11:31:11 +0000";
layers = (
{
layerId = "76F08205-C3C5-4E97-8429-CDDB50136507";
paths = (
{
closed = 1;
nodes = (
"45 65 OFFCURVE",
"154 -9 OFFCURVE",
"298 -9 CURVE SMOOTH",
"587 -9 OFFCURVE",
"719 331 OFFCURVE",
"719 331 CURVE",
"700 350 LINE",
"700 350 OFFCURVE",
"549 16 OFFCURVE",
"310 16 CURVE SMOOTH",
"261 16 OFFCURVE",
"235 31 OFFCURVE",
"235 31 CURVE",
"313 415 LINE",
"496 415 LINE",
"500 443 LINE",
"318 443 LINE",
"377 769 LINE",
"377 769 OFFCURVE",
"408 775 OFFCURVE",
"446 775 CURVE SMOOTH",
"557 775 OFFCURVE",
"604 724 OFFCURVE",
"604 724 CURVE",
"525 733 OFFCURVE",
"496 687 OFFCURVE",
"496 648 CURVE SMOOTH",
"496 603 OFFCURVE",
"534 565 OFFCURVE",
"581 565 CURVE SMOOTH",
"628 565 OFFCURVE",
"666 603 OFFCURVE",
"666 652 CURVE SMOOTH",
"666 717 OFFCURVE",
"602 800 OFFCURVE",
"432 800 CURVE SMOOTH",
"269 800 OFFCURVE",
"160 713 OFFCURVE",
"160 584 CURVE SMOOTH",
"160 489 OFFCURVE",
"220 450 OFFCURVE",
"296 429 CURVE",
"140 423 OFFCURVE",
"45 333 OFFCURVE",
"45 204 CURVE SMOOTH"
);
}
);
width = 600;
}
);
leftMetricsKey = "=E";
rightMetricsKey = "=E";
},
{
glyphname = E.isol;
lastChange = "2016-08-05 11:31:21 +0000";
layers = (
{
layerId = "76F08205-C3C5-4E97-8429-CDDB50136507";
paths = (
{
closed = 1;
nodes = (
"45 65 OFFCURVE",
"154 -9 OFFCURVE",
"298 -9 CURVE SMOOTH",
"587 -9 OFFCURVE",
"719 331 OFFCURVE",
"719 331 CURVE",
"700 350 LINE",
"700 350 OFFCURVE",
"549 16 OFFCURVE",
"310 16 CURVE SMOOTH",
"261 16 OFFCURVE",
"235 31 OFFCURVE",
"235 31 CURVE",
"313 415 LINE",
"496 415 LINE",
"500 443 LINE",
"318 443 LINE",
"377 769 LINE",
"377 769 OFFCURVE",
"408 775 OFFCURVE",
"446 775 CURVE SMOOTH",
"557 775 OFFCURVE",
"604 724 OFFCURVE",
"604 724 CURVE",
"525 733 OFFCURVE",
"496 687 OFFCURVE",
"496 648 CURVE SMOOTH",
"496 603 OFFCURVE",
"534 565 OFFCURVE",
"581 565 CURVE SMOOTH",
"628 565 OFFCURVE",
"666 603 OFFCURVE",
"666 652 CURVE SMOOTH",
"666 717 OFFCURVE",
"602 800 OFFCURVE",
"432 800 CURVE SMOOTH",
"269 800 OFFCURVE",
"160 713 OFFCURVE",
"160 584 CURVE SMOOTH",
"160 489 OFFCURVE",
"220 450 OFFCURVE",
"296 429 CURVE",
"140 423 OFFCURVE",
"45 333 OFFCURVE",
"45 204 CURVE SMOOTH"
);
}
);
width = 600;
}
);
leftMetricsKey = "=E";
rightMetricsKey = "=E";
},
